<svg width="35" height="35" viewBox="0 0 35 35" fill="none" xmlns="http://www.w3.org/2000/svg">
<path d="M12.2337 23.6428C14.278 24.1547 16.5968 24.1547 18.932 23.5291C21.2671 22.9035 23.2756 21.7432 24.7901 20.2775" stroke="#1C16B6" stroke-width="1.5" stroke-linecap="round"/>
<path d="M22.1724 13.4067C22.3137 13.9338 22.289 14.4168 22.1728 14.7603C22.0545 15.1098 21.8799 15.2322 21.764 15.2632C21.6481 15.2942 21.4357 15.2757 21.1585 15.0321C20.8861 14.7927 20.6233 14.3868 20.4821 13.8597C20.3408 13.3326 20.3655 12.8497 20.4817 12.5061C20.5999 12.1566 20.7746 12.0342 20.8905 12.0032C21.0063 11.9722 21.2188 11.9907 21.4959 12.2343C21.7684 12.4737 22.0312 12.8797 22.1724 13.4067Z" fill="black" stroke="#1C16B6" stroke-width="1.5"/>
<path d="M12.7555 15.9316C12.8967 16.4587 12.8721 16.9417 12.7558 17.2852C12.6376 17.6347 12.4629 17.7571 12.3471 17.7881C12.2312 17.8192 12.0188 17.8006 11.7416 17.557C11.4692 17.3176 11.2064 16.9117 11.0651 16.3846C10.9239 15.8575 10.9485 15.3746 11.0648 15.031C11.183 14.6815 11.3577 14.5592 11.4736 14.5281C11.5894 14.4971 11.8018 14.5157 12.079 14.7592C12.3514 14.9986 12.6143 15.4046 12.7555 15.9316Z" fill="black" stroke="#1C16B6" stroke-width="1.5"/>
<path d="M31.5436 13.4199C33.3489 20.1588 34.2524 23.5274 32.7201 26.1811C31.1877 28.8347 27.8191 29.7398 21.0802 31.5436C14.3413 33.3489 10.9727 34.2524 8.31907 32.7201C5.66544 31.1877 4.76032 27.8191 2.95657 21.0802C1.14957 14.3413 0.247691 10.9727 1.78007 8.31907C3.31244 5.66544 6.68107 4.76032 13.4199 2.95657C20.1588 1.14957 23.5274 0.247691 26.1811 1.78007C27.8207 2.72582 28.7908 4.37194 29.7187 7.07757" stroke="#1C16B6" stroke-width="1.5" stroke-linecap="round"/>
<path d="M18.8751 23.75L19.6518 25.3328C19.7923 25.621 19.9883 25.8787 20.2286 26.091C20.4689 26.3034 20.7487 26.4662 21.052 26.5703C21.3553 26.6743 21.6762 26.7175 21.9962 26.6973C22.3162 26.6771 22.6291 26.594 22.9169 26.4527C23.2048 26.3114 23.4619 26.1147 23.6736 25.8738C23.8853 25.633 24.0474 25.3528 24.1506 25.0492C24.2538 24.7456 24.2961 24.4246 24.275 24.1046C24.254 23.7847 24.17 23.472 24.0279 23.1845L23.2804 21.6652" stroke="#1C16B6" stroke-width="1.5"/>
</svg>
