<svg width="10" height="10" viewBox="0 0 10 10" fill="none" xmlns="http://www.w3.org/2000/svg">
<path d="M9.16964 3.65713L2.16964 0.157134C1.89338 0.019639 1.58144 -0.0293103 1.27635 0.0169603C0.971262 0.0632309 0.687865 0.20247 0.464801 0.415692C0.241737 0.628915 0.0898618 0.905745 0.0298818 1.20844C-0.0300982 1.51113 0.0047361 1.82496 0.129635 2.10713L1.32964 4.79213C1.35686 4.85705 1.37089 4.92674 1.37089 4.99713C1.37089 5.06753 1.35686 5.13722 1.32964 5.20213L0.129635 7.88714C0.0279855 8.11549 -0.0149867 8.36563 0.00462397 8.61482C0.0242347 8.86401 0.105807 9.10434 0.241926 9.31399C0.378046 9.52363 0.564398 9.69594 0.784047 9.81524C1.0037 9.93455 1.24968 9.99707 1.49964 9.99713C1.73375 9.9948 1.96438 9.94013 2.17464 9.83713L9.17464 6.33713C9.42293 6.21223 9.63164 6.02079 9.77748 5.78417C9.92332 5.54756 10.0005 5.27508 10.0005 4.99713C10.0005 4.71919 9.92332 4.44671 9.77748 4.2101C9.63164 3.97348 9.42293 3.78204 9.17464 3.65713H9.16964ZM8.72464 5.44213L1.72464 8.94213C1.63272 8.98627 1.5295 9.00125 1.42883 8.98506C1.32816 8.96887 1.23484 8.92229 1.16139 8.85156C1.08794 8.78083 1.03788 8.68934 1.0179 8.58935C0.997926 8.48936 1.009 8.38565 1.04964 8.29213L2.24464 5.60713C2.2601 5.57128 2.27346 5.53455 2.28464 5.49713H5.72964C5.86224 5.49713 5.98942 5.44446 6.08319 5.35069C6.17696 5.25692 6.22964 5.12974 6.22964 4.99713C6.22964 4.86453 6.17696 4.73735 6.08319 4.64358C5.98942 4.54981 5.86224 4.49713 5.72964 4.49713H2.28464C2.27346 4.45972 2.2601 4.42299 2.24464 4.38713L1.04964 1.70213C1.009 1.60862 0.997926 1.50491 1.0179 1.40492C1.03788 1.30493 1.08794 1.21344 1.16139 1.14271C1.23484 1.07198 1.32816 1.0254 1.42883 1.00921C1.5295 0.993022 1.63272 1.008 1.72464 1.05213L8.72464 4.55213C8.80654 4.59409 8.87527 4.65784 8.92326 4.73636C8.97126 4.81487 8.99666 4.90511 8.99666 4.99713C8.99666 5.08916 8.97126 5.1794 8.92326 5.25791C8.87527 5.33643 8.80654 5.40018 8.72464 5.44213Z" fill="black"/>
</svg>
