<svg width="23" height="26" viewBox="0 0 23 26" fill="none" xmlns="http://www.w3.org/2000/svg">
<path d="M20.6 3.19556H2.4C2.0287 3.19556 1.6726 3.36785 1.41005 3.67453C1.1475 3.98122 1 4.39717 1 4.83089V23.3646C1 23.7983 1.1475 24.2143 1.41005 24.521C1.6726 24.8277 2.0287 24.9999 2.4 24.9999H20.6C20.9713 24.9999 21.3274 24.8277 21.5899 24.521C21.8525 24.2143 22 23.7983 22 23.3646V4.83089C22 4.39717 21.8525 3.98122 21.5899 3.67453C21.3274 3.36785 20.9713 3.19556 20.6 3.19556Z" stroke="#FDFDEF" stroke-width="1.5" stroke-linecap="round" stroke-linejoin="round"/>
<mask id="path-2-inside-1_832_61" fill="white">
<path d="M3 14H5C5.26522 14 5.51957 14.1264 5.70711 14.3515C5.89464 14.5765 6 14.8817 6 15.2V18.8C6 19.1183 5.89464 19.4235 5.70711 19.6485C5.51957 19.8736 5.26522 20 5 20H3V14ZM4 15.2V18.8H5V15.2H4Z"/>
</mask>
<path d="M3 14H5C5.26522 14 5.51957 14.1264 5.70711 14.3515C5.89464 14.5765 6 14.8817 6 15.2V18.8C6 19.1183 5.89464 19.4235 5.70711 19.6485C5.51957 19.8736 5.26522 20 5 20H3V14ZM4 15.2V18.8H5V15.2H4Z" fill="white"/>
<path d="M3 14V12.5H1.5V14H3ZM5 14V12.5V14ZM3 20H1.5V21.5H3V20ZM4 15.2V13.7H2.5V15.2H4ZM4 18.8H2.5V20.3H4V18.8ZM5 18.8V20.3H6.5V18.8H5ZM5 15.2H6.5V13.7H5V15.2ZM3 15.5H5V12.5H3V15.5ZM5 15.5C4.76996 15.5 4.61853 15.3883 4.55477 15.3117L6.85944 13.3912C6.42061 12.8646 5.76048 12.5 5 12.5L5 15.5ZM4.55477 15.3117C4.5241 15.2749 4.51118 15.2453 4.50597 15.2302C4.50066 15.2148 4.5 15.2052 4.5 15.2H7.5C7.5 14.5634 7.29162 13.9098 6.85944 13.3912L4.55477 15.3117ZM4.5 15.2V18.8H7.5V15.2H4.5ZM4.5 18.8C4.5 18.7948 4.50066 18.7852 4.50597 18.7698C4.51118 18.7547 4.5241 18.7251 4.55477 18.6883L6.85944 20.6088C7.29162 20.0902 7.5 19.4366 7.5 18.8H4.5ZM4.55477 18.6883C4.61853 18.6117 4.76995 18.5 5 18.5V21.5C5.76048 21.5 6.42061 21.1354 6.85944 20.6088L4.55477 18.6883ZM5 18.5H3V21.5H5V18.5ZM4.5 20V14H1.5V20H4.5ZM2.5 15.2V18.8H5.5V15.2H2.5ZM4 20.3H5V17.3H4V20.3ZM6.5 18.8V15.2H3.5V18.8H6.5ZM5 13.7H4V16.7H5V13.7Z" fill="white" mask="url(#path-2-inside-1_832_61)"/>
<path d="M1 9.19177H22" stroke="#FDFDEF" stroke-width="1.5" stroke-linejoin="round"/>
<path d="M7.06667 5.36088V1M15.4667 5.36088V1" stroke="#FDFDEF" stroke-width="1.5" stroke-linecap="round" stroke-linejoin="round"/>
<mask id="path-6-inside-2_832_61" fill="white">
<path d="M17 14H18L18.5 15.8L19 14H20L19 17.6V20H18V17.6L17 14Z"/>
</mask>
<path d="M17 14H18L18.5 15.8L19 14H20L19 17.6V20H18V17.6L17 14Z" fill="white"/>
<path d="M17 14V12.5H15.0265L15.5547 14.4015L17 14ZM18 14L19.4453 13.5985L19.1401 12.5H18V14ZM18.5 15.8L17.0547 16.2015L18.5 21.4045L19.9453 16.2015L18.5 15.8ZM19 14V12.5H17.8599L17.5547 13.5985L19 14ZM20 14L21.4453 14.4015L21.9735 12.5H20V14ZM19 17.6L17.5547 17.1985L17.5 17.3955V17.6H19ZM19 20V21.5H20.5V20H19ZM18 20H16.5V21.5H18V20ZM18 17.6H19.5V17.3955L19.4453 17.1985L18 17.6ZM17 15.5H18V12.5H17V15.5ZM16.5547 14.4015L17.0547 16.2015L19.9453 15.3985L19.4453 13.5985L16.5547 14.4015ZM19.9453 16.2015L20.4453 14.4015L17.5547 13.5985L17.0547 15.3985L19.9453 16.2015ZM19 15.5H20V12.5H19V15.5ZM18.5547 13.5985L17.5547 17.1985L20.4453 18.0015L21.4453 14.4015L18.5547 13.5985ZM17.5 17.6V20H20.5V17.6H17.5ZM19 18.5H18V21.5H19V18.5ZM19.5 20V17.6H16.5V20H19.5ZM19.4453 17.1985L18.4453 13.5985L15.5547 14.4015L16.5547 18.0015L19.4453 17.1985Z" fill="white" mask="url(#path-6-inside-2_832_61)"/>
<mask id="path-8-inside-3_832_61" fill="white">
<path d="M9 14H11C11.2652 14 11.5196 14.1264 11.7071 14.3515C11.8946 14.5765 12 14.8817 12 15.2V18.8C12 19.1183 11.8946 19.4235 11.7071 19.6485C11.5196 19.8736 11.2652 20 11 20H9V14ZM10 15.2V18.8H11V15.2H10Z"/>
</mask>
<path d="M9 14H11C11.2652 14 11.5196 14.1264 11.7071 14.3515C11.8946 14.5765 12 14.8817 12 15.2V18.8C12 19.1183 11.8946 19.4235 11.7071 19.6485C11.5196 19.8736 11.2652 20 11 20H9V14ZM10 15.2V18.8H11V15.2H10Z" fill="white"/>
<path d="M9 14V12.5H7.5V14H9ZM11 14V12.5V14ZM9 20H7.5V21.5H9V20ZM10 15.2V13.7H8.5V15.2H10ZM10 18.8H8.5V20.3H10V18.8ZM11 18.8V20.3H12.5V18.8H11ZM11 15.2H12.5V13.7H11V15.2ZM9 15.5H11V12.5H9V15.5ZM11 15.5C10.77 15.5 10.6185 15.3883 10.5548 15.3117L12.8594 13.3912C12.4206 12.8646 11.7605 12.5 11 12.5L11 15.5ZM10.5548 15.3117C10.5241 15.2749 10.5112 15.2453 10.506 15.2302C10.5007 15.2148 10.5 15.2052 10.5 15.2H13.5C13.5 14.5634 13.2916 13.9098 12.8594 13.3912L10.5548 15.3117ZM10.5 15.2V18.8H13.5V15.2H10.5ZM10.5 18.8C10.5 18.7948 10.5007 18.7852 10.506 18.7698C10.5112 18.7547 10.5241 18.7251 10.5548 18.6883L12.8594 20.6088C13.2916 20.0902 13.5 19.4366 13.5 18.8H10.5ZM10.5548 18.6883C10.6185 18.6117 10.77 18.5 11 18.5V21.5C11.7605 21.5 12.4206 21.1354 12.8594 20.6088L10.5548 18.6883ZM11 18.5H9V21.5H11V18.5ZM10.5 20V14H7.5V20H10.5ZM8.5 15.2V18.8H11.5V15.2H8.5ZM10 20.3H11V17.3H10V20.3ZM12.5 18.8V15.2H9.5V18.8H12.5ZM11 13.7H10V16.7H11V13.7Z" fill="white" mask="url(#path-8-inside-3_832_61)"/>
<mask id="path-10-inside-4_832_61" fill="white">
<path d="M14 14H15C15.2652 14 15.5196 14.1264 15.7071 14.3515C15.8946 14.5765 16 14.8817 16 15.2V20H15V17.6H14V20H13V15.2C13 14.8817 13.1054 14.5765 13.2929 14.3515C13.4804 14.1264 13.7348 14 14 14ZM14 15.2V16.4H15V15.2H14Z"/>
</mask>
<path d="M14 14H15C15.2652 14 15.5196 14.1264 15.7071 14.3515C15.8946 14.5765 16 14.8817 16 15.2V20H15V17.6H14V20H13V15.2C13 14.8817 13.1054 14.5765 13.2929 14.3515C13.4804 14.1264 13.7348 14 14 14ZM14 15.2V16.4H15V15.2H14Z" fill="white"/>
<path d="M14 14L14 12.5L14 14ZM15 14V12.5V14ZM16 20V21.5H17.5V20H16ZM15 20H13.5V21.5H15V20ZM15 17.6H16.5V16.1H15V17.6ZM14 17.6V16.1H12.5V17.6H14ZM14 20V21.5H15.5V20H14ZM13 20H11.5V21.5H13V20ZM14 15.2V13.7H12.5V15.2H14ZM14 16.4H12.5V17.9H14V16.4ZM15 16.4V17.9H16.5V16.4H15ZM15 15.2H16.5V13.7H15V15.2ZM14 15.5H15V12.5H14V15.5ZM15 15.5C14.77 15.5 14.6185 15.3883 14.5548 15.3117L16.8594 13.3912C16.4206 12.8646 15.7605 12.5 15 12.5L15 15.5ZM14.5548 15.3117C14.5241 15.2749 14.5112 15.2453 14.506 15.2302C14.5007 15.2148 14.5 15.2052 14.5 15.2H17.5C17.5 14.5634 17.2916 13.9098 16.8594 13.3912L14.5548 15.3117ZM14.5 15.2V20H17.5V15.2H14.5ZM16 18.5H15V21.5H16V18.5ZM16.5 20V17.6H13.5V20H16.5ZM15 16.1H14V19.1H15V16.1ZM12.5 17.6V20H15.5V17.6H12.5ZM14 18.5H13V21.5H14V18.5ZM14.5 20V15.2H11.5V20H14.5ZM14.5 15.2C14.5 15.2052 14.4993 15.2148 14.494 15.2302C14.4888 15.2453 14.4759 15.2749 14.4452 15.3117L12.1406 13.3912C11.7084 13.9098 11.5 14.5634 11.5 15.2H14.5ZM14.4452 15.3117C14.3815 15.3883 14.23 15.5 14 15.5L14 12.5C13.2395 12.5 12.5794 12.8646 12.1406 13.3912L14.4452 15.3117ZM12.5 15.2V16.4H15.5V15.2H12.5ZM14 17.9H15V14.9H14V17.9ZM16.5 16.4V15.2H13.5V16.4H16.5ZM15 13.7H14V16.7H15V13.7Z" fill="white" mask="url(#path-10-inside-4_832_61)"/>
</svg>
