<svg width="35" height="26" viewBox="0 0 35 26" fill="none" xmlns="http://www.w3.org/2000/svg">
<path d="M27.4 9.61176V3.82353M27.4 3.82353C27.4 3.07468 27.0523 2.35651 26.4334 1.82699C25.8145 1.29748 24.9752 1 24.1 1C23.2247 1 22.3854 1.29748 21.7665 1.82699C21.1476 2.35651 20.8 3.07468 20.8 3.82353M27.4 3.82353C27.4 3.07468 27.7476 2.35651 28.3665 1.82699C28.9854 1.29748 29.8247 1 30.7 1C31.5752 1 32.4145 1.29748 33.0334 1.82699C33.6523 2.35651 34 3.07468 34 3.82353" stroke="black" stroke-width="1.5" stroke-linecap="round" stroke-linejoin="round"/>
<path d="M22.45 17.9412H22.4665M7.6 10.4588L4.135 8.62353C2.155 7.63529 1 5.8 1 3.82353V1C4.3 1 7.6 3.82353 7.6 3.82353C7.6 3.82353 10.9 1 14.2 1V3.82353C14.2 5.8 13.045 7.63529 11.065 8.62353L4.795 12.0118C3.30059 12.8377 2.15824 14.0548 1.53833 15.4816C0.918428 16.9084 0.854176 18.4684 1.35516 19.929C1.85615 21.3896 2.89553 22.6725 4.31828 23.5863C5.74104 24.5002 7.47095 24.9961 9.25 25H29.05C31.855 25 34 23.1647 34 20.7647V16.5294C34 12.5765 30.37 9.47059 25.75 9.47059C21.295 9.47059 17.335 11.4471 15.19 14.5529L13.705 16.5294C13.3312 17.0463 12.7724 17.4461 12.1117 17.6695C11.451 17.8929 10.7237 17.9279 10.0379 17.7693C9.35206 17.6107 8.74438 17.267 8.30516 16.7893C7.86594 16.3115 7.61863 15.7253 7.6 15.1176V10.4588Z" stroke="black" stroke-width="1.5" stroke-linecap="round" stroke-linejoin="round"/>
</svg>
