<svg width="23" height="23" viewBox="0 0 23 23" fill="none" xmlns="http://www.w3.org/2000/svg">
<path d="M17.8 8.53529V3.47059M17.8 3.47059C17.8 2.81535 17.5787 2.18694 17.1849 1.72362C16.7911 1.26029 16.2569 1 15.7 1C15.143 1 14.6089 1.26029 14.2151 1.72362C13.8212 2.18694 13.6 2.81535 13.6 3.47059M17.8 3.47059C17.8 2.81535 18.0212 2.18694 18.4151 1.72362C18.8089 1.26029 19.343 1 19.9 1C20.4569 1 20.9911 1.26029 21.3849 1.72362C21.7787 2.18694 22 2.81535 22 3.47059" stroke="#FDFDEF" stroke-width="1.5" stroke-linecap="round" stroke-linejoin="round"/>
<path d="M14.65 15.8235H14.6605M5.2 9.27647L2.995 7.67059C1.735 6.80588 1 5.2 1 3.47059V1C3.1 1 5.2 3.47059 5.2 3.47059C5.2 3.47059 7.3 1 9.4 1V3.47059C9.4 5.2 8.665 6.80588 7.405 7.67059L3.415 10.6353C2.46401 11.358 1.73706 12.4229 1.34258 13.6714C0.94809 14.9198 0.907203 16.2848 1.22601 17.5629C1.54482 18.8409 2.20624 19.9634 3.11164 20.763C4.01703 21.5627 5.11788 21.9966 6.25 22H18.85C20.635 22 22 20.3941 22 18.2941V14.5882C22 11.1294 19.69 8.41176 16.75 8.41176C13.915 8.41176 11.395 10.1412 10.03 12.8588L9.085 14.5882C8.8471 15.0405 8.4915 15.3904 8.07106 15.5858C7.65062 15.7813 7.18779 15.8119 6.75137 15.6732C6.31495 15.5344 5.92824 15.2336 5.64874 14.8156C5.36923 14.3976 5.21186 13.8846 5.2 13.3529V9.27647Z" stroke="#FDFDEF" stroke-width="1.5" stroke-linecap="round" stroke-linejoin="round"/>
</svg>
