<svg width="16" height="22" viewBox="0 0 16 22" fill="none" xmlns="http://www.w3.org/2000/svg">
<path d="M15.5 0.5V6.82773L10.8347 8.50246L8.00252 9.47072L0.5 6.8256V0.5H6H11H15.5Z" fill="#1580F3" stroke="black"/>
<circle cx="8" cy="16" r="5.5" fill="#CD7F32" stroke="black"/>
<path d="M0.5 5.5L8 7L15.5 6M0.5 3L7.5 4.5L15.5 3" stroke="black"/>
<path d="M8.05833 14.6875C8.05833 14.6875 8.74533 14.6627 9.0607 14.1002C9.3757 13.5377 9.00445 13 9.00445 13C9.00445 13 8.31708 13.0247 8.0017 13.5872C7.6867 14.1497 8.05795 14.6875 8.05795 14.6875M8.13108 14.6875C7.58245 15.4746 6.8872 17.3031 8.49708 18.3205C10.509 19.5917 10.692 19.9551 10.875 20.5" stroke="black" stroke-width="0.75" stroke-linecap="round" stroke-linejoin="round"/>
<path d="M9.94945 19.1875C9.94945 19.1875 8.60995 18.676 9.3757 17.3125C9.3757 17.3125 10.9065 17.824 9.94945 19.1875Z" stroke="black" stroke-width="0.75" stroke-linecap="round" stroke-linejoin="round"/>
<path d="M9.93746 19.375C9.93746 19.375 9.04983 18.2219 7.87496 19.4144C7.87496 19.4144 8.81546 20.7558 9.93746 19.375ZM7.49621 17.1025C7.49621 17.1025 7.64546 15.5703 6.01121 15.6265C6.01121 15.6265 5.77271 17.3414 7.49621 17.1025Z" stroke="black" stroke-width="0.75" stroke-linecap="round" stroke-linejoin="round"/>
<path d="M7.5037 16.9375C7.5037 16.9375 7.35446 15.4056 8.9887 15.4618C8.9887 15.4618 9.22721 17.1763 7.5037 16.9375Z" stroke="black" stroke-width="0.75" stroke-linecap="round" stroke-linejoin="round"/>
</svg>
