<svg width="17" height="21" viewBox="0 0 17 21" fill="none" xmlns="http://www.w3.org/2000/svg">
<path d="M16.5 0.499928V6.82058L11.5309 8.49943L8.50239 9.47391L0.5 6.81852V0.499928H6.375H11.6875H16.5Z" fill="#1580F3" stroke="black"/>
<circle cx="8.5" cy="15.5" r="5" fill="#FFD700" stroke="black"/>
<path d="M6 2L8 5.04003L6 8L4 5.04003L6 2Z" fill="black"/>
<path d="M6 2L8 5.04003L6 8L4 5.04003L6 2Z" fill="black"/>
<path d="M10.9983 2L12.9983 5.04003L10.9983 8L8.99828 5.04003L10.9983 2Z" fill="black"/>
<path d="M10.9983 2L12.9983 5.04003L10.9983 8L8.99828 5.04003L10.9983 2Z" fill="black"/>
<path d="M5.67372 13.6138C5.60983 14.1884 6.00488 14.7218 6.00488 14.7218C6.00488 14.7218 6.50372 14.3235 6.56761 13.7489C6.6315 13.1738 6.23645 12.6404 6.23645 12.6404C6.23645 12.6404 5.73791 13.0394 5.67372 13.6138ZM5.20487 15.5454C5.41365 16.0714 5.99198 16.2779 5.99198 16.2779C5.99198 16.2779 6.23195 15.6315 6.02317 15.1054C5.8144 14.5794 5.23607 14.3725 5.23607 14.3725C5.23607 14.3725 4.9961 15.0193 5.20487 15.5454ZM5.45114 17.3951C5.8495 17.7427 6.44282 17.6048 6.44282 17.6048C6.44282 17.6048 6.39003 16.903 5.99168 16.5555C5.59333 16.2079 5 16.3458 5 16.3458C5 16.3458 5.05279 17.0476 5.45114 17.3951ZM6.53371 18.8994C6.98516 19.1437 7.54129 18.8662 7.54129 18.8662C7.54129 18.8662 7.36521 18.1924 6.91376 17.9478C6.46232 17.7035 5.90619 17.9814 5.90619 17.9814C5.90619 17.9814 6.08227 18.6551 6.53371 18.8994ZM7.03405 12.3387C6.67109 12.7353 6.68489 13.4391 6.68489 13.4391C6.68489 13.4391 7.28782 13.5007 7.65077 13.1042C8.01373 12.7076 7.99993 12.0034 7.99993 12.0034C7.99993 12.0034 7.39701 11.9422 7.03405 12.3387Z" stroke="black" stroke-width="0.75" stroke-linecap="round" stroke-linejoin="round"/>
<path d="M11.3266 13.6138C11.3905 14.1884 10.9954 14.7218 10.9954 14.7218C10.9954 14.7218 10.4966 14.3235 10.4324 13.7489C10.3685 13.1735 10.7639 12.6404 10.7639 12.6404C10.7639 12.6404 11.2624 13.0391 11.3266 13.6138ZM11.7948 15.5454C11.5861 16.0714 11.0077 16.2779 11.0077 16.2779C11.0077 16.2779 10.7678 15.6315 10.9765 15.1054C11.1853 14.5794 11.7639 14.3725 11.7639 14.3725C11.7639 14.3725 12.0039 15.0193 11.7948 15.5454ZM11.5489 17.3951C11.1505 17.7427 10.5572 17.6048 10.5572 17.6048C10.5572 17.6048 10.61 16.903 11.0083 16.5555C11.4067 16.2079 12 16.3458 12 16.3458C12 16.3458 11.9472 17.0476 11.5489 17.3951ZM10.4663 18.8994C10.0148 19.1437 9.45871 18.8662 9.45871 18.8662C9.45871 18.8662 9.63479 18.1924 10.0862 17.9478C10.5377 17.7035 11.0935 17.9814 11.0935 17.9814C11.0935 17.9814 10.9177 18.6551 10.4663 18.8994ZM9.96595 12.3387C10.3289 12.7353 10.3151 13.4391 10.3151 13.4391C10.3151 13.4391 9.71218 13.5007 9.34923 13.1042C8.98627 12.7076 9.00007 12.0034 9.00007 12.0034C9.00007 12.0034 9.60299 11.9422 9.96595 12.3387Z" stroke="black" stroke-width="0.75" stroke-linecap="round" stroke-linejoin="round"/>
<path d="M13 13H11M12 11V15M11.3143 13.8571L12.6857 12.1429M12.6857 13.8571L12 13L11.3143 12.1429" stroke="white" stroke-width="0.5" stroke-linecap="round" stroke-linejoin="round"/>
<path d="M11.4 13C11.8179 13 12 12.707 12 12C12 12.707 12.1809 13 12.6 13C12.1809 13 12 13.3014 12 14C12 13.3014 11.8179 13 11.4 13Z" fill="white" stroke="white" stroke-width="0.75" stroke-linejoin="round"/>
</svg>
