<svg width="17" height="21" viewBox="0 0 17 21" fill="none" xmlns="http://www.w3.org/2000/svg">
<path d="M16.5 0.499928V6.82058L11.5309 8.49943L8.50239 9.47391L0.5 6.81852V0.499928H6.375H11.6875H16.5Z" fill="#E6122E" stroke="black"/>
<circle cx="8.5" cy="15.5" r="5" fill="#CD7F32" stroke="black"/>
<path d="M0.5 6L8.5 7.5L16.5 6M0.5 4L8.5 5.5L16.5 4M0.5 2L8.5 3.5L16.5 2" stroke="black"/>
<path d="M8.05833 13.6875C8.05833 13.6875 8.74533 13.6627 9.0607 13.1002C9.3757 12.5377 9.00445 12 9.00445 12C9.00445 12 8.31708 12.0247 8.0017 12.5872C7.6867 13.1497 8.05795 13.6875 8.05795 13.6875M8.13108 13.6875C7.58245 14.4746 6.8872 16.3031 8.49708 17.3205C10.509 18.5917 10.692 18.9551 10.875 19.5" stroke="black" stroke-width="0.75" stroke-linecap="round" stroke-linejoin="round"/>
<path d="M9.94945 18.1875C9.94945 18.1875 8.60995 17.676 9.3757 16.3125C9.3757 16.3125 10.9065 16.824 9.94945 18.1875Z" stroke="black" stroke-width="0.75" stroke-linecap="round" stroke-linejoin="round"/>
<path d="M9.93746 18.375C9.93746 18.375 9.04983 17.2219 7.87496 18.4144C7.87496 18.4144 8.81546 19.7558 9.93746 18.375ZM7.49621 16.1025C7.49621 16.1025 7.64546 14.5703 6.01121 14.6265C6.01121 14.6265 5.77271 16.3414 7.49621 16.1025Z" stroke="black" stroke-width="0.75" stroke-linecap="round" stroke-linejoin="round"/>
<path d="M7.5037 15.9375C7.5037 15.9375 7.35446 14.4056 8.9887 14.4618C8.9887 14.4618 9.22721 16.1763 7.5037 15.9375Z" stroke="black" stroke-width="0.75" stroke-linecap="round" stroke-linejoin="round"/>
</svg>
