<svg width="17" height="21" viewBox="0 0 17 21" fill="none" xmlns="http://www.w3.org/2000/svg">
<path d="M16.5 0.499928V6.82058L11.5309 8.49943L8.50239 9.47391L0.5 6.81852V0.499928H6.375H11.6875H16.5Z" fill="#A59E9E" stroke="black"/>
<circle cx="8.5" cy="15.5" r="5" fill="#FFD700" stroke="black"/>
<path d="M5 0H12L10.8333 9.23077L8.5 10L6.16667 9.23077L5 0Z" fill="#221E1E"/>
<path d="M13 14H8M10.5 10V18M8.78572 15.7143L12.2143 12.2857M12.2143 15.7143L10.5 14L8.78572 12.2857" stroke="white" stroke-width="0.5" stroke-linecap="round" stroke-linejoin="round"/>
<path d="M9 14C10.0447 14 10.5 13.414 10.5 12C10.5 13.414 10.9522 14 12 14C10.9522 14 10.5 14.6029 10.5 16C10.5 14.6029 10.0447 14 9 14Z" fill="white" stroke="white" stroke-width="0.75" stroke-linejoin="round"/>
</svg>
