<svg width="21" height="26" viewBox="0 0 21 26" fill="none" xmlns="http://www.w3.org/2000/svg">
<path d="M20.5 0.499911V8.55069L14.2802 10.6616L10.5024 11.8828L0.5 8.54862V0.499911H7.875H14.4375H20.5Z" fill="#1580F3" stroke="black"/>
<g clip-path="url(#clip0_715_2020)">
<path d="M9.84285 13.1554C10.0541 13.0535 10.2917 13 10.5333 13C10.775 13 11.0126 13.0535 11.2238 13.1554L16.2016 15.5575C16.4234 15.6645 16.6083 15.8212 16.7369 16.0112C16.8656 16.2012 16.9334 16.4176 16.9333 16.6381V21.3619C16.9334 21.5824 16.8656 21.7988 16.7369 21.9888C16.6083 22.1788 16.4234 22.3355 16.2016 22.4425L11.2238 24.8446C11.0126 24.9465 10.775 25 10.5333 25C10.2917 25 10.0541 24.9465 9.84285 24.8446L4.86507 22.4419C4.64345 22.335 4.45876 22.1785 4.33011 21.9888C4.20146 21.799 4.13352 21.5828 4.13334 21.3626V16.6381C4.13327 16.4176 4.20108 16.2012 4.32975 16.0112C4.45841 15.8212 4.64324 15.6645 4.86507 15.5575L9.84285 13.1554Z" fill="#FFD700" stroke="black"/>
<g clip-path="url(#clip1_715_2020)">
<path d="M7.38947 17.1944C7.21812 17.5609 7.13151 17.9446 7.133 18.3307C7.133 20.0044 8.713 21.3611 10.6624 21.3611M10.6624 21.3611C12.6118 21.3611 14.1918 20.0044 14.1918 18.3307C14.1933 17.9446 14.1067 17.5609 13.9353 17.1944M10.6624 21.3611C11.7318 21.3611 12.133 22.6111 12.133 22.6111M10.6624 21.3611C9.593 21.3611 9.19182 22.6111 9.19182 22.6111M14.4977 16.0403C14.6695 16.7344 13.8977 17.1944 13.8977 17.1944C13.8977 17.1944 12.9548 16.9598 12.783 16.2653C12.6112 15.5711 13.383 15.1111 13.383 15.1111C13.383 15.1111 14.3259 15.3457 14.4977 16.0403Z" stroke="black" stroke-width="0.5" stroke-linecap="round" stroke-linejoin="round"/>
<path d="M16.0118 18.9194C15.2583 19.4469 14.2377 19.2361 14.2377 19.2361C14.2377 19.2361 13.9706 18.4978 14.7248 17.9694C15.4777 17.4419 16.4989 17.6528 16.4989 17.6528C16.4989 17.6528 16.7659 18.3911 16.0118 18.9194ZM14.0353 21.7053C13.153 21.4657 13.0153 20.7928 13.0153 20.7928C13.0153 20.7928 13.7606 20.3603 14.643 20.6003C15.5253 20.8398 15.6624 21.5128 15.6624 21.5128C15.6624 21.5128 14.9177 21.9453 14.0353 21.7053ZM7.29006 21.7053C8.17241 21.4657 8.30947 20.7928 8.30947 20.7928C8.30947 20.7928 7.56417 20.3603 6.68182 20.6003C5.79947 20.8398 5.66241 21.5128 5.66241 21.5128C5.66241 21.5128 6.4077 21.9453 7.29006 21.7053ZM5.313 18.9194C6.06653 19.4469 7.08711 19.2361 7.08711 19.2361C7.08711 19.2361 7.35417 18.4978 6.60005 17.9694C5.84653 17.4423 4.82594 17.6528 4.82594 17.6528C4.82594 17.6528 4.55888 18.3911 5.313 18.9194ZM6.82711 16.0403C6.65535 16.7344 7.42711 17.1944 7.42711 17.1944C7.42711 17.1944 8.37006 16.9598 8.54182 16.2653C8.71358 15.5711 7.94182 15.1111 7.94182 15.1111C7.94182 15.1111 6.99888 15.3457 6.82711 16.0403Z" stroke="black" stroke-width="0.5" stroke-linecap="round" stroke-linejoin="round"/>
<g clip-path="url(#clip2_715_2020)">
<path d="M10.5714 15.7963C10.2008 16.5529 10.0447 16.8728 10.1022 17.2602C9.87444 16.9447 9.54255 16.8313 8.75635 16.5637C9.01841 17.3663 9.12951 17.7052 9.4385 17.9377C9.05898 17.879 8.74569 18.0384 8.00446 18.4167C8.74569 18.795 9.05898 18.9544 9.4385 18.8957C9.12951 19.1282 9.01841 19.467 8.75636 20.2696C9.54252 20.0021 9.87444 19.8886 10.1022 19.5732C10.0447 19.9607 10.2008 20.2805 10.5714 21.0372C10.942 20.2805 11.0981 19.9607 11.0407 19.5732C11.2684 19.8886 11.6004 20.0021 12.3866 20.2696C12.1245 19.467 12.0133 19.1282 11.7043 18.8957C12.0839 18.9544 12.3972 18.795 13.1384 18.4167C12.3972 18.0384 12.0839 17.879 11.7044 17.9377C12.0133 17.7052 12.1245 17.3663 12.3866 16.5637C11.6004 16.8313 11.2684 16.9447 11.0407 17.2602C11.0981 16.8727 10.942 16.5529 10.5714 15.7963ZM10.5714 17.9496C10.823 17.9496 11.029 18.1599 11.029 18.4167C11.029 18.6735 10.823 18.8838 10.5714 18.8838C10.3199 18.8838 10.1138 18.6735 10.1138 18.4167C10.1138 18.1599 10.3199 17.9496 10.5714 17.9496ZM10.5714 18.1547C10.4285 18.1547 10.3147 18.2708 10.3147 18.4167C10.3147 18.5627 10.4285 18.6788 10.5714 18.6788C10.7144 18.6788 10.8281 18.5627 10.8281 18.4167C10.8281 18.2708 10.7144 18.1547 10.5714 18.1547Z" fill="#060000"/>
</g>
<path d="M16 16H14ZM15 14V18ZM14.3143 16.8571L15.6857 15.1429ZM15.6857 16.8571L15 16L14.3143 15.1429" fill="#FFEDED"/>
<path d="M16 16H14M15 14V18M14.3143 16.8571L15.6857 15.1429M15.6857 16.8571L15 16L14.3143 15.1429" stroke="white" stroke-width="0.5" stroke-linecap="round" stroke-linejoin="round"/>
<path d="M14.4 16C14.8179 16 15 15.707 15 15C15 15.707 15.1809 16 15.6 16C15.1809 16 15 16.3014 15 17C15 16.3014 14.8179 16 14.4 16Z" fill="#FFEDED" stroke="white" stroke-width="0.75" stroke-linejoin="round"/>
</g>
</g>
<g clip-path="url(#clip3_715_2020)">
<path d="M15.664 3.71794C15.9007 3.60605 16.2117 3.49995 16.6445 3.3555C16.5001 3.7883 16.3939 4.09935 16.2821 4.33597C16.1631 4.58763 16.039 4.75161 15.8582 4.88492L15.8953 4.9746C16.1175 4.94097 16.3211 4.96922 16.5832 5.06301C16.8296 5.1512 17.1245 5.29611 17.5327 5.5C17.1245 5.70389 16.8296 5.8488 16.5832 5.93699C16.3211 6.03078 16.1175 6.05903 15.8953 6.0254L15.8582 6.11508C16.039 6.24839 16.1631 6.41235 16.2821 6.66398C16.3939 6.90057 16.5001 7.21159 16.6445 7.64438C16.2117 7.49995 15.9007 7.39386 15.664 7.282C15.4124 7.16302 15.2484 7.03902 15.1151 6.85817L15.0254 6.89532C15.059 7.11747 15.0308 7.3211 14.937 7.58317C14.8488 7.82959 14.7039 8.12454 14.5 8.5327C14.2961 8.12454 14.1512 7.82959 14.063 7.58317C13.9692 7.3211 13.941 7.11747 13.9746 6.89532L13.8849 6.85817C13.7516 7.03902 13.5876 7.16302 13.336 7.282C13.0994 7.39387 12.7884 7.49996 12.3556 7.64439C12.5001 7.2116 12.6061 6.90057 12.718 6.66398C12.837 6.41234 12.961 6.24839 13.1418 6.11508L13.1047 6.0254C12.8825 6.05903 12.6789 6.03078 12.4168 5.93699C12.1704 5.8488 11.8755 5.70389 11.4673 5.5C11.8755 5.29611 12.1704 5.1512 12.4168 5.06301C12.6789 4.96922 12.8825 4.94097 13.1047 4.9746L13.1418 4.88492C12.961 4.75161 12.837 4.58763 12.718 4.33597C12.6061 4.09935 12.5 3.7883 12.3556 3.3555C12.7884 3.49994 13.0994 3.60605 13.336 3.71794C13.5877 3.83694 13.7516 3.96096 13.8849 4.14183L13.9746 4.10468C13.941 3.88253 13.9692 3.6789 14.063 3.41683C14.1512 3.17041 14.2961 2.87546 14.5 2.4673C14.7039 2.87546 14.8488 3.1704 14.937 3.41682C15.0308 3.67889 15.059 3.88253 15.0254 4.1047L15.1151 4.14185C15.2484 3.96097 15.4124 3.83695 15.664 3.71794ZM14.5 4.98945C14.5427 4.98945 14.5904 4.97917 14.6134 4.93743C14.6351 4.89791 14.6208 4.85414 14.6061 4.82464C14.5743 4.76117 14.5028 4.68746 14.4268 4.62743C14.3506 4.56727 14.2598 4.51293 14.1838 4.49542C14.1464 4.48681 14.1021 4.48468 14.0655 4.50771C14.0256 4.53278 14.0105 4.57697 14.0105 4.625C14.0105 4.90551 13.7805 5.13555 13.5 5.13555C13.4573 5.13555 13.4096 5.14583 13.3866 5.18757C13.3649 5.22709 13.3792 5.27086 13.3939 5.30036C13.4257 5.36383 13.4972 5.43754 13.5732 5.49757C13.6494 5.55773 13.7402 5.61207 13.8162 5.62958C13.8536 5.63819 13.8979 5.64032 13.9345 5.61729C13.9744 5.59222 13.9895 5.54803 13.9895 5.5C13.9895 5.21949 14.2195 4.98945 14.5 4.98945ZM14.1105 4.625C14.1105 4.61052 14.1128 4.60214 14.1147 4.59776C14.1163 4.59397 14.1178 4.59292 14.1187 4.59238C14.1217 4.59048 14.1334 4.58644 14.1613 4.59287C14.2158 4.60543 14.2927 4.64896 14.3648 4.70593C14.4372 4.76303 14.4948 4.8257 14.5166 4.86934C14.5208 4.8778 14.5228 4.88359 14.5237 4.88725C14.5194 4.88833 14.512 4.88945 14.5 4.88945C14.1643 4.88945 13.8895 5.16426 13.8895 5.5C13.8895 5.51448 13.8872 5.52286 13.8853 5.52724C13.8837 5.53103 13.8822 5.53208 13.8813 5.53262C13.8783 5.53452 13.8666 5.53856 13.8387 5.53213C13.7842 5.51957 13.7073 5.47604 13.6352 5.41907C13.5628 5.36197 13.5052 5.29929 13.4834 5.25566C13.4792 5.2472 13.4772 5.2414 13.4763 5.23775C13.4806 5.23667 13.488 5.23555 13.5 5.23555C13.8357 5.23555 14.1105 4.96074 14.1105 4.625ZM14.5 5.13555C14.2972 5.13555 14.1355 5.29725 14.1355 5.5C14.1355 5.70275 14.2972 5.86445 14.5 5.86445C14.7028 5.86445 14.8645 5.70275 14.8645 5.5C14.8645 5.29725 14.7028 5.13555 14.5 5.13555ZM14.2355 5.5C14.2355 5.35248 14.3525 5.23555 14.5 5.23555C14.6475 5.23555 14.7645 5.35248 14.7645 5.5C14.7645 5.64752 14.6475 5.76445 14.5 5.76445C14.3525 5.76445 14.2355 5.64752 14.2355 5.5Z" fill="black" stroke="black" stroke-width="0.1"/>
</g>
<g clip-path="url(#clip4_715_2020)">
<path d="M7.66403 3.71794C7.90065 3.60605 8.2117 3.49995 8.6445 3.3555C8.50005 3.7883 8.39395 4.09935 8.28206 4.33597C8.16306 4.58763 8.03904 4.75161 7.85817 4.88492L7.89532 4.9746C8.11747 4.94097 8.3211 4.96922 8.58317 5.06301C8.82959 5.1512 9.12454 5.29611 9.5327 5.5C9.12454 5.70389 8.8296 5.8488 8.58318 5.93699C8.32111 6.03078 8.11747 6.05903 7.8953 6.0254L7.85815 6.11508C8.03903 6.24839 8.16305 6.41235 8.28206 6.66398C8.39395 6.90057 8.50005 7.21159 8.6445 7.64438C8.21171 7.49995 7.90066 7.39386 7.66404 7.282C7.41237 7.16302 7.24839 7.03902 7.11508 6.85817L7.0254 6.89532C7.05903 7.11747 7.03078 7.3211 6.93699 7.58317C6.8488 7.82959 6.70389 8.12454 6.5 8.5327C6.29611 8.12454 6.1512 7.82959 6.06301 7.58317C5.96922 7.3211 5.94097 7.11747 5.9746 6.89532L5.88492 6.85817C5.75161 7.03902 5.58765 7.16302 5.33601 7.282C5.09941 7.39387 4.78839 7.49996 4.35562 7.64439C4.50005 7.2116 4.60613 6.90057 4.71799 6.66398C4.83697 6.41234 4.96096 6.24839 5.14183 6.11508L5.10468 6.0254C4.88253 6.05903 4.6789 6.03078 4.41683 5.93699C4.17041 5.8488 3.87546 5.70389 3.4673 5.5C3.87546 5.29611 4.17041 5.1512 4.41683 5.06301C4.6789 4.96922 4.88253 4.94097 5.10468 4.9746L5.14183 4.88492C4.96096 4.75161 4.83697 4.58763 4.71799 4.33597C4.60613 4.09935 4.50005 3.7883 4.35561 3.3555C4.7884 3.49994 5.09943 3.60605 5.33602 3.71794C5.58765 3.83694 5.75161 3.96096 5.88492 4.14183L5.9746 4.10468C5.94097 3.88253 5.96922 3.6789 6.06301 3.41683C6.1512 3.17041 6.29611 2.87546 6.5 2.4673C6.70389 2.87546 6.8488 3.1704 6.93699 3.41682C7.03078 3.67889 7.05903 3.88253 7.0254 4.1047L7.11508 4.14185C7.24839 3.96097 7.41237 3.83695 7.66403 3.71794ZM6.5 4.98945C6.54269 4.98945 6.59038 4.97917 6.61338 4.93743C6.63515 4.89791 6.62079 4.85414 6.60605 4.82464C6.57434 4.76117 6.50284 4.68746 6.4268 4.62743C6.35058 4.56727 6.25979 4.51293 6.18377 4.49542C6.1464 4.48681 6.10212 4.48468 6.06547 4.50771C6.02557 4.53278 6.01055 4.57697 6.01055 4.625C6.01055 4.90551 5.78051 5.13555 5.5 5.13555C5.45731 5.13555 5.40962 5.14583 5.38662 5.18757C5.36485 5.22709 5.37921 5.27086 5.39395 5.30036C5.42566 5.36383 5.49716 5.43754 5.5732 5.49757C5.64942 5.55773 5.74021 5.61207 5.81623 5.62958C5.8536 5.63819 5.89788 5.64032 5.93453 5.61729C5.97443 5.59222 5.98945 5.54803 5.98945 5.5C5.98945 5.21949 6.21949 4.98945 6.5 4.98945ZM6.11055 4.625C6.11055 4.61052 6.11278 4.60214 6.11469 4.59776C6.11634 4.59397 6.11781 4.59292 6.11867 4.59238C6.12169 4.59048 6.13341 4.58644 6.16132 4.59287C6.21583 4.60543 6.29268 4.64896 6.36484 4.70593C6.43718 4.76303 6.4948 4.8257 6.5166 4.86934C6.52083 4.8778 6.52276 4.88359 6.52365 4.88725C6.51937 4.88833 6.512 4.88945 6.5 4.88945C6.16426 4.88945 5.88945 5.16426 5.88945 5.5C5.88945 5.51448 5.88722 5.52286 5.88531 5.52724C5.88366 5.53103 5.88219 5.53208 5.88133 5.53262C5.87831 5.53452 5.86659 5.53856 5.83868 5.53213C5.78417 5.51957 5.70732 5.47604 5.63516 5.41907C5.56282 5.36197 5.5052 5.29929 5.4834 5.25566C5.47917 5.2472 5.47724 5.2414 5.47635 5.23775C5.48063 5.23667 5.488 5.23555 5.5 5.23555C5.83574 5.23555 6.11055 4.96074 6.11055 4.625ZM6.5 5.13555C6.29725 5.13555 6.13555 5.29725 6.13555 5.5C6.13555 5.70275 6.29725 5.86445 6.5 5.86445C6.70275 5.86445 6.86445 5.70275 6.86445 5.5C6.86445 5.29725 6.70275 5.13555 6.5 5.13555ZM6.23555 5.5C6.23555 5.35248 6.35248 5.23555 6.5 5.23555C6.64752 5.23555 6.76445 5.35248 6.76445 5.5C6.76445 5.64752 6.64752 5.76445 6.5 5.76445C6.35248 5.76445 6.23555 5.64752 6.23555 5.5Z" fill="black" stroke="black" stroke-width="0.1"/>
</g>
<defs>
<clipPath id="clip0_715_2020">
<rect width="16" height="14" fill="white" transform="translate(2 12)"/>
</clipPath>
<clipPath id="clip1_715_2020">
<rect width="14.1176" height="10" fill="white" transform="translate(2.94118 14)"/>
</clipPath>
<clipPath id="clip2_715_2020">
<rect width="5.71429" height="5.83333" fill="white" transform="translate(7.71428 15.5)"/>
</clipPath>
<clipPath id="clip3_715_2020">
<rect width="7" height="7" fill="white" transform="translate(11 2)"/>
</clipPath>
<clipPath id="clip4_715_2020">
<rect width="7" height="7" fill="white" transform="translate(3 2)"/>
</clipPath>
</defs>
</svg>
