<svg width="16" height="22" viewBox="0 0 16 22" fill="none" xmlns="http://www.w3.org/2000/svg">
<path d="M15.5 0.5V7.5573L10.8202 9.40524L8.00275 10.4648L0.500002 7.55506V0.5H6H11H15.5Z" fill="#E6122E" stroke="black"/>
<path d="M13.5 16C13.5 19.0376 11.0376 21.5 8 21.5C4.96243 21.5 2.5 19.0376 2.5 16C2.5 12.9624 4.96243 10.5 8 10.5C11.0376 10.5 13.5 12.9624 13.5 16Z" fill="#C0C0C0" stroke="black"/>
<path d="M2 0H4V9.5L2 8.5V0Z" fill="black"/>
<path d="M6.5 0H9.5V9.5L8 10L6.5 9.33333V0Z" fill="black"/>
<path d="M6.5 0H9.5V9.5L8 10L6.5 9.33333V0Z" fill="black"/>
<path d="M6.5 0H9.5V9.5L8 10L6.5 9.33333V0Z" fill="black"/>
<path d="M12 0.5H14V8L12 9V0.5Z" fill="black"/>
<path d="M12 0.5H14V8L12 9V0.5Z" fill="black"/>
<path d="M12 0.5H14V8L12 9V0.5Z" fill="black"/>
</svg>
