<svg width="17" height="22" viewBox="0 0 17 22" fill="none" xmlns="http://www.w3.org/2000/svg">
<path d="M16.5 0.5V7.5573L11.8202 9.40524L9.00275 10.4648L1.5 7.55506V0.5H7H12H16.5Z" fill="#A59E9E" stroke="black"/>
<circle cx="9" cy="16" r="5.5" fill="#FFD700" stroke="black"/>
<path d="M16 5L8.5 6.5L1 5" stroke="black"/>
<path d="M9.05833 14.6875C9.05833 14.6875 9.74533 14.6627 10.0607 14.1002C10.3757 13.5377 10.0045 13 10.0045 13C10.0045 13 9.31708 13.0247 9.00171 13.5872C8.68671 14.1497 9.05796 14.6875 9.05796 14.6875M9.13108 14.6875C8.58246 15.4746 7.88721 17.3031 9.49708 18.3205C11.509 19.5917 11.692 19.9551 11.875 20.5" stroke="black" stroke-width="0.75" stroke-linecap="round" stroke-linejoin="round"/>
<path d="M10.9495 19.1875C10.9495 19.1875 9.60996 18.676 10.3757 17.3125C10.3757 17.3125 11.9065 17.824 10.9495 19.1875Z" stroke="black" stroke-width="0.75" stroke-linecap="round" stroke-linejoin="round"/>
<path d="M10.9375 19.375C10.9375 19.375 10.0498 18.2219 8.87496 19.4144C8.87496 19.4144 9.81546 20.7558 10.9375 19.375ZM8.49621 17.1025C8.49621 17.1025 8.64546 15.5703 7.01121 15.6265C7.01121 15.6265 6.77271 17.3414 8.49621 17.1025Z" stroke="black" stroke-width="0.75" stroke-linecap="round" stroke-linejoin="round"/>
<path d="M8.5037 16.9375C8.5037 16.9375 8.35446 15.4056 9.9887 15.4618C9.9887 15.4618 10.2272 17.1763 8.5037 16.9375Z" stroke="black" stroke-width="0.75" stroke-linecap="round" stroke-linejoin="round"/>
<path d="M13 13H11M12 11V15M11.3143 13.8571L12.6857 12.1429M12.6857 13.8571L12 13L11.3143 12.1429" stroke="white" stroke-width="0.5" stroke-linecap="round" stroke-linejoin="round"/>
<path d="M11.4 13C11.8179 13 12 12.707 12 12C12 12.707 12.1809 13 12.6 13C12.1809 13 12 13.3014 12 14C12 13.3014 11.8179 13 11.4 13Z" fill="white" stroke="white" stroke-width="0.75" stroke-linejoin="round"/>
<path d="M13 13H11M12 11V15M11.3143 13.8571L12.6857 12.1429M12.6857 13.8571L12 13L11.3143 12.1429" stroke="white" stroke-width="0.5" stroke-linecap="round" stroke-linejoin="round"/>
<path d="M11.4 13C11.8179 13 12 12.707 12 12C12 12.707 12.1809 13 12.6 13C12.1809 13 12 13.3014 12 14C12 13.3014 11.8179 13 11.4 13Z" fill="white" stroke="white" stroke-width="0.75" stroke-linejoin="round"/>
</svg>
