<svg width="16" height="22" viewBox="0 0 16 22" fill="none" xmlns="http://www.w3.org/2000/svg">
<path d="M4 0H7L6.5 9L4.5 8.27027L4 0Z" fill="black"/>
<path d="M10.5 8.61689L8.00252 9.47073L0.5 6.8256V0.5H6H10.5V8.61689ZM11.5 8.26363V0.5H15.5V6.82774L11.5 8.26363Z" fill="#1580F3" stroke="black"/>
<circle cx="8" cy="16" r="5.5" fill="#FFD700" stroke="black"/>
<path d="M9 0H12L11.5 8.51351L9.5 9L9 0Z" fill="#0C0C0C"/>
<path d="M13 14H8M10.5 10V18M8.78572 15.7143L12.2143 12.2857M12.2143 15.7143L10.5 14L8.78572 12.2857" stroke="white" stroke-width="0.5" stroke-linecap="round" stroke-linejoin="round"/>
<path d="M9 14C10.0447 14 10.5 13.414 10.5 12C10.5 13.414 10.9522 14 12 14C10.9522 14 10.5 14.6029 10.5 16C10.5 14.6029 10.0447 14 9 14Z" fill="white" stroke="white" stroke-width="0.75" stroke-linejoin="round"/>
<path d="M4 0H7L6.5 9L4.5 8.27027L4 0Z" fill="black"/>
</svg>
