<svg width="22" height="26" viewBox="0 0 22 26" fill="none" xmlns="http://www.w3.org/2000/svg">
<path d="M21.5 0.5V8.54549L14.9742 10.6596L11.0023 11.8851L0.5 8.54348V0.5H8.25H15.125H21.5Z" fill="#E6122E" stroke="black"/>
<path d="M10.3134 12.1966C10.5642 12.091 10.8464 12.0356 11.1333 12.0356C11.4203 12.0356 11.7024 12.091 11.9533 12.1966L17.8644 14.6845C18.1278 14.7953 18.3473 14.9576 18.5001 15.1543C18.6529 15.3511 18.7334 15.5753 18.7333 15.8036V20.6962C18.7334 20.9245 18.6529 21.1487 18.5001 21.3455C18.3473 21.5423 18.1278 21.7045 17.8644 21.8154L11.9533 24.3033C11.7024 24.4088 11.4203 24.4642 11.1333 24.4642C10.8464 24.4642 10.5642 24.4088 10.3134 24.3033L4.40227 21.8147C4.1391 21.704 3.91978 21.542 3.767 21.3454C3.61423 21.1489 3.53355 20.925 3.53333 20.6969V15.8036C3.53325 15.5753 3.61378 15.3511 3.76657 15.1543C3.91936 14.9576 4.13885 14.7953 4.40227 14.6845L10.3134 12.1966Z" fill="#FFD700" stroke="black"/>
<path d="M5.93247 16C5.39469 16.1109 4.96596 16.3338 4.80648 16.5565C4.71625 16.6825 4.70233 16.8028 4.77691 16.9254C4.78544 16.9394 4.79547 16.9536 4.80672 16.9679C4.88954 16.9364 4.97445 16.907 5.06121 16.8797L5.24906 16.8208L5.38735 16.9184C5.54109 17.0269 5.67495 17.1451 5.78903 17.2689C5.86603 17.2128 5.94486 17.1248 6.00001 17.0116C6.13441 16.7361 6.12935 16.3345 5.93247 16ZM16.0675 16C15.8706 16.3345 15.8656 16.7361 16 17.0116C16.0551 17.1248 16.134 17.2128 16.211 17.2689C16.3251 17.1451 16.4589 17.0269 16.6126 16.9184L16.7509 16.8208L16.9388 16.8797C17.0256 16.907 17.1105 16.9364 17.1933 16.9679C17.2045 16.9536 17.2145 16.9394 17.2231 16.9254C17.2977 16.8028 17.2838 16.6825 17.1935 16.5565C17.034 16.3338 16.6053 16.1109 16.0675 16ZM5.11514 17.2414C4.5091 17.4703 4.09402 17.8183 4.01546 18.1206C3.97215 18.2874 4.01815 18.4363 4.17476 18.5704C4.22444 18.613 4.28677 18.6546 4.36341 18.6943C4.46525 18.5973 4.57975 18.5055 4.70578 18.4198L4.84703 18.3238L5.03308 18.3848C5.2698 18.4625 5.48982 18.5575 5.68967 18.6643C5.71879 18.5978 5.73812 18.5197 5.74273 18.4331C5.76177 18.0769 5.54034 17.5986 5.11514 17.2414ZM16.8849 17.2414C16.4596 17.5986 16.2382 18.0769 16.2573 18.4331C16.2619 18.5197 16.2812 18.5978 16.3103 18.6643C16.5102 18.5575 16.7302 18.4625 16.9669 18.3848L17.153 18.3238L17.2942 18.4198C17.4203 18.5055 17.5347 18.5973 17.6366 18.6943C17.7132 18.6546 17.7755 18.613 17.8252 18.5704C17.9818 18.4363 18.0278 18.2874 17.9845 18.1206C17.906 17.8183 17.4909 17.4703 16.8849 17.2414ZM4.9668 18.746C4.53603 19.0906 4.35342 19.5049 4.45792 19.8043C4.51562 19.9695 4.6464 20.099 4.87223 20.1906C5.02018 20.2506 5.21578 20.295 5.46896 20.3124C5.52548 20.2 5.59654 20.0906 5.68147 19.9852L5.77499 19.869L5.98149 19.8972C6.10404 19.9139 6.22488 19.9347 6.34342 19.9591C6.33226 19.8887 6.30425 19.8091 6.25588 19.7241C6.06387 19.387 5.57508 18.9877 4.9668 18.746ZM17.0332 18.746C16.4249 18.9877 15.9361 19.387 15.7441 19.7241C15.6958 19.8091 15.6677 19.8887 15.6566 19.9591C15.7754 19.9346 15.8962 19.9139 16.0185 19.8972L16.225 19.869L16.3185 19.9852C16.4035 20.0906 16.4745 20.2 16.531 20.3124C16.7842 20.2951 16.9798 20.2506 17.1278 20.1906C17.3536 20.099 17.4844 19.9695 17.5421 19.8043C17.6466 19.5049 17.464 19.0906 17.0332 18.746ZM6.07707 20.256C5.7992 20.68 5.80692 21.1329 6.05585 21.4204C6.19262 21.5784 6.38822 21.6881 6.66241 21.7423C6.79965 21.7694 6.96039 21.7824 7.14677 21.7753C7.08288 21.5709 7.06384 21.3544 7.09422 21.135L7.11223 21.0054L7.32232 20.9859C7.45579 20.9736 7.59023 20.9655 7.72507 20.9618C7.74165 20.9614 7.7582 20.9611 7.77475 20.9608C7.40309 20.6716 6.76075 20.3848 6.07707 20.256ZM15.9229 20.256C15.2393 20.3848 14.5969 20.6716 14.2252 20.9608C14.2418 20.9611 14.2583 20.9614 14.2749 20.9618C14.4096 20.9656 14.5441 20.9735 14.6777 20.9859L14.8878 21.0054L14.9058 21.135C14.9362 21.3543 14.9171 21.5709 14.8532 21.7753C15.0396 21.7824 15.2004 21.7694 15.3376 21.7423C15.6118 21.6881 15.8074 21.5784 15.9441 21.4204C16.1931 21.1329 16.2008 20.68 15.9229 20.256ZM11 21.1993C10.8972 21.1993 10.8314 21.2192 10.7504 21.2707C10.6695 21.3222 10.589 21.4085 10.5252 21.5144C10.3975 21.7262 10.3353 22.0092 10.311 22.2189C10.279 22.4946 10.4008 22.8305 10.6786 22.9531C10.8203 23.0156 11.1797 23.0156 11.3214 22.9531C11.5992 22.8305 11.721 22.4946 11.689 22.2189C11.6647 22.0092 11.6025 21.7262 11.4748 21.5144C11.411 21.4085 11.3305 21.3222 11.2496 21.2707C11.1686 21.2192 11.1028 21.1993 11 21.1993ZM7.90197 21.2905C7.85065 21.2904 7.79951 21.2909 7.74853 21.2922C7.70649 21.2932 7.66564 21.2973 7.62392 21.2993C7.61141 21.8091 7.91768 22.2806 8.37191 22.5207C8.61922 22.6514 8.89819 22.7181 9.22032 22.7068C9.39713 22.7006 9.59124 22.6696 9.80012 22.6057C9.76212 22.4652 9.75891 22.3231 9.7737 22.1955C9.79261 22.0326 9.82912 21.8297 9.90774 21.6297C9.3942 21.4338 8.63807 21.2926 7.90197 21.2905ZM14.098 21.2905C13.3619 21.2925 12.6058 21.4338 12.0923 21.6297C12.1709 21.8297 12.2074 22.0326 12.2263 22.1955C12.2411 22.323 12.2379 22.4652 12.1999 22.6057C12.4088 22.6696 12.6029 22.7006 12.7797 22.7068C13.1018 22.7181 13.3808 22.6514 13.6281 22.5207C14.0823 22.2806 14.3886 21.8091 14.3761 21.2993C14.3344 21.2973 14.2935 21.2932 14.2515 21.2922C14.2003 21.2909 14.1492 21.2904 14.098 21.2905Z" fill="black"/>
<path d="M11 15.3333C11.7072 15.3333 12.3855 15.6142 12.8856 16.1143C13.3857 16.6144 13.6667 17.2927 13.6667 17.9999C13.6667 18.7072 13.3857 19.3854 12.8856 19.8855C12.3855 20.3856 11.7072 20.6666 11 20.6666C10.2928 20.6666 9.61448 20.3856 9.11438 19.8855C8.61429 19.3854 8.33333 18.7072 8.33333 17.9999C8.33333 17.2927 8.61429 16.6144 9.11438 16.1143C9.61448 15.6142 10.2928 15.3333 11 15.3333ZM11 15.9999C10.4696 15.9999 9.96086 16.2106 9.58579 16.5857C9.21071 16.9608 9 17.4695 9 17.9999C9 18.5304 9.21071 19.0391 9.58579 19.4141C9.96086 19.7892 10.4696 19.9999 11 19.9999C11.5304 19.9999 12.0391 19.7892 12.4142 19.4141C12.7893 19.0391 13 18.5304 13 17.9999C13 17.4695 12.7893 16.9608 12.4142 16.5857C12.0391 16.2106 11.5304 15.9999 11 15.9999ZM11 16.4999L11.4407 17.3933L12.4267 17.5366L11.7133 18.2316L11.8817 19.2136L11 18.7499L10.1183 19.2133L10.2867 18.2316L9.57333 17.5363L10.5593 17.3929L11 16.4999ZM13 13.6666V14.6666L12.5457 15.0459C12.1688 14.8478 11.7571 14.7246 11.3333 14.6829V13.6666H13ZM10.6667 13.6663V14.6829C10.2431 14.7245 9.8315 14.8477 9.45467 15.0456L9 14.6666V13.6666L10.6667 13.6663Z" fill="black"/>
<path d="M18 14H16ZM17 12V16ZM16.3143 14.8571L17.6857 13.1429ZM17.6857 14.8571L17 14L16.3143 13.1429" fill="#FFEDED"/>
<path d="M18 14H16M17 12V16M16.3143 14.8571L17.6857 13.1429M17.6857 14.8571L17 14L16.3143 13.1429" stroke="white" stroke-width="0.5" stroke-linecap="round" stroke-linejoin="round"/>
<path d="M16.4 14C16.8179 14 17 13.707 17 13C17 13.707 17.1809 14 17.6 14C17.1809 14 17 14.3014 17 15C17 14.3014 16.8179 14 16.4 14Z" fill="#FFEDED" stroke="white" stroke-width="0.75" stroke-linejoin="round"/>
<g clip-path="url(#clip0_715_2037)">
<path d="M16.5 4.2333H14.3849L13.75 2.11816L13.1151 4.2333H11L12.6919 5.39668L12.0581 7.40654L13.75 6.34844L15.4419 7.40654L14.8081 5.39668L16.5 4.2333Z" fill="black"/>
</g>
<g clip-path="url(#clip1_715_2037)">
<path d="M11.5 4.2333H9.38486L8.75 2.11816L8.11514 4.2333H6L7.69189 5.39668L7.05811 7.40654L8.75 6.34844L10.4419 7.40654L9.80811 5.39668L11.5 4.2333Z" fill="#FFD700"/>
</g>
<g clip-path="url(#clip2_715_2037)">
<path d="M21.5 4.2333H19.3849L18.75 2.11816L18.1151 4.2333H16L17.6919 5.39668L17.0581 7.40654L18.75 6.34844L20.4419 7.40654L19.8081 5.39668L21.5 4.2333Z" fill="black"/>
</g>
<g clip-path="url(#clip3_715_2037)">
<path d="M6.5 4.2333H4.38486L3.75 2.11816L3.11514 4.2333H1L2.69189 5.39668L2.05811 7.40654L3.75 6.34844L5.44189 7.40654L4.80811 5.39668L6.5 4.2333Z" fill="#FFD700"/>
</g>
<defs>
<clipPath id="clip0_715_2037">
<rect width="5.5" height="5.5" fill="white" transform="translate(11 2)"/>
</clipPath>
<clipPath id="clip1_715_2037">
<rect width="5.5" height="5.5" fill="white" transform="translate(6 2)"/>
</clipPath>
<clipPath id="clip2_715_2037">
<rect width="5.5" height="5.5" fill="white" transform="translate(16 2)"/>
</clipPath>
<clipPath id="clip3_715_2037">
<rect width="5.5" height="5.5" fill="white" transform="translate(1 2)"/>
</clipPath>
</defs>
</svg>
