<svg width="22" height="26" viewBox="0 0 22 26" fill="none" xmlns="http://www.w3.org/2000/svg">
<path d="M21 0.499911V8.54799L14.6274 10.6605L10.7523 11.8839L0.5 8.54596V0.499911H8.0625H14.7812H21Z" fill="#E6122E" stroke="black"/>
<path d="M10.0879 12.1915C10.3058 12.0864 10.5508 12.0312 10.8 12.0312C11.0492 12.0312 11.2942 12.0864 11.5121 12.1915L16.6454 14.6687C16.8742 14.779 17.0648 14.9406 17.1974 15.1365C17.3301 15.3325 17.4001 15.5557 17.4 15.783V20.6545C17.4001 20.8818 17.3301 21.105 17.1974 21.301C17.0648 21.4969 16.8742 21.6585 16.6454 21.7688L11.5121 24.246C11.2942 24.3511 11.0492 24.4063 10.8 24.4063C10.5508 24.4063 10.3058 24.3511 10.0879 24.246L4.9546 21.7682C4.72606 21.6579 4.5356 21.4966 4.40292 21.3009C4.27025 21.1052 4.20019 20.8823 4.2 20.6551V15.783C4.19993 15.5557 4.26987 15.3325 4.40255 15.1365C4.53524 14.9406 4.72584 14.779 4.9546 14.6687L10.0879 12.1915Z" fill="#C0C0C0" stroke="black"/>
<g clip-path="url(#clip0_715_2022)">
<path d="M7.55789 16.3568C7.38119 16.7348 7.29188 17.1304 7.2934 17.5286C7.2934 19.2546 8.92278 20.6537 10.9331 20.6537M10.9331 20.6537C12.9434 20.6537 14.5728 19.2546 14.5728 17.5286C14.5743 17.1304 14.485 16.7348 14.3083 16.3568M10.9331 20.6537C12.0359 20.6537 12.4497 21.9427 12.4497 21.9427M10.9331 20.6537C9.83028 20.6537 9.41657 21.9427 9.41657 21.9427M14.8883 15.1666C15.0654 15.8824 14.2695 16.3568 14.2695 16.3568C14.2695 16.3568 13.2971 16.1149 13.12 15.3986C12.9428 14.6827 13.7387 14.2084 13.7387 14.2084C13.7387 14.2084 14.7111 14.4503 14.8883 15.1666Z" stroke="black" stroke-width="0.5" stroke-linecap="round" stroke-linejoin="round"/>
<path d="M16.4497 18.1357C15.6726 18.6797 14.6201 18.4623 14.6201 18.4623C14.6201 18.4623 14.3447 17.7009 15.1224 17.156C15.8989 16.612 16.952 16.8295 16.952 16.8295C16.952 16.8295 17.2274 17.5909 16.4497 18.1357ZM14.4115 21.0086C13.5015 20.7615 13.3596 20.0676 13.3596 20.0676C13.3596 20.0676 14.1282 19.6216 15.0381 19.8691C15.948 20.1161 16.0894 20.8101 16.0894 20.8101C16.0894 20.8101 15.3214 21.2561 14.4115 21.0086ZM7.45537 21.0086C8.3653 20.7615 8.50664 20.0676 8.50664 20.0676C8.50664 20.0676 7.73805 19.6216 6.82813 19.8691C5.9182 20.1161 5.77686 20.8101 5.77686 20.8101C5.77686 20.8101 6.54544 21.2561 7.45537 21.0086ZM5.41653 18.1357C6.19361 18.6797 7.24609 18.4623 7.24609 18.4623C7.24609 18.4623 7.52149 17.7009 6.74381 17.156C5.96673 16.6125 4.91425 16.8295 4.91425 16.8295C4.91425 16.8295 4.63884 17.5909 5.41653 18.1357ZM6.97796 15.1666C6.80083 15.8824 7.59671 16.3568 7.59671 16.3568C7.59671 16.3568 8.56912 16.1149 8.74625 15.3986C8.92339 14.6827 8.1275 14.2084 8.1275 14.2084C8.1275 14.2084 7.15509 14.4503 6.97796 15.1666Z" stroke="black" stroke-width="0.5" stroke-linecap="round" stroke-linejoin="round"/>
<g clip-path="url(#clip1_715_2022)">
<path d="M10.8393 14.915C10.4571 15.6954 10.2961 16.0252 10.3554 16.4247C10.1205 16.0994 9.77826 15.9824 8.96748 15.7065C9.23774 16.5341 9.3523 16.8836 9.67096 17.1234C9.27958 17.0629 8.95649 17.2272 8.1921 17.6174C8.95649 18.0075 9.27958 18.1719 9.67096 18.1114C9.3523 18.3511 9.23774 18.7005 8.9675 19.5282C9.77822 19.2523 10.1205 19.1353 10.3554 18.81C10.2961 19.2096 10.4571 19.5394 10.8393 20.3197C11.2215 19.5394 11.3825 19.2096 11.3232 18.81C11.5581 19.1353 11.9004 19.2523 12.7112 19.5282C12.4409 18.7005 12.3263 18.3511 12.0076 18.1114C12.399 18.1719 12.7221 18.0075 13.4865 17.6174C12.7221 17.2272 12.399 17.0629 12.0076 17.1234C12.3263 16.8836 12.4409 16.5341 12.7112 15.7065C11.9004 15.9824 11.5581 16.0994 11.3232 16.4247C11.3825 16.0252 11.2215 15.6953 10.8393 14.915ZM10.8393 17.1357C11.0987 17.1357 11.3112 17.3526 11.3112 17.6174C11.3112 17.8822 11.0987 18.0991 10.8393 18.0991C10.5799 18.0991 10.3674 17.8822 10.3674 17.6174C10.3674 17.3526 10.5799 17.1357 10.8393 17.1357ZM10.8393 17.3471C10.6918 17.3471 10.5746 17.4669 10.5746 17.6174C10.5746 17.7679 10.6918 17.8876 10.8393 17.8876C10.9867 17.8876 11.104 17.7679 11.104 17.6174C11.104 17.4669 10.9867 17.3471 10.8393 17.3471Z" fill="black"/>
</g>
</g>
<g clip-path="url(#clip2_715_2022)">
<path d="M18.3273 3.95691C18.6006 3.82765 18.9606 3.7052 19.4622 3.53784C19.2948 4.03944 19.1723 4.39939 19.0431 4.67273C18.9067 4.9611 18.7643 5.14957 18.5564 5.3028L18.5936 5.39248C18.8489 5.35382 19.0829 5.38639 19.3832 5.49386C19.6678 5.59573 20.0089 5.76366 20.4819 6C20.0089 6.23634 19.6678 6.40427 19.3832 6.50614C19.0829 6.61361 18.8489 6.64618 18.5936 6.60752L18.5564 6.6972C18.7643 6.85044 18.9067 7.03888 19.0431 7.32721C19.1723 7.60051 19.2948 7.96044 19.4622 8.46202C18.9606 8.29468 18.6006 8.17225 18.3273 8.04302C18.0389 7.90669 17.8504 7.76432 17.6972 7.55643L17.6075 7.59358C17.6462 7.84894 17.6136 8.08288 17.5061 8.38318C17.4043 8.66782 17.2363 9.00891 17 9.48192C16.7637 9.00891 16.5957 8.66782 16.4939 8.38318C16.3864 8.08288 16.3538 7.84894 16.3925 7.59358L16.3028 7.55643C16.1496 7.76432 15.9611 7.9067 15.6728 8.04303C15.3995 8.17226 15.0395 8.29469 14.538 8.46204C14.7053 7.96044 14.8277 7.60051 14.957 7.32721C15.0933 7.03887 15.2357 6.85043 15.4436 6.6972L15.4064 6.60752C15.1511 6.64618 14.9171 6.61361 14.6168 6.50614C14.3322 6.40427 13.9911 6.23634 13.5181 6C13.9911 5.76366 14.3322 5.59573 14.6168 5.49386C14.9171 5.38639 15.1511 5.35382 15.4064 5.39248L15.4436 5.3028C15.2357 5.14957 15.0933 4.9611 14.957 4.67273C14.8277 4.3994 14.7053 4.03944 14.538 3.53784C15.0396 3.7052 15.3995 3.82765 15.6728 3.9569C15.9611 4.09326 16.1496 4.23566 16.3028 4.44357L16.3925 4.40642C16.3538 4.15106 16.3864 3.91712 16.4939 3.61682C16.5957 3.33218 16.7637 2.99109 17 2.51808C17.2363 2.99108 17.4043 3.33217 17.5061 3.61681C17.6136 3.91711 17.6462 4.15106 17.6075 4.40644L17.6972 4.44359C17.8504 4.23567 18.0389 4.09327 18.3273 3.95691ZM17 5.40938C17.0482 5.40938 17.099 5.3977 17.1233 5.35362C17.1464 5.31175 17.1315 5.26468 17.1148 5.23136C17.0793 5.16023 16.9986 5.07678 16.9119 5.00839C16.8251 4.93986 16.7223 4.87853 16.637 4.85887C16.595 4.84919 16.5467 4.84719 16.5072 4.872C16.4645 4.89885 16.4478 4.94647 16.4478 5C16.4478 5.32453 16.1817 5.59063 15.8571 5.59063C15.8089 5.59063 15.7581 5.6023 15.7338 5.64638C15.7108 5.68825 15.7257 5.73532 15.7423 5.76864C15.7779 5.83977 15.8586 5.92322 15.9452 5.99161C16.032 6.06014 16.1348 6.12147 16.2202 6.14113C16.2622 6.15081 16.3105 6.15281 16.35 6.128C16.3927 6.10115 16.4094 6.05353 16.4094 6C16.4094 5.67547 16.6755 5.40938 17 5.40938ZM16.5478 5C16.5478 4.96549 16.5578 4.95832 16.5604 4.95668C16.5663 4.95299 16.582 4.94881 16.6145 4.95632C16.6784 4.97102 16.7672 5.02155 16.85 5.08688C16.9329 5.15235 16.9997 5.22477 17.0254 5.27605C17.0334 5.29214 17.0348 5.30086 17.035 5.30453C17.0311 5.30633 17.0214 5.30938 17 5.30938C16.6202 5.30938 16.3094 5.62025 16.3094 6C16.3094 6.03451 16.2994 6.04168 16.2968 6.04332C16.2909 6.04701 16.2752 6.05119 16.2426 6.04368C16.1788 6.02898 16.0899 5.97845 16.0072 5.91312C15.9243 5.84765 15.8574 5.77523 15.8318 5.72395C15.8237 5.70786 15.8223 5.69914 15.8221 5.69547C15.826 5.69367 15.8358 5.69063 15.8571 5.69063C16.2369 5.69063 16.5478 5.37976 16.5478 5ZM17 5.59063C16.7722 5.59063 16.5906 5.77223 16.5906 6C16.5906 6.22777 16.7722 6.40938 17 6.40938C17.2278 6.40938 17.4094 6.22777 17.4094 6C17.4094 5.77223 17.2278 5.59063 17 5.59063ZM16.6906 6C16.6906 5.82746 16.8275 5.69063 17 5.69063C17.1725 5.69063 17.3094 5.82746 17.3094 6C17.3094 6.17254 17.1725 6.30938 17 6.30938C16.8275 6.30938 16.6906 6.17254 16.6906 6Z" fill="black" stroke="black" stroke-width="0.1"/>
</g>
<g clip-path="url(#clip3_715_2022)">
<path d="M12.3273 3.95691C12.6006 3.82765 12.9606 3.7052 13.4622 3.53784C13.2948 4.03944 13.1723 4.39939 13.0431 4.67273C12.9067 4.9611 12.7643 5.14957 12.5564 5.3028L12.5936 5.39248C12.8489 5.35382 13.0829 5.38639 13.3832 5.49386C13.6678 5.59573 14.0089 5.76366 14.4819 6C14.0089 6.23634 13.6678 6.40427 13.3832 6.50614C13.0829 6.61361 12.8489 6.64618 12.5936 6.60752L12.5564 6.6972C12.7643 6.85044 12.9067 7.03888 13.0431 7.32721C13.1723 7.60051 13.2948 7.96044 13.4622 8.46202C12.9606 8.29468 12.6006 8.17225 12.3273 8.04302C12.0389 7.90669 11.8504 7.76432 11.6972 7.55643L11.6075 7.59358C11.6462 7.84894 11.6136 8.08288 11.5061 8.38318C11.4043 8.66782 11.2363 9.00891 11 9.48192C10.7637 9.00891 10.5957 8.66782 10.4939 8.38318C10.3864 8.08288 10.3538 7.84894 10.3925 7.59358L10.3028 7.55643C10.1496 7.76432 9.96112 7.9067 9.67278 8.04303C9.39947 8.17226 9.03954 8.29469 8.53798 8.46204C8.70532 7.96044 8.82774 7.60051 8.95696 7.32721C9.09329 7.03887 9.23566 6.85043 9.44357 6.6972L9.40642 6.60752C9.15106 6.64618 8.91712 6.61361 8.61682 6.50614C8.33218 6.40427 7.99109 6.23634 7.51808 6C7.99109 5.76366 8.33218 5.59573 8.61682 5.49386C8.91712 5.38639 9.15106 5.35382 9.40642 5.39248L9.44357 5.3028C9.23567 5.14957 9.09329 4.9611 8.95696 4.67273C8.82774 4.3994 8.70532 4.03944 8.53796 3.53784C9.03956 3.7052 9.39949 3.82765 9.67279 3.9569C9.96112 4.09326 10.1496 4.23566 10.3028 4.44357L10.3925 4.40642C10.3538 4.15106 10.3864 3.91712 10.4939 3.61682C10.5957 3.33218 10.7637 2.99109 11 2.51808C11.2363 2.99108 11.4043 3.33217 11.5061 3.61681C11.6136 3.91711 11.6462 4.15106 11.6075 4.40644L11.6972 4.44359C11.8504 4.23567 12.0389 4.09327 12.3273 3.95691ZM11 5.40938C11.0482 5.40938 11.099 5.3977 11.1233 5.35362C11.1464 5.31175 11.1315 5.26468 11.1148 5.23136C11.0793 5.16023 10.9986 5.07678 10.9119 5.00839C10.8251 4.93986 10.7223 4.87853 10.637 4.85887C10.595 4.84919 10.5467 4.84719 10.5072 4.872C10.4645 4.89885 10.4478 4.94647 10.4478 5C10.4478 5.32453 10.1817 5.59063 9.85714 5.59063C9.80895 5.59063 9.75811 5.6023 9.73383 5.64638C9.71076 5.68825 9.72568 5.73532 9.74233 5.76864C9.77786 5.83977 9.85859 5.92322 9.94523 5.99161C10.032 6.06014 10.1348 6.12147 10.2202 6.14113C10.2622 6.15081 10.3105 6.15281 10.35 6.128C10.3927 6.10115 10.4094 6.05353 10.4094 6C10.4094 5.67547 10.6755 5.40938 11 5.40938ZM10.5478 5C10.5478 4.96549 10.5578 4.95832 10.5604 4.95668C10.5663 4.95299 10.582 4.94881 10.6145 4.95632C10.6784 4.97102 10.7672 5.02155 10.85 5.08688C10.9329 5.15235 10.9997 5.22477 11.0254 5.27605C11.0334 5.29214 11.0348 5.30086 11.035 5.30453C11.0311 5.30633 11.0214 5.30938 11 5.30938C10.6202 5.30938 10.3094 5.62025 10.3094 6C10.3094 6.03451 10.2994 6.04168 10.2968 6.04332C10.2909 6.04701 10.2752 6.05119 10.2426 6.04368C10.1788 6.02898 10.0899 5.97845 10.0072 5.91312C9.92425 5.84765 9.85741 5.77523 9.83179 5.72395C9.82375 5.70786 9.82233 5.69914 9.8221 5.69547C9.826 5.69367 9.83576 5.69063 9.85714 5.69063C10.2369 5.69063 10.5478 5.37976 10.5478 5ZM11 5.59063C10.7722 5.59063 10.5906 5.77223 10.5906 6C10.5906 6.22777 10.7722 6.40938 11 6.40938C11.2278 6.40938 11.4094 6.22777 11.4094 6C11.4094 5.77223 11.2278 5.59063 11 5.59063ZM10.6906 6C10.6906 5.82746 10.8275 5.69063 11 5.69063C11.1725 5.69063 11.3094 5.82746 11.3094 6C11.3094 6.17254 11.1725 6.30938 11 6.30938C10.8275 6.30938 10.6906 6.17254 10.6906 6Z" fill="black" stroke="black" stroke-width="0.1"/>
</g>
<g clip-path="url(#clip4_715_2022)">
<path d="M6.32727 3.95691C6.60061 3.82765 6.96056 3.7052 7.46216 3.53784C7.2948 4.03944 7.17235 4.39939 7.0431 4.67273C6.90674 4.9611 6.76434 5.14957 6.55643 5.3028L6.59358 5.39248C6.84894 5.35382 7.08288 5.38639 7.38318 5.49386C7.66782 5.59573 8.00891 5.76366 8.48192 6C8.00892 6.23634 7.66784 6.40427 7.38319 6.50614C7.08289 6.61361 6.84894 6.64618 6.59356 6.60752L6.55641 6.6972C6.76433 6.85044 6.90674 7.03888 7.0431 7.32721C7.17235 7.60051 7.2948 7.96044 7.46216 8.46202C6.96058 8.29468 6.60062 8.17225 6.32728 8.04302C6.03891 7.90669 5.85043 7.76432 5.6972 7.55643L5.60752 7.59358C5.64618 7.84894 5.61361 8.08288 5.50614 8.38318C5.40427 8.66782 5.23634 9.00891 5 9.48192C4.76366 9.00891 4.59573 8.66782 4.49386 8.38318C4.38639 8.08288 4.35382 7.84894 4.39248 7.59358L4.3028 7.55643C4.14957 7.76432 3.96112 7.9067 3.67278 8.04303C3.39947 8.17226 3.03954 8.29469 2.53798 8.46204C2.70532 7.96044 2.82774 7.60051 2.95696 7.32721C3.09329 7.03887 3.23566 6.85043 3.44357 6.6972L3.40642 6.60752C3.15106 6.64618 2.91712 6.61361 2.61682 6.50614C2.33218 6.40427 1.99109 6.23634 1.51808 6C1.99109 5.76366 2.33218 5.59573 2.61682 5.49386C2.91712 5.38639 3.15106 5.35382 3.40642 5.39248L3.44357 5.3028C3.23567 5.14957 3.09329 4.9611 2.95696 4.67273C2.82774 4.3994 2.70532 4.03944 2.53796 3.53784C3.03956 3.7052 3.39949 3.82765 3.67279 3.9569C3.96112 4.09326 4.14956 4.23566 4.3028 4.44357L4.39248 4.40642C4.35382 4.15106 4.38639 3.91712 4.49386 3.61682C4.59573 3.33218 4.76366 2.99109 5 2.51808C5.23634 2.99108 5.40427 3.33217 5.50614 3.61681C5.61361 3.91711 5.64618 4.15106 5.60752 4.40644L5.6972 4.44359C5.85043 4.23567 6.03891 4.09327 6.32727 3.95691ZM5 5.40938C5.0482 5.40938 5.09903 5.3977 5.12332 5.35362C5.14638 5.31175 5.13146 5.26468 5.11481 5.23136C5.07928 5.16023 4.99856 5.07678 4.91192 5.00839C4.8251 4.93986 4.72234 4.87853 4.63699 4.85887C4.59496 4.84919 4.54668 4.84719 4.50719 4.872C4.46446 4.89885 4.44777 4.94647 4.44777 5C4.44777 5.32453 4.18167 5.59063 3.85714 5.59063C3.80895 5.59063 3.75811 5.6023 3.73383 5.64638C3.71076 5.68825 3.72568 5.73532 3.74233 5.76864C3.77786 5.83977 3.85859 5.92322 3.94523 5.99161C4.03204 6.06014 4.1348 6.12147 4.22016 6.14113C4.26218 6.15081 4.31046 6.15281 4.34995 6.128C4.39268 6.10115 4.40938 6.05353 4.40938 6C4.40938 5.67547 4.67547 5.40938 5 5.40938ZM4.54777 5C4.54777 4.96549 4.55777 4.95832 4.56039 4.95668C4.56625 4.95299 4.58197 4.94881 4.61454 4.95632C4.67838 4.97102 4.7672 5.02155 4.84996 5.08688C4.93289 5.15235 4.99974 5.22477 5.02536 5.27605C5.03339 5.29214 5.03482 5.30086 5.03504 5.30453C5.03114 5.30633 5.02138 5.30938 5 5.30938C4.62025 5.30938 4.30938 5.62025 4.30938 6C4.30938 6.03451 4.29937 6.04168 4.29675 6.04332C4.29089 6.04701 4.27518 6.05119 4.24261 6.04368C4.17877 6.02898 4.08995 5.97845 4.00719 5.91312C3.92425 5.84765 3.85741 5.77523 3.83179 5.72395C3.82375 5.70786 3.82233 5.69914 3.8221 5.69547C3.826 5.69367 3.83576 5.69063 3.85714 5.69063C4.2369 5.69063 4.54777 5.37976 4.54777 5ZM5 5.59063C4.77223 5.59063 4.59063 5.77223 4.59063 6C4.59063 6.22777 4.77223 6.40938 5 6.40938C5.22777 6.40938 5.40938 6.22777 5.40938 6C5.40938 5.77223 5.22777 5.59063 5 5.59063ZM4.69063 6C4.69063 5.82746 4.82746 5.69063 5 5.69063C5.17254 5.69063 5.30938 5.82746 5.30938 6C5.30938 6.17254 5.17254 6.30938 5 6.30938C4.82746 6.30938 4.69063 6.17254 4.69063 6Z" fill="black" stroke="black" stroke-width="0.1"/>
</g>
<defs>
<clipPath id="clip0_715_2022">
<rect width="14.5588" height="10.3125" fill="white" transform="translate(2.97059 13.0625)"/>
</clipPath>
<clipPath id="clip1_715_2022">
<rect width="5.89286" height="6.01562" fill="white" transform="translate(7.89285 14.6095)"/>
</clipPath>
<clipPath id="clip2_715_2022">
<rect width="8" height="8" fill="white" transform="translate(13 2)"/>
</clipPath>
<clipPath id="clip3_715_2022">
<rect width="8" height="8" fill="white" transform="translate(7 2)"/>
</clipPath>
<clipPath id="clip4_715_2022">
<rect width="8" height="8" fill="white" transform="translate(1 2)"/>
</clipPath>
</defs>
</svg>
