<svg width="22" height="26" viewBox="0 0 22 26" fill="none" xmlns="http://www.w3.org/2000/svg">
<path d="M21.5 0.5V8.54549L14.9742 10.6596L11.0023 11.8851L0.5 8.54348V0.5H8.25H15.125H21.5Z" fill="black" stroke="black"/>
<path d="M10.2937 12.238C10.571 12.1288 10.8829 12.0715 11.2 12.0715C11.5171 12.0715 11.829 12.1288 12.1063 12.238L18.6396 14.8117C18.9307 14.9264 19.1733 15.0942 19.3422 15.2978C19.5111 15.5014 19.6001 15.7333 19.6 15.9695V21.0308C19.6001 21.2669 19.5111 21.4989 19.3422 21.7024C19.1733 21.906 18.9307 22.0738 18.6396 22.1885L12.1063 24.7622C11.829 24.8714 11.5171 24.9287 11.2 24.9287C10.8829 24.9287 10.571 24.8714 10.2937 24.7622L3.7604 22.1878C3.46953 22.0733 3.22713 21.9057 3.05827 21.7023C2.88941 21.499 2.80025 21.2674 2.8 21.0314V15.9695C2.79992 15.7333 2.88892 15.5014 3.0578 15.2978C3.22667 15.0942 3.46926 14.9264 3.7604 14.8117L10.2937 12.238Z" fill="#FFD700" stroke="black"/>
<path d="M18.7895 14.1034H16.5789ZM17.6842 12.0344V16.1724ZM16.9263 14.9901L18.4421 13.2167ZM18.4421 14.9901L17.6842 14.1034L16.9263 13.2167" fill="#FFEDED"/>
<path d="M18.7895 14.1034H16.5789M17.6842 12.0344V16.1724M16.9263 14.9901L18.4421 13.2167M18.4421 14.9901L17.6842 14.1034L16.9263 13.2167" stroke="white" stroke-width="0.5" stroke-linecap="round" stroke-linejoin="round"/>
<path d="M17.0211 14.1033C17.4829 14.1033 17.6842 13.8002 17.6842 13.0688C17.6842 13.8002 17.8841 14.1033 18.3474 14.1033C17.8841 14.1033 17.6842 14.4152 17.6842 15.1378C17.6842 14.4152 17.4829 14.1033 17.0211 14.1033Z" fill="#FFEDED" stroke="white" stroke-width="0.75" stroke-linejoin="round"/>
<g clip-path="url(#clip0_715_2040)">
<path d="M12.5862 15.6091H11.7508L11.5 15.0322L11.2492 15.6091H10.4138L11.0821 15.9264L10.8317 16.4745L11.5 16.1859L12.1683 16.4745L11.9179 15.9264L12.5862 15.6091Z" fill="#FFD700"/>
</g>
<path d="M13.0239 17.9983C13.0239 17.737 12.9706 17.4874 12.8641 17.2496C12.7575 17.0117 12.6134 16.8063 12.4319 16.6332C12.2503 16.4601 12.0348 16.3227 11.7853 16.2211C11.5358 16.1195 11.2741 16.0687 11 16.0687C10.7259 16.0687 10.4642 16.1195 10.2147 16.2211C9.9652 16.3227 9.74969 16.4601 9.56814 16.6332C9.3866 16.8063 9.24253 17.0117 9.13595 17.2496C9.02936 17.4874 8.97607 17.737 8.97607 17.9983C8.97607 18.2596 9.02936 18.5092 9.13595 18.7471C9.24253 18.9849 9.3866 19.1904 9.56814 19.3635C9.74969 19.5366 9.9652 19.6739 10.2147 19.7755C10.4642 19.8772 10.7259 19.928 11 19.928C11.2741 19.928 11.5358 19.8772 11.7853 19.7755C12.0348 19.6739 12.2503 19.5366 12.4319 19.3635C12.6134 19.1904 12.7575 18.9849 12.8641 18.7471C12.9706 18.5092 13.0239 18.2596 13.0239 17.9983ZM13.9937 18.9263C13.9844 18.9598 13.9609 18.9821 13.9235 18.9933L12.8974 19.3149V20.34C12.8974 20.3758 12.8822 20.4048 12.8518 20.4271C12.8166 20.4495 12.7826 20.4539 12.7499 20.4405L11.7238 20.1256L11.0914 20.9564C11.0679 20.9855 11.0375 21 11 21C10.9625 21 10.9321 20.9855 10.9086 20.9564L10.2762 20.1256L9.25015 20.4405C9.21735 20.4539 9.18338 20.4495 9.14825 20.4271C9.11779 20.4048 9.10257 20.3758 9.10257 20.34V19.3149L8.07655 18.9933C8.03907 18.9821 8.01564 18.9598 8.00627 18.9263C7.99456 18.8883 7.99925 18.8559 8.02033 18.8291L8.65281 17.9983L8.02033 17.1675C7.99925 17.1385 7.99456 17.1061 8.00627 17.0704C8.01564 17.0369 8.03907 17.0145 8.07655 17.0034L9.10257 16.6817V15.6566C9.10257 15.6209 9.11779 15.5918 9.14825 15.5695C9.18338 15.5472 9.21735 15.5427 9.25015 15.5561L10.2762 15.871L10.9086 15.0402C10.9297 15.0134 10.9602 15 11 15C11.0398 15 11.0703 15.0134 11.0914 15.0402L11.7238 15.871L12.7499 15.5561C12.7826 15.5427 12.8166 15.5472 12.8518 15.5695C12.8822 15.5918 12.8974 15.6209 12.8974 15.6566V16.6817L13.9235 17.0034C13.9609 17.0145 13.9844 17.0369 13.9937 17.0704C14.0054 17.1061 14.0008 17.1385 13.9797 17.1675L13.3472 17.9983L13.9797 18.8291C14.0008 18.8559 14.0054 18.8883 13.9937 18.9263Z" fill="#FF0101"/>
<path d="M5.93247 16C5.39469 16.1109 4.96596 16.3338 4.80648 16.5565C4.71625 16.6825 4.70233 16.8028 4.77691 16.9254C4.78544 16.9394 4.79547 16.9536 4.80672 16.9679C4.88954 16.9364 4.97445 16.907 5.06121 16.8797L5.24906 16.8208L5.38735 16.9184C5.54109 17.0269 5.67495 17.1451 5.78903 17.2689C5.86603 17.2128 5.94486 17.1248 6.00001 17.0116C6.13441 16.7361 6.12935 16.3345 5.93247 16ZM16.0675 16C15.8706 16.3345 15.8656 16.7361 16 17.0116C16.0551 17.1248 16.134 17.2128 16.211 17.2689C16.3251 17.1451 16.4589 17.0269 16.6126 16.9184L16.7509 16.8208L16.9388 16.8797C17.0256 16.907 17.1105 16.9364 17.1933 16.9679C17.2045 16.9536 17.2145 16.9394 17.2231 16.9254C17.2977 16.8028 17.2838 16.6825 17.1935 16.5565C17.034 16.3338 16.6053 16.1109 16.0675 16ZM5.11514 17.2414C4.5091 17.4703 4.09402 17.8183 4.01546 18.1206C3.97215 18.2874 4.01815 18.4363 4.17476 18.5704C4.22444 18.613 4.28677 18.6546 4.36341 18.6943C4.46525 18.5973 4.57975 18.5055 4.70578 18.4198L4.84703 18.3238L5.03308 18.3848C5.2698 18.4625 5.48982 18.5575 5.68967 18.6643C5.71879 18.5978 5.73812 18.5197 5.74273 18.4331C5.76177 18.0769 5.54034 17.5986 5.11514 17.2414ZM16.8849 17.2414C16.4596 17.5986 16.2382 18.0769 16.2573 18.4331C16.2619 18.5197 16.2812 18.5978 16.3103 18.6643C16.5102 18.5575 16.7302 18.4625 16.9669 18.3848L17.153 18.3238L17.2942 18.4198C17.4203 18.5055 17.5347 18.5973 17.6366 18.6943C17.7132 18.6546 17.7755 18.613 17.8252 18.5704C17.9818 18.4363 18.0278 18.2874 17.9845 18.1206C17.906 17.8183 17.4909 17.4703 16.8849 17.2414ZM4.9668 18.746C4.53603 19.0906 4.35342 19.5049 4.45792 19.8043C4.51562 19.9695 4.6464 20.099 4.87223 20.1906C5.02018 20.2506 5.21578 20.295 5.46896 20.3124C5.52548 20.2 5.59654 20.0906 5.68147 19.9852L5.77499 19.869L5.98149 19.8972C6.10404 19.9139 6.22488 19.9347 6.34342 19.9591C6.33226 19.8887 6.30425 19.8091 6.25588 19.7241C6.06387 19.387 5.57508 18.9877 4.9668 18.746ZM17.0332 18.746C16.4249 18.9877 15.9361 19.387 15.7441 19.7241C15.6958 19.8091 15.6677 19.8887 15.6566 19.9591C15.7754 19.9346 15.8962 19.9139 16.0185 19.8972L16.225 19.869L16.3185 19.9852C16.4035 20.0906 16.4745 20.2 16.531 20.3124C16.7842 20.2951 16.9798 20.2506 17.1278 20.1906C17.3536 20.099 17.4844 19.9695 17.5421 19.8043C17.6466 19.5049 17.464 19.0906 17.0332 18.746ZM6.07707 20.256C5.7992 20.68 5.80692 21.1329 6.05585 21.4204C6.19262 21.5784 6.38822 21.6881 6.66241 21.7423C6.79965 21.7694 6.96039 21.7824 7.14677 21.7753C7.08288 21.5709 7.06384 21.3544 7.09422 21.135L7.11223 21.0054L7.32232 20.9859C7.45579 20.9736 7.59023 20.9655 7.72507 20.9618C7.74165 20.9614 7.7582 20.9611 7.77475 20.9608C7.40309 20.6716 6.76075 20.3848 6.07707 20.256ZM15.9229 20.256C15.2393 20.3848 14.5969 20.6716 14.2252 20.9608C14.2418 20.9611 14.2583 20.9614 14.2749 20.9618C14.4096 20.9656 14.5441 20.9735 14.6777 20.9859L14.8878 21.0054L14.9058 21.135C14.9362 21.3543 14.9171 21.5709 14.8532 21.7753C15.0396 21.7824 15.2004 21.7694 15.3376 21.7423C15.6118 21.6881 15.8074 21.5784 15.9441 21.4204C16.1931 21.1329 16.2008 20.68 15.9229 20.256ZM11 21.1993C10.8972 21.1993 10.8314 21.2192 10.7504 21.2707C10.6695 21.3222 10.589 21.4085 10.5252 21.5144C10.3975 21.7262 10.3353 22.0092 10.311 22.2189C10.279 22.4946 10.4008 22.8305 10.6786 22.9531C10.8203 23.0156 11.1797 23.0156 11.3214 22.9531C11.5992 22.8305 11.721 22.4946 11.689 22.2189C11.6647 22.0092 11.6025 21.7262 11.4748 21.5144C11.411 21.4085 11.3305 21.3222 11.2496 21.2707C11.1686 21.2192 11.1028 21.1993 11 21.1993ZM7.90197 21.2905C7.85065 21.2904 7.79951 21.2909 7.74853 21.2922C7.70649 21.2932 7.66564 21.2973 7.62392 21.2993C7.61141 21.8091 7.91768 22.2806 8.3719 22.5207C8.61922 22.6514 8.89819 22.7181 9.22032 22.7068C9.39713 22.7006 9.59124 22.6696 9.80012 22.6057C9.76212 22.4652 9.75891 22.3231 9.7737 22.1955C9.79261 22.0326 9.82912 21.8297 9.90774 21.6297C9.3942 21.4338 8.63807 21.2926 7.90197 21.2905ZM14.098 21.2905C13.3619 21.2925 12.6058 21.4338 12.0923 21.6297C12.1709 21.8297 12.2074 22.0326 12.2263 22.1955C12.2411 22.323 12.2379 22.4652 12.1999 22.6057C12.4088 22.6696 12.6029 22.7006 12.7797 22.7068C13.1018 22.7181 13.3808 22.6514 13.6281 22.5207C14.0823 22.2806 14.3886 21.8091 14.3761 21.2993C14.3344 21.2973 14.2935 21.2932 14.2515 21.2922C14.2003 21.2909 14.1492 21.2904 14.098 21.2905Z" fill="black"/>
<path d="M9.3 4.39976H7.26178L6.65 2L6.03822 4.39976H4L5.63037 5.71968L5.01963 8L6.65 6.79951L8.28037 8L7.66963 5.71968L9.3 4.39976Z" fill="#FFD700"/>
<path d="M13.3 4.39976H11.2618L10.65 2L10.0382 4.39976H8L9.63037 5.71968L9.01963 8L10.65 6.79951L12.2804 8L11.6696 5.71968L13.3 4.39976Z" fill="#FFD700"/>
<path d="M17.3 4.39976H15.2618L14.65 2L14.0382 4.39976H12L13.6304 5.71968L13.0196 8L14.65 6.79951L16.2804 8L15.6696 5.71968L17.3 4.39976Z" fill="#FFD700"/>
<path d="M21.3 4.39976H19.2618L18.65 2L18.0382 4.39976H16L17.6304 5.71968L17.0196 8L18.65 6.79951L20.2804 8L19.6696 5.71968L21.3 4.39976Z" fill="#FFD700"/>
<path d="M5.3 4.39976H3.26178L2.65 2L2.03822 4.39976H0L1.63037 5.71968L1.01963 8L2.65 6.79951L4.28037 8L3.66963 5.71968L5.3 4.39976Z" fill="#FFD700"/>
<defs>
<clipPath id="clip0_715_2040">
<rect width="2.17241" height="1.5" fill="white" transform="translate(10.4138 15)"/>
</clipPath>
</defs>
</svg>
