<svg width="21" height="26" viewBox="0 0 21 26" fill="none" xmlns="http://www.w3.org/2000/svg">
<path d="M20.5 0.499911V8.55069L14.2802 10.6616L10.5024 11.8828L0.5 8.54862V0.499911H7.875H14.4375H20.5Z" fill="#A59E9E" stroke="black"/>
<g clip-path="url(#clip0_715_2017)">
<path d="M9.84285 13.1554C10.0541 13.0535 10.2917 13 10.5333 13C10.775 13 11.0126 13.0535 11.2238 13.1554L16.2016 15.5575C16.4234 15.6645 16.6083 15.8212 16.7369 16.0112C16.8656 16.2012 16.9334 16.4176 16.9333 16.6381V21.3619C16.9334 21.5824 16.8656 21.7988 16.7369 21.9888C16.6083 22.1788 16.4234 22.3355 16.2016 22.4425L11.2238 24.8446C11.0126 24.9465 10.775 25 10.5333 25C10.2917 25 10.0541 24.9465 9.84285 24.8446L4.86507 22.4419C4.64345 22.335 4.45876 22.1785 4.33011 21.9888C4.20146 21.799 4.13352 21.5828 4.13334 21.3626V16.6381C4.13327 16.4176 4.20108 16.2012 4.32975 16.0112C4.45841 15.8212 4.64324 15.6645 4.86507 15.5575L9.84285 13.1554Z" fill="#FFD700" stroke="black"/>
<g clip-path="url(#clip1_715_2017)">
<path d="M7.38947 17.1944C7.21812 17.5609 7.13151 17.9446 7.133 18.3307C7.133 20.0044 8.713 21.3611 10.6624 21.3611M10.6624 21.3611C12.6118 21.3611 14.1918 20.0044 14.1918 18.3307C14.1933 17.9446 14.1067 17.5609 13.9353 17.1944M10.6624 21.3611C11.7318 21.3611 12.133 22.6111 12.133 22.6111M10.6624 21.3611C9.593 21.3611 9.19182 22.6111 9.19182 22.6111M14.4977 16.0403C14.6695 16.7344 13.8977 17.1944 13.8977 17.1944C13.8977 17.1944 12.9548 16.9598 12.783 16.2653C12.6112 15.5711 13.383 15.1111 13.383 15.1111C13.383 15.1111 14.3259 15.3457 14.4977 16.0403Z" stroke="black" stroke-width="0.5" stroke-linecap="round" stroke-linejoin="round"/>
<path d="M16.0118 18.9194C15.2583 19.4469 14.2377 19.2361 14.2377 19.2361C14.2377 19.2361 13.9706 18.4978 14.7248 17.9694C15.4777 17.4419 16.4989 17.6528 16.4989 17.6528C16.4989 17.6528 16.7659 18.3911 16.0118 18.9194ZM14.0353 21.7053C13.153 21.4657 13.0153 20.7928 13.0153 20.7928C13.0153 20.7928 13.7606 20.3603 14.643 20.6003C15.5253 20.8398 15.6624 21.5128 15.6624 21.5128C15.6624 21.5128 14.9177 21.9453 14.0353 21.7053ZM7.29006 21.7053C8.17241 21.4657 8.30947 20.7928 8.30947 20.7928C8.30947 20.7928 7.56417 20.3603 6.68182 20.6003C5.79947 20.8398 5.66241 21.5128 5.66241 21.5128C5.66241 21.5128 6.4077 21.9453 7.29006 21.7053ZM5.313 18.9194C6.06653 19.4469 7.08711 19.2361 7.08711 19.2361C7.08711 19.2361 7.35417 18.4978 6.60005 17.9694C5.84653 17.4423 4.82594 17.6528 4.82594 17.6528C4.82594 17.6528 4.55888 18.3911 5.313 18.9194ZM6.82711 16.0403C6.65535 16.7344 7.42711 17.1944 7.42711 17.1944C7.42711 17.1944 8.37006 16.9598 8.54182 16.2653C8.71358 15.5711 7.94182 15.1111 7.94182 15.1111C7.94182 15.1111 6.99888 15.3457 6.82711 16.0403Z" stroke="black" stroke-width="0.5" stroke-linecap="round" stroke-linejoin="round"/>
<g clip-path="url(#clip2_715_2017)">
<path d="M10.5714 15.7963C10.2008 16.5529 10.0447 16.8728 10.1022 17.2602C9.87444 16.9447 9.54255 16.8313 8.75635 16.5637C9.01841 17.3663 9.12951 17.7052 9.4385 17.9377C9.05898 17.879 8.74569 18.0384 8.00446 18.4167C8.74569 18.795 9.05898 18.9544 9.4385 18.8957C9.12951 19.1282 9.01841 19.467 8.75636 20.2696C9.54252 20.0021 9.87444 19.8886 10.1022 19.5732C10.0447 19.9607 10.2008 20.2805 10.5714 21.0372C10.942 20.2805 11.0981 19.9607 11.0407 19.5732C11.2684 19.8886 11.6004 20.0021 12.3866 20.2696C12.1245 19.467 12.0133 19.1282 11.7043 18.8957C12.0839 18.9544 12.3972 18.795 13.1384 18.4167C12.3972 18.0384 12.0839 17.879 11.7044 17.9377C12.0133 17.7052 12.1245 17.3663 12.3866 16.5637C11.6004 16.8313 11.2684 16.9447 11.0407 17.2602C11.0981 16.8727 10.942 16.5529 10.5714 15.7963ZM10.5714 17.9496C10.823 17.9496 11.029 18.1599 11.029 18.4167C11.029 18.6735 10.823 18.8838 10.5714 18.8838C10.3199 18.8838 10.1138 18.6735 10.1138 18.4167C10.1138 18.1599 10.3199 17.9496 10.5714 17.9496ZM10.5714 18.1547C10.4285 18.1547 10.3147 18.2708 10.3147 18.4167C10.3147 18.5627 10.4285 18.6788 10.5714 18.6788C10.7144 18.6788 10.8281 18.5627 10.8281 18.4167C10.8281 18.2708 10.7144 18.1547 10.5714 18.1547Z" fill="black"/>
</g>
<path d="M16 16H14ZM15 14V18ZM14.3143 16.8571L15.6857 15.1429ZM15.6857 16.8571L15 16L14.3143 15.1429" fill="#FFEDED"/>
<path d="M16 16H14M15 14V18M14.3143 16.8571L15.6857 15.1429M15.6857 16.8571L15 16L14.3143 15.1429" stroke="white" stroke-width="0.5" stroke-linecap="round" stroke-linejoin="round"/>
<path d="M14.4 16C14.8179 16 15 15.707 15 15C15 15.707 15.1809 16 15.6 16C15.1809 16 15 16.3014 15 17C15 16.3014 14.8179 16 14.4 16Z" fill="#FFEDED" stroke="white" stroke-width="0.75" stroke-linejoin="round"/>
</g>
</g>
<g clip-path="url(#clip3_715_2017)">
<path d="M11.664 3.71794C11.9007 3.60605 12.2117 3.49995 12.6445 3.3555C12.5001 3.7883 12.3939 4.09935 12.2821 4.33597C12.1631 4.58763 12.039 4.75161 11.8582 4.88492L11.8953 4.9746C12.1175 4.94097 12.3211 4.96922 12.5832 5.06301C12.8296 5.1512 13.1245 5.29611 13.5327 5.5C13.1245 5.70389 12.8296 5.8488 12.5832 5.93699C12.3211 6.03078 12.1175 6.05903 11.8953 6.0254L11.8582 6.11508C12.039 6.24839 12.1631 6.41235 12.2821 6.66398C12.3939 6.90057 12.5001 7.21159 12.6445 7.64438C12.2117 7.49995 11.9007 7.39386 11.664 7.282C11.4124 7.16302 11.2484 7.03902 11.1151 6.85817L11.0254 6.89532C11.059 7.11747 11.0308 7.3211 10.937 7.58317C10.8488 7.82959 10.7039 8.12454 10.5 8.5327C10.2961 8.12454 10.1512 7.82959 10.063 7.58317C9.96922 7.3211 9.94097 7.11747 9.9746 6.89532L9.88492 6.85817C9.75161 7.03902 9.58765 7.16302 9.33601 7.282C9.09941 7.39387 8.78839 7.49996 8.35562 7.64439C8.50005 7.2116 8.60613 6.90057 8.71799 6.66398C8.83697 6.41234 8.96096 6.24839 9.14183 6.11508L9.10468 6.0254C8.88253 6.05903 8.6789 6.03078 8.41683 5.93699C8.17041 5.8488 7.87546 5.70389 7.4673 5.5C7.87546 5.29611 8.17041 5.1512 8.41683 5.06301C8.6789 4.96922 8.88253 4.94097 9.10468 4.9746L9.14183 4.88492C8.96096 4.75161 8.83697 4.58763 8.71799 4.33597C8.60613 4.09935 8.50005 3.7883 8.35561 3.3555C8.7884 3.49994 9.09943 3.60605 9.33602 3.71794C9.58765 3.83694 9.75161 3.96096 9.88492 4.14183L9.9746 4.10468C9.94097 3.88253 9.96922 3.6789 10.063 3.41683C10.1512 3.17041 10.2961 2.87546 10.5 2.4673C10.7039 2.87546 10.8488 3.1704 10.937 3.41682C11.0308 3.67889 11.059 3.88253 11.0254 4.1047L11.1151 4.14185C11.2484 3.96097 11.4124 3.83695 11.664 3.71794ZM10.5 4.98945C10.5427 4.98945 10.5904 4.97917 10.6134 4.93743C10.6351 4.89791 10.6208 4.85414 10.6061 4.82464C10.5743 4.76117 10.5028 4.68746 10.4268 4.62743C10.3506 4.56727 10.2598 4.51293 10.1838 4.49542C10.1464 4.48681 10.1021 4.48468 10.0655 4.50771C10.0256 4.53278 10.0105 4.57697 10.0105 4.625C10.0105 4.90551 9.78051 5.13555 9.5 5.13555C9.45731 5.13555 9.40962 5.14583 9.38662 5.18757C9.36485 5.22709 9.37921 5.27086 9.39395 5.30036C9.42566 5.36383 9.49716 5.43754 9.5732 5.49757C9.64942 5.55773 9.74021 5.61207 9.81623 5.62958C9.8536 5.63819 9.89788 5.64032 9.93453 5.61729C9.97443 5.59222 9.98945 5.54803 9.98945 5.5C9.98945 5.21949 10.2195 4.98945 10.5 4.98945ZM10.1105 4.625C10.1105 4.61052 10.1128 4.60214 10.1147 4.59776C10.1163 4.59397 10.1178 4.59292 10.1187 4.59238C10.1217 4.59048 10.1334 4.58644 10.1613 4.59287C10.2158 4.60543 10.2927 4.64896 10.3648 4.70593C10.4372 4.76303 10.4948 4.8257 10.5166 4.86934C10.5208 4.8778 10.5228 4.88359 10.5237 4.88725C10.5194 4.88833 10.512 4.88945 10.5 4.88945C10.1643 4.88945 9.88945 5.16426 9.88945 5.5C9.88945 5.51448 9.88722 5.52286 9.88531 5.52724C9.88366 5.53103 9.88219 5.53208 9.88133 5.53262C9.87831 5.53452 9.86659 5.53856 9.83868 5.53213C9.78417 5.51957 9.70732 5.47604 9.63516 5.41907C9.56282 5.36197 9.5052 5.29929 9.4834 5.25566C9.47917 5.2472 9.47724 5.2414 9.47635 5.23775C9.48063 5.23667 9.488 5.23555 9.5 5.23555C9.83574 5.23555 10.1105 4.96074 10.1105 4.625ZM10.5 5.13555C10.2972 5.13555 10.1355 5.29725 10.1355 5.5C10.1355 5.70275 10.2972 5.86445 10.5 5.86445C10.7028 5.86445 10.8645 5.70275 10.8645 5.5C10.8645 5.29725 10.7028 5.13555 10.5 5.13555ZM10.2355 5.5C10.2355 5.35248 10.3525 5.23555 10.5 5.23555C10.6475 5.23555 10.7645 5.35248 10.7645 5.5C10.7645 5.64752 10.6475 5.76445 10.5 5.76445C10.3525 5.76445 10.2355 5.64752 10.2355 5.5Z" fill="black" stroke="black" stroke-width="0.1"/>
</g>
<defs>
<clipPath id="clip0_715_2017">
<rect width="16" height="14" fill="white" transform="translate(2 12)"/>
</clipPath>
<clipPath id="clip1_715_2017">
<rect width="14.1176" height="10" fill="white" transform="translate(2.94118 14)"/>
</clipPath>
<clipPath id="clip2_715_2017">
<rect width="5.71429" height="5.83333" fill="white" transform="translate(7.71428 15.5)"/>
</clipPath>
<clipPath id="clip3_715_2017">
<rect width="7" height="7" fill="white" transform="translate(7 2)"/>
</clipPath>
</defs>
</svg>
