<svg width="16" height="22" viewBox="0 0 16 22" fill="none" xmlns="http://www.w3.org/2000/svg">
<path d="M15.5 0.5V7.5573L10.8202 9.40524L8.00275 10.4648L0.5 7.55506V0.5H6H11H15.5Z" fill="#E6122E" stroke="black"/>
<circle cx="8" cy="16" r="5.5" fill="#CD7F32" stroke="black"/>
<path d="M2 0H4V9.5L2 8.5V0Z" fill="black"/>
<path d="M6.5 0H9.5V9.5L8 10L6.5 9.33333V0Z" fill="black"/>
<path d="M6.5 0H9.5V9.5L8 10L6.5 9.33333V0Z" fill="black"/>
<path d="M6.5 0H9.5V9.5L8 10L6.5 9.33333V0Z" fill="black"/>
<path d="M12 0.5H14V8L12 9V0.5Z" fill="black"/>
<path d="M12 0.5H14V8L12 9V0.5Z" fill="black"/>
<path d="M12 0.5H14V8L12 9V0.5Z" fill="black"/>
</svg>
