<svg width="16" height="22" viewBox="0 0 16 22" fill="none" xmlns="http://www.w3.org/2000/svg">
<path d="M10.5 8.61689L8.00252 9.47072L0.5 6.8256V0.5H6H10.5V8.61689ZM11.5 8.26363V0.5H15.5V6.82773L11.5 8.26363Z" fill="#1580F3" stroke="black"/>
<path d="M13.5 16C13.5 19.0376 11.0376 21.5 8 21.5C4.96243 21.5 2.5 19.0376 2.5 16C2.5 12.9624 4.96243 10.5 8 10.5C11.0376 10.5 13.5 12.9624 13.5 16Z" fill="#CD7F32" stroke="black"/>
<path d="M4 0H7L6.5 9L4.5 8.27027L4 0Z" fill="black"/>
<path d="M9 0H12L11.5 8.51351L9.5 9L9 0Z" fill="#0C0C0C"/>
</svg>
