<svg width="22" height="26" viewBox="0 0 22 26" fill="none" xmlns="http://www.w3.org/2000/svg">
<path d="M21.5 0.5V8.54549L14.9742 10.6596L11.0023 11.8851L0.5 8.54348V0.5H8.25H15.125H21.5Z" fill="#E6122E" stroke="black"/>
<path d="M10.3134 12.1967C10.5642 12.0912 10.8464 12.0358 11.1333 12.0358C11.4203 12.0358 11.7024 12.0912 11.9533 12.1967L17.8644 14.6846C18.1278 14.7954 18.3473 14.9577 18.5001 15.1545C18.6529 15.3513 18.7334 15.5754 18.7333 15.8038V20.6963C18.7334 20.9247 18.6529 21.1488 18.5001 21.3456C18.3473 21.5424 18.1278 21.7047 17.8644 21.8155L11.9533 24.3034C11.7024 24.4089 11.4203 24.4643 11.1333 24.4643C10.8464 24.4643 10.5642 24.4089 10.3134 24.3034L4.40227 21.8149C4.1391 21.7041 3.91978 21.5421 3.767 21.3455C3.61423 21.149 3.53355 20.9251 3.53333 20.697V15.8038C3.53325 15.5754 3.61378 15.3513 3.76657 15.1545C3.91936 14.9577 4.13885 14.7954 4.40227 14.6846L10.3134 12.1967Z" fill="#C0C0C0" stroke="black"/>
<path d="M10.3367 14L10.7927 14.6568H11.2065L11.6624 14H10.3367ZM10.1468 14.301C9.88348 14.3466 9.62818 14.4134 9.38568 14.5002L9.52866 14.9313C9.80714 14.8195 10.1085 14.7404 10.4214 14.6967L10.1468 14.301ZM11.8523 14.301L11.5777 14.6967C11.8906 14.7404 12.192 14.8196 12.4705 14.9313L12.6135 14.5002C12.371 14.4134 12.1156 14.3466 11.8523 14.301ZM13.0276 14.3576L12.7908 15.0718L13.1078 15.2634L14.0431 14.9713L13.0276 14.3576ZM8.97175 14.3581L7.9562 14.9719L8.89157 15.2639L9.20857 15.0723L8.97175 14.3581ZM11.6591 15.0964L10.6232 16.3087L9.09566 15.6687L9.98218 16.8282L8.68307 17.2412L10.0626 17.3664L9.14866 18.0737L10.8075 17.744L11.617 18.3824L11.6917 17.5623L12.7468 17.8145L12.2362 17.2424L13.4944 17.0673L12.0206 16.6697L12.9854 15.9511L11.7036 16.1753L11.6591 15.0964ZM13.9199 15.2899L13.3548 15.4663C13.5559 15.6446 13.7167 15.8445 13.8312 16.0588L14.325 15.7951C14.2166 15.6163 14.0807 15.4469 13.9199 15.2899ZM8.07894 15.2903C7.91814 15.4472 7.78228 15.6166 7.67393 15.7953L8.16771 16.0591C8.28224 15.8448 8.44295 15.6449 8.64392 15.4667L8.07894 15.2903ZM14.7698 15.8774L13.951 16.3148L14.0229 16.6083L15 16.8177L14.7698 15.8774ZM7.23018 15.8782L7 16.8185L7.97715 16.6091L8.04901 16.3156L7.23018 15.8782ZM14.0317 16.8784C14.0263 17.114 13.9688 17.3407 13.8672 17.5527L14.4805 17.5792C14.5566 17.3919 14.6034 17.1991 14.6198 17.0044L14.0317 16.8784ZM7.9674 16.8794L7.37934 17.0053C7.39591 17.2 7.44273 17.3927 7.51891 17.5799L8.13222 17.5534C8.03055 17.3415 7.97305 17.1149 7.9674 16.8794ZM13.7305 17.8042L13.5236 18.0623L14.0853 18.6751L14.7481 17.8482L13.7305 17.8042ZM8.27027 17.8049L7.25264 17.8489L7.91544 18.6758L8.47718 18.063L8.27027 17.8049ZM13.2889 18.2728C13.1303 18.4041 12.9507 18.5215 12.7537 18.6224L13.0449 19C13.2562 18.896 13.4517 18.7763 13.6282 18.6429L13.2889 18.2728ZM8.71148 18.2738L8.37222 18.6439C8.54832 18.777 8.74337 18.8963 8.95415 19L9.24538 18.6224C9.04895 18.5218 8.86974 18.4048 8.71148 18.2738Z" fill="#F4E8E8"/>
<path d="M7.38808 15.0001C6.87016 15.1047 6.46491 15.2197 5.96557 15.4493C5.90083 15.488 5.83736 15.5276 5.77521 15.568C5.78231 15.5785 5.79324 15.5914 5.80941 15.6097C5.83945 15.6436 5.8912 15.6842 5.95632 15.7243C5.85653 15.8247 5.76286 15.9274 5.67551 16.0323C5.56721 15.976 5.47002 15.9133 5.39193 15.843C5.16547 16.0199 4.96338 16.2085 4.78781 16.4069C4.79948 16.4372 4.83383 16.4702 4.89954 16.5145C4.97805 16.5674 5.10069 16.622 5.24319 16.6685C5.18336 16.7818 5.13205 16.8946 5.0899 17.0072C4.86998 16.9446 4.66883 16.8633 4.51072 16.76C4.33247 17.0198 4.19961 17.291 4.11446 17.5687C4.15392 17.6138 4.22424 17.6551 4.33059 17.699C4.48052 17.7609 4.69594 17.8116 4.9301 17.8409C4.92877 17.9601 4.93749 18.0784 4.9541 18.1951C4.61693 18.1641 4.29184 18.0979 4.0267 17.9885L4.02209 17.9867C3.98423 18.2701 3.99506 18.5552 4.0544 18.8372C4.12268 18.9016 4.23695 18.9475 4.40724 18.9842C4.62615 19.0314 4.92369 19.0462 5.22661 19.027C5.28572 19.1405 5.35297 19.2518 5.4279 19.3605C5.01497 19.3994 4.59325 19.3905 4.22803 19.3119C4.21806 19.3097 4.20837 19.3072 4.19847 19.3049C4.31538 19.5898 4.48236 19.8657 4.69635 20.1276C4.80137 20.1795 4.94317 20.2057 5.13146 20.2138C5.40635 20.2257 5.75644 20.1818 6.09028 20.0963C6.19974 20.1935 6.31561 20.2877 6.43759 20.3788C6.00692 20.5032 5.54019 20.5766 5.10559 20.5594C5.39981 20.8303 5.74569 21.0776 6.13553 21.2958C6.26145 21.3226 6.41043 21.323 6.58997 21.301C6.87373 21.2663 7.20642 21.1639 7.50717 21.0231C7.65913 21.0967 7.81693 21.1663 7.97828 21.2315C7.62429 21.4151 7.22084 21.5594 6.80983 21.6247C7.15708 21.7719 7.52683 21.8972 7.91364 21.9986C8.05957 22.0064 8.21779 21.9808 8.39674 21.9262C8.62352 21.8571 8.86318 21.7363 9.07748 21.5876C9.58104 21.7133 10.1041 21.7955 10.6312 21.8267L10.6838 21.4816C10.262 21.4566 9.83888 21.3933 9.42571 21.2975C9.62916 21.0918 9.76889 20.8682 9.8082 20.6781C9.84302 20.5093 9.81065 20.3788 9.69641 20.281C9.45757 20.2517 9.22672 20.208 9.00547 20.1513C9.00039 20.2711 8.95505 20.3919 8.88074 20.505C8.77004 20.6736 8.59934 20.8347 8.39213 20.9815C8.23327 20.9202 8.07885 20.8545 7.92933 20.7846C8.12501 20.6516 8.28176 20.5073 8.36993 20.373C8.48243 20.2017 8.49328 20.0659 8.38841 19.9504C8.15939 19.8586 7.94494 19.7515 7.74645 19.6314C7.69404 19.7111 7.62269 19.7865 7.5386 19.8555C7.37673 19.9882 7.16698 20.1058 6.93078 20.2057C6.809 20.1183 6.69277 20.0278 6.58347 19.9336C6.79487 19.8466 6.97648 19.7465 7.09986 19.6453C7.24877 19.5231 7.31327 19.4154 7.29104 19.3101C7.14226 19.1871 7.00885 19.057 6.892 18.9211C6.82437 18.9709 6.74851 19.0162 6.66567 19.056C6.46591 19.1519 6.22826 19.2256 5.97382 19.2789C5.89711 19.1734 5.8273 19.0658 5.76691 18.9558C5.98644 18.9113 6.18457 18.8505 6.32941 18.781C6.49778 18.7002 6.58959 18.6227 6.61116 18.5355C6.52055 18.3852 6.44739 18.231 6.39225 18.0741C6.33705 18.094 6.27964 18.1115 6.22046 18.1262C6.00024 18.1808 5.75491 18.2084 5.50277 18.2142C5.48283 18.099 5.47263 17.9833 5.47224 17.8674C5.67788 17.8625 5.87022 17.8408 6.0173 17.8043C6.15327 17.7706 6.2418 17.7339 6.29347 17.6886C6.26262 17.5051 6.25458 17.3205 6.26944 17.1363C6.25022 17.1382 6.2313 17.1396 6.21215 17.1409C6.01635 17.1543 5.81145 17.1437 5.60898 17.116C5.64947 17.0052 5.69972 16.8935 5.75955 16.7814C5.9035 16.7987 6.04148 16.804 6.15209 16.7965C6.22935 16.7912 6.28605 16.7825 6.32944 16.7704C6.37004 16.6073 6.42901 16.4461 6.5059 16.2882C6.38229 16.2745 6.26104 16.2494 6.14381 16.2164C6.22945 16.1128 6.32159 16.0115 6.42001 15.9125C6.49136 15.9303 6.55941 15.9433 6.61767 15.949C6.65039 15.9521 6.67746 15.9539 6.6999 15.9542C6.75742 15.8682 6.81878 15.7843 6.88559 15.7029C7.05992 15.4843 7.25256 15.2536 7.38808 15.0001ZM14.6115 15.0001C14.7469 15.2536 14.9396 15.4842 15.114 15.7029C15.1814 15.7851 15.2436 15.8689 15.3005 15.9541C15.3227 15.9538 15.3496 15.952 15.3818 15.9489C15.4403 15.9433 15.5088 15.9304 15.5804 15.9124C15.6788 16.0114 15.771 16.1128 15.8566 16.2164C15.7391 16.2494 15.6173 16.2745 15.4936 16.2882C15.5694 16.4436 15.6288 16.605 15.67 16.7704C15.7136 16.7826 15.7706 16.7911 15.8483 16.7965C15.9589 16.8041 16.0969 16.7987 16.2409 16.7814C16.2994 16.8916 16.3494 17.0034 16.3905 17.1166C16.1884 17.1442 15.9837 17.1543 15.7883 17.1409C15.7688 17.1397 15.7494 17.1382 15.7301 17.1363C15.7453 17.3205 15.7376 17.5052 15.707 17.6886C15.7587 17.734 15.8473 17.7707 15.9832 17.8044C16.1301 17.8408 16.322 17.8625 16.5273 17.8675C16.5269 17.9833 16.5168 18.0991 16.4969 18.2143C16.245 18.2083 16 18.1808 15.7801 18.1263C15.7209 18.1114 15.6635 18.094 15.6082 18.0741C15.553 18.2309 15.4799 18.3849 15.3893 18.535C15.4105 18.6224 15.5015 18.7001 15.6701 18.781C15.8151 18.8505 16.0132 18.9113 16.2327 18.9558C16.1723 19.0659 16.1025 19.1734 16.0258 19.2789C15.7717 19.2256 15.5344 19.1518 15.3349 19.056C15.2517 19.0162 15.1755 18.971 15.1076 18.9211C14.9891 19.0586 14.8558 19.1887 14.7086 19.3101C14.6861 19.4154 14.7508 19.5232 14.8998 19.6453C15.023 19.7464 15.2047 19.8467 15.4161 19.9337C15.3068 20.0279 15.1906 20.1183 15.0688 20.2057C14.8326 20.1058 14.6229 19.9882 14.461 19.8555C14.3771 19.7867 14.3063 19.7114 14.2541 19.632C14.0558 19.752 13.841 19.8587 13.6121 19.9504C13.5073 20.0659 13.5181 20.2017 13.6306 20.373C13.7188 20.5073 13.8756 20.6516 14.0713 20.7847C13.9215 20.8546 13.7667 20.9202 13.6076 20.9815C13.4006 20.8347 13.2306 20.6736 13.1198 20.505C13.0456 20.3919 13.0002 20.2712 12.9951 20.1513C12.7718 20.2085 12.5401 20.252 12.3033 20.281C12.1888 20.3788 12.1567 20.5093 12.1915 20.6781C12.2308 20.8683 12.3713 21.0918 12.5748 21.2976C12.1618 21.3933 11.7385 21.4566 11.3168 21.4817L11.3685 21.8267C11.8958 21.7954 12.4192 21.7134 12.9231 21.5876C13.1374 21.7363 13.3771 21.8571 13.6038 21.9262C13.7828 21.9808 13.941 22.0065 14.087 21.9986C14.4738 21.8972 14.8435 21.7719 15.1907 21.6246C14.78 21.5594 14.376 21.4154 14.0223 21.2321C14.1831 21.1672 14.3397 21.097 14.4924 21.0231C14.7934 21.164 15.1267 21.2663 15.4106 21.301C15.5896 21.3229 15.7384 21.323 15.8641 21.2964C16.2544 21.0779 16.6005 20.8305 16.895 20.5594C16.4603 20.5766 15.9927 20.5032 15.5621 20.3788C15.6838 20.2878 15.8005 20.1937 15.9103 20.0963C16.2441 20.1817 16.5942 20.2257 16.8691 20.2138C17.0574 20.2056 17.1992 20.1795 17.3042 20.1275C17.5181 19.8657 17.6851 19.5898 17.802 19.3049C17.7921 19.3072 17.7824 19.3097 17.7725 19.3118C17.4073 19.3905 16.9855 19.3993 16.5726 19.3605C16.6478 19.2513 16.715 19.14 16.774 19.027C17.0765 19.046 17.3737 19.0313 17.5924 18.9842C17.7628 18.9475 17.8776 18.9016 17.9461 18.8371C18.0052 18.5552 18.0157 18.2701 17.9776 17.9867L17.9739 17.9884C17.7088 18.0979 17.3836 18.1641 17.0465 18.1951C17.0631 18.0784 17.0718 17.9601 17.0705 17.8408C17.3046 17.8115 17.5201 17.7608 17.6699 17.699C17.7761 17.6551 17.8457 17.6137 17.8852 17.5687C17.8 17.2909 17.6671 17.0198 17.4889 16.76C17.3308 16.8631 17.1302 16.9445 16.9106 17.0072C16.8676 16.8929 16.8164 16.7799 16.7573 16.6685C16.8993 16.6219 17.0216 16.5673 17.1 16.5145C17.1654 16.4705 17.2006 16.4376 17.2127 16.4074C17.0372 16.2089 16.835 16.02 16.6085 15.8429C16.5304 15.9132 16.4332 15.9759 16.325 16.0323C16.2376 15.9274 16.144 15.8247 16.0442 15.7243C16.1095 15.6841 16.161 15.6435 16.191 15.6096C16.2069 15.5916 16.2182 15.5789 16.2252 15.5685C16.1628 15.5279 16.099 15.4882 16.034 15.4492C15.5347 15.2196 15.1294 15.1047 14.6115 15.0001Z" fill="#F0E6E6"/>
<g clip-path="url(#clip0_715_2031)">
<path d="M15 4.24844H11.9234L11 1.17188L10.0766 4.24844H7L9.46094 5.94062L8.53906 8.86406L11 7.325L13.4609 8.86406L12.5391 5.94062L15 4.24844Z" fill="black"/>
</g>
<g clip-path="url(#clip1_715_2031)">
<path d="M15 4.24844H11.9234L11 1.17188L10.0766 4.24844H7L9.46094 5.94062L8.53906 8.86406L11 7.325L13.4609 8.86406L12.5391 5.94062L15 4.24844Z" fill="black"/>
</g>
<g clip-path="url(#clip2_715_2031)">
<path d="M21 4.24844H17.9234L17 1.17188L16.0766 4.24844H13L15.4609 5.94062L14.5391 8.86406L17 7.325L19.4609 8.86406L18.5391 5.94062L21 4.24844Z" fill="black"/>
</g>
<g clip-path="url(#clip3_715_2031)">
<path d="M9 4.24844H5.92344L5 1.17188L4.07656 4.24844H1L3.46094 5.94062L2.53906 8.86406L5 7.325L7.46094 8.86406L6.53906 5.94062L9 4.24844Z" fill="black"/>
</g>
<defs>
<clipPath id="clip0_715_2031">
<rect width="8" height="8" fill="white" transform="translate(7 1)"/>
</clipPath>
<clipPath id="clip1_715_2031">
<rect width="8" height="8" fill="white" transform="translate(7 1)"/>
</clipPath>
<clipPath id="clip2_715_2031">
<rect width="8" height="8" fill="white" transform="translate(13 1)"/>
</clipPath>
<clipPath id="clip3_715_2031">
<rect width="8" height="8" fill="white" transform="translate(1 1)"/>
</clipPath>
</defs>
</svg>
