<svg width="21" height="24" viewBox="0 0 21 24" fill="none" xmlns="http://www.w3.org/2000/svg">
<path d="M3.5 0C3.04037 0 2.58525 0.103463 2.16061 0.304482C1.73597 0.505501 1.35013 0.800139 1.02513 1.17157C0.368749 1.92172 0 2.93913 0 4V20C0 21.0609 0.368749 22.0783 1.02513 22.8284C1.35013 23.1999 1.73597 23.4945 2.16061 23.6955C2.58525 23.8965 3.04037 24 3.5 24H17.5C18.4283 24 19.3185 23.5786 19.9749 22.8284C20.6313 22.0783 21 21.0609 21 20V4C21 3.47471 20.9095 2.95457 20.7336 2.46927C20.5577 1.98396 20.2999 1.54301 19.9749 1.17157C19.6499 0.800139 19.264 0.505501 18.8394 0.304482C18.4148 0.103463 17.9596 0 17.5 0H3.5ZM1.4 4C1.4 3.36348 1.62125 2.75303 2.01508 2.30294C2.4089 1.85286 2.94305 1.6 3.5 1.6H17.5C18.057 1.6 18.5911 1.85286 18.9849 2.30294C19.3788 2.75303 19.6 3.36348 19.6 4V20C19.6 20.6365 19.3788 21.247 18.9849 21.6971C18.5911 22.1471 18.057 22.4 17.5 22.4H3.5C2.94305 22.4 2.4089 22.1471 2.01508 21.6971C1.62125 21.247 1.4 20.6365 1.4 20V4Z" fill="#FDFDEF"/>
<path fill-rule="evenodd" clip-rule="evenodd" d="M13.108 4.2523C13.2169 4.1318 13.3557 4.04973 13.507 4.01651C13.6582 3.9833 13.815 4.00044 13.9573 4.06575L16.1631 5.07516C16.3533 5.16184 16.5047 5.32819 16.584 5.53777C16.6633 5.74734 16.6641 5.98306 16.5862 6.1933L15.685 8.62755C15.6268 8.78474 15.5277 8.91934 15.4001 9.01431C15.2725 9.10929 15.1223 9.16038 14.9684 9.16112C14.8146 9.16185 14.664 9.1122 14.5357 9.01844C14.4074 8.92469 14.3072 8.79104 14.2477 8.63442L13.892 7.69596L4.93407 11.9201C4.84011 11.9645 4.73914 11.988 4.63696 11.9892C4.53477 11.9905 4.43335 11.9696 4.3385 11.9276C4.24364 11.8856 4.15721 11.8234 4.08413 11.7446C4.01106 11.6657 3.95277 11.5718 3.91259 11.4681C3.87242 11.3644 3.85114 11.253 3.84999 11.1402C3.84883 11.0274 3.86781 10.9155 3.90585 10.8108C3.94389 10.7061 4.00024 10.6108 4.07168 10.5301C4.14312 10.4495 4.22825 10.3851 4.32222 10.3408L13.2916 6.11204L12.9421 5.19075C12.8823 5.0338 12.8661 4.86078 12.8957 4.69367C12.9252 4.52656 12.9991 4.37293 13.108 4.2523ZM15.963 10.2721C16.238 10.2721 16.5018 10.3927 16.6963 10.6073C16.8907 10.822 17 11.1131 17 11.4166V19.4278C17 19.5795 16.9454 19.7251 16.8481 19.8324C16.7509 19.9397 16.619 20 16.4815 20H13.8889C13.7514 20 13.6195 19.9397 13.5222 19.8324C13.425 19.7251 13.3704 19.5795 13.3704 19.4278V11.4166C13.3704 11.1131 13.4796 10.822 13.6741 10.6073C13.8686 10.3927 14.1324 10.2721 14.4074 10.2721H15.963ZM11.511 12.323C11.3164 12.1088 11.0526 11.9886 10.7778 11.9888H9.22222C8.94718 11.9888 8.68341 12.1094 8.48893 12.324C8.29444 12.5386 8.18519 12.8297 8.18519 13.1333V19.4278C8.18519 19.5795 8.23981 19.7251 8.33706 19.8324C8.4343 19.9397 8.56618 20 8.7037 20H11.2963C11.4338 20 11.5657 19.9397 11.6629 19.8324C11.7602 19.7251 11.8148 19.5795 11.8148 19.4278V13.1333C11.8149 12.9828 11.7881 12.8338 11.736 12.6947C11.6839 12.5557 11.6074 12.4294 11.511 12.323ZM5.59259 13.7055C5.86763 13.7055 6.13141 13.8261 6.32589 14.0407C6.52037 14.2553 6.62963 14.5464 6.62963 14.85V19.4278C6.62963 19.5795 6.575 19.7251 6.47776 19.8324C6.38052 19.9397 6.24863 20 6.11111 20H3.51852C3.381 20 3.24911 19.9397 3.15187 19.8324C3.05463 19.7251 3 19.5795 3 19.4278V14.85C3 14.5464 3.10926 14.2553 3.30374 14.0407C3.49822 13.8261 3.762 13.7055 4.03704 13.7055H5.59259Z" fill="#FDFDEF"/>
</svg>
