<svg width="33" height="24" viewBox="0 0 33 24" fill="none" xmlns="http://www.w3.org/2000/svg">
<path d="M5.5 0C4.77773 0 4.06253 0.103463 3.39524 0.304482C2.72795 0.505501 2.12163 0.800139 1.61091 1.17157C0.579463 1.92172 0 2.93913 0 4V20C0 21.0609 0.579463 22.0783 1.61091 22.8284C2.12163 23.1999 2.72795 23.4945 3.39524 23.6955C4.06253 23.8965 4.77773 24 5.5 24H27.5C28.9587 24 30.3576 23.5786 31.3891 22.8284C32.4205 22.0783 33 21.0609 33 20V4C33 3.47471 32.8577 2.95457 32.5813 2.46927C32.3049 1.98396 31.8998 1.54301 31.3891 1.17157C30.8784 0.800139 30.2721 0.505501 29.6048 0.304482C28.9375 0.103463 28.2223 0 27.5 0H5.5ZM2.2 4C2.2 3.36348 2.54768 2.75303 3.16655 2.30294C3.78542 1.85286 4.62479 1.6 5.5 1.6H27.5C28.3752 1.6 29.2146 1.85286 29.8335 2.30294C30.4523 2.75303 30.8 3.36348 30.8 4V20C30.8 20.6365 30.4523 21.247 29.8335 21.6971C29.2146 22.1471 28.3752 22.4 27.5 22.4H5.5C4.62479 22.4 3.78542 22.1471 3.16655 21.6971C2.54768 21.247 2.2 20.6365 2.2 20V4Z" fill="black"/>
<path fill-rule="evenodd" clip-rule="evenodd" d="M20.5983 4.2523C20.7694 4.1318 20.9876 4.04973 21.2252 4.01651C21.4629 3.9833 21.7092 4.00044 21.933 4.06575L25.3992 5.07516C25.6981 5.16184 25.9359 5.32819 26.0605 5.53777C26.1852 5.74734 26.1864 5.98306 26.0641 6.1933L24.6479 8.62755C24.5564 8.78474 24.4006 8.91934 24.2002 9.01431C23.9997 9.10929 23.7637 9.16038 23.5219 9.16112C23.2801 9.16185 23.0434 9.1122 22.8418 9.01844C22.6402 8.92469 22.4827 8.79104 22.3893 8.63442L21.8303 7.69596L7.75355 11.9201C7.60589 11.9645 7.44724 11.988 7.28665 11.9892C7.12607 11.9905 6.9667 11.9696 6.81765 11.9276C6.66859 11.8856 6.53277 11.8234 6.41793 11.7446C6.3031 11.6657 6.2115 11.5718 6.14837 11.4681C6.08524 11.3644 6.05181 11.253 6.04999 11.1402C6.04817 11.0274 6.078 10.9155 6.13778 10.8108C6.19755 10.7061 6.2861 10.6108 6.39836 10.5301C6.51062 10.4495 6.64441 10.3851 6.79207 10.3408L20.8867 6.11204L20.3376 5.19075C20.2436 5.0338 20.2182 4.86078 20.2646 4.69367C20.3111 4.52656 20.4272 4.37293 20.5983 4.2523ZM25.0847 10.2721C25.5169 10.2721 25.9314 10.3927 26.237 10.6073C26.5426 10.822 26.7143 11.1131 26.7143 11.4166V19.4278C26.7143 19.5795 26.6284 19.7251 26.4756 19.8324C26.3228 19.9397 26.1156 20 25.8995 20H21.8254C21.6093 20 21.4021 19.9397 21.2492 19.8324C21.0964 19.7251 21.0106 19.5795 21.0106 19.4278V11.4166C21.0106 11.1131 21.1823 10.822 21.4879 10.6073C21.7935 10.3927 22.208 10.2721 22.6402 10.2721H25.0847ZM18.0887 12.323C17.7829 12.1088 17.3685 11.9886 16.9365 11.9888H14.4921C14.0599 11.9888 13.6454 12.1094 13.3398 12.324C13.0341 12.5386 12.8624 12.8297 12.8624 13.1333V19.4278C12.8624 19.5795 12.9483 19.7251 13.1011 19.8324C13.2539 19.9397 13.4612 20 13.6773 20H17.7513C17.9674 20 18.1747 19.9397 18.3275 19.8324C18.4803 19.7251 18.5661 19.5795 18.5661 19.4278V13.1333C18.5663 12.9828 18.5242 12.8338 18.4423 12.6947C18.3604 12.5557 18.2402 12.4294 18.0887 12.323ZM8.78837 13.7055C9.22057 13.7055 9.63508 13.8261 9.94069 14.0407C10.2463 14.2553 10.418 14.5464 10.418 14.85V19.4278C10.418 19.5795 10.3322 19.7251 10.1793 19.8324C10.0265 19.9397 9.81929 20 9.60318 20H5.52911C5.31301 20 5.10576 19.9397 4.95295 19.8324C4.80014 19.7251 4.71429 19.5795 4.71429 19.4278V14.85C4.71429 14.5464 4.88599 14.2553 5.1916 14.0407C5.49722 13.8261 5.91172 13.7055 6.34392 13.7055H8.78837Z" fill="black"/>
</svg>
