<svg width="16" height="14" viewBox="0 0 16 14" fill="none" xmlns="http://www.w3.org/2000/svg">
<g opacity="0.9">
<path d="M10.1702 6.93843L14.039 5.44569V13H10.1702V6.93843ZM5.33354 5.07251L7.75185 8.05799L10.1702 6.93843V12.998H5.33354V5.07251Z" fill="white"/>
<path d="M10.1702 6.93843L14.039 5.44569V13H10.1702V6.93843ZM10.1702 6.93843L7.75185 8.05799L5.33354 5.07251V12.998H10.1702V6.93843Z" stroke="black" stroke-width="0.857143" stroke-linecap="round" stroke-linejoin="round"/>
<path d="M1.46471 6.56522L5.33355 5.07248V12.999H1.46471V6.56522ZM15 1.4519L8.86513 4.87457L6.04528 1.99642L1 4.25916" fill="white"/>
<path d="M15 1.4519L8.86513 4.87457L6.04528 1.99642L1 4.25916M1.46471 6.56522L5.33355 5.07248V12.999H1.46471V6.56522Z" stroke="black" stroke-width="0.857143" stroke-linecap="round" stroke-linejoin="round"/>
<path d="M11.95 1L14.9989 1.4431L14.4913 4.1056" fill="white"/>
<path d="M11.95 1L14.9989 1.4431L14.4913 4.1056" stroke="black" stroke-width="0.857143" stroke-linecap="round" stroke-linejoin="round"/>
</g>
</svg>
