<svg width="22" height="39" viewBox="0 0 22 39" fill="none" xmlns="http://www.w3.org/2000/svg">
<path d="M15.9046 25.3009L17.8162 24.1952C19.9932 22.9356 21.0807 22.3058 21.2265 21.4087C21.248 21.2687 21.2548 21.1269 21.2467 20.9855C21.1738 20.0823 20.141 19.3857 18.0775 17.9924L8.54543 11.5587C4.80106 9.03145 3.94041 4.42238 6.56895 1M19.2257 6.06269C19.2257 6.86832 18.9056 7.64095 18.336 8.21061C17.7663 8.78027 16.9937 9.1003 16.1881 9.1003C15.3824 9.1003 14.6098 8.78027 14.0401 8.21061C13.4705 7.64095 13.1505 6.86832 13.1505 6.06269C13.1505 5.25706 13.4705 4.48444 14.0401 3.91477C14.6098 3.34511 15.3824 3.02508 16.1881 3.02508C16.9937 3.02508 17.7663 3.34511 18.336 3.91477C18.9056 4.48444 19.2257 5.25706 19.2257 6.06269Z" stroke="black" stroke-width="1.5" stroke-linecap="round" stroke-linejoin="round"/>
<path d="M8.54543 11.5587C3.48274 16.6214 1 30.6309 1 37.4514M8.54543 11.5587C4.80107 9.03145 3.94041 4.42238 6.56896 1M8.54543 11.5587L13.9038 15.1755M15.9046 25.3009L17.8162 24.1952C19.9932 22.9356 21.0807 22.3058 21.2265 21.4087C21.248 21.2687 21.2548 21.1269 21.2467 20.9855C21.1738 20.0823 20.141 19.3857 18.0775 17.9924L13.9058 15.1755C12.5015 16.993 11.2996 18.9581 10.3214 21.0361C9.43039 22.9133 8.9869 23.851 9.06993 24.9242L3.02508 23.2758M17.2006 37.4514C15.2302 35.1529 13.2031 31.9837 11.2266 29.0635C9.84351 27.0182 9.15093 25.9935 9.06993 24.9222" stroke="black" stroke-width="1.5" stroke-linecap="round" stroke-linejoin="round"/>
</svg>
