<svg width="26" height="24" viewBox="0 0 26 24" fill="none" xmlns="http://www.w3.org/2000/svg">
<path d="M17.2883 17.67H8.79561M17.2883 17.67L17.2345 13.7291C17.2345 13.3802 17.555 13.0978 17.9506 13.0978H20.518C20.612 13.0981 20.707 13.1147 20.7938 13.1467C20.8805 13.1787 20.9593 13.2254 21.0255 13.2843C21.0918 13.3431 21.1443 13.4129 21.1799 13.4896C21.2156 13.5663 21.2338 13.6484 21.2335 13.7313V21.9074C21.2338 21.9904 21.2155 22.0726 21.1796 22.1494C21.1438 22.2261 21.091 22.2958 21.0245 22.3545C20.9579 22.4132 20.8788 22.4597 20.7918 22.4913C20.7048 22.5229 20.6115 22.539 20.5173 22.5387H17.9506C17.8565 22.539 17.7632 22.5229 17.6762 22.4913C17.5892 22.4597 17.5101 22.4132 17.4435 22.3545C17.3769 22.2958 17.3242 22.2261 17.2883 22.1494C17.2525 22.0726 17.2342 21.9904 17.2345 21.9074L17.2883 17.67ZM8.79561 17.67L8.79367 13.7313C8.79367 13.3785 8.47518 13.0978 8.07561 13.0978H5.51086C5.11388 13.0978 4.79734 13.3808 4.79734 13.7313V21.9074C4.79734 22.2562 5.11778 22.5387 5.51345 22.5387H8.07561C8.16991 22.5392 8.2634 22.5233 8.35066 22.4918C8.43792 22.4603 8.51723 22.4138 8.584 22.3551C8.65077 22.2964 8.70368 22.2266 8.73967 22.1498C8.77566 22.0729 8.79401 21.9905 8.79367 21.9074L8.79561 17.67ZM23.7541 19.3507H24.2957C24.6933 19.3507 25.0144 19.07 25.0144 18.7194V16.917C25.0144 16.5682 24.694 16.2857 24.2983 16.2857H23.7567M21.2315 21.192H23.0386C23.1327 21.1923 23.2258 21.1761 23.3127 21.1445C23.3997 21.1129 23.4786 21.0664 23.5451 21.0078C23.6116 20.9492 23.6643 20.8796 23.7002 20.803C23.736 20.7263 23.7544 20.6442 23.7541 20.5613V15.0774C23.7546 14.9101 23.6798 14.7494 23.546 14.6307C23.4122 14.512 23.2304 14.445 23.0406 14.4444H21.2341M2.27215 19.353H1.73313C1.63909 19.3533 1.5459 19.3373 1.45888 19.3059C1.37187 19.2744 1.29274 19.2282 1.226 19.1697C1.15926 19.1113 1.10623 19.0419 1.06993 18.9654C1.03362 18.889 1.01476 18.8069 1.01442 18.724V16.917C1.01442 16.5671 1.33291 16.2857 1.73313 16.2857H2.27215M4.79734 21.192H2.98761C2.79786 21.192 2.61588 21.1256 2.48171 21.0073C2.34753 20.889 2.27215 20.7286 2.27215 20.5613V15.0774C2.27215 14.7275 2.59064 14.4444 2.98826 14.4444H4.7928M17.2332 20.8684H8.79561M3.52729 14.4438V2.80305C3.52729 2.10255 4.16296 1.53873 4.94977 1.53873H21.0817C21.8711 1.53873 22.5061 2.10084 22.5061 2.80305V14.4444" stroke="white" stroke-width="1.5" stroke-linecap="round" stroke-linejoin="round"/>
<path d="M15 11L13.2679 8L16.7321 8L15 11Z" fill="white"/>
<path d="M15 11L13.2679 8L16.7321 8L15 11Z" fill="white"/>
<path d="M15 11L13.2679 8L16.7321 8L15 11Z" fill="white"/>
<path d="M15 11L13.2679 8L16.7321 8L15 11Z" fill="white"/>
<path d="M19 11L17.2679 8L20.7321 8L19 11Z" fill="white"/>
<path d="M15 4L16.7321 7H13.2679L15 4Z" fill="white"/>
<path d="M19 4L20.7321 7H17.2679L19 4Z" fill="white"/>
<path d="M8.66667 11C10.5076 11 12 9.50766 12 7.66671C12 5.82576 10.5076 4.33337 8.66667 4.33337C6.82572 4.33337 5.33334 5.82576 5.33334 7.66671C5.33334 9.50766 6.82572 11 8.66667 11Z" stroke="white" stroke-linecap="round" stroke-linejoin="round"/>
<path d="M8.66667 6V7.66667L9.66667 8.66667M5 5L6 4M11.3333 4L12.3333 5" stroke="white" stroke-linecap="round" stroke-linejoin="round"/>
</svg>
