<svg width="27" height="25" viewBox="0 0 27 25" fill="none" xmlns="http://www.w3.org/2000/svg">
<path d="M18.9789 7.9417V10.5041ZM18.9769 4.83263C18.9444 4.83263 18.9121 4.82654 18.8821 4.81472C18.8521 4.80289 18.8248 4.78556 18.8019 4.76373C18.779 4.7419 18.7609 4.716 18.7486 4.68752C18.7364 4.65904 18.7302 4.62855 18.7304 4.5978C18.7304 4.4663 18.8417 4.36298 18.9769 4.36298M18.9809 4.83263C19.0464 4.83213 19.1091 4.80717 19.1552 4.76319C19.2014 4.7192 19.2273 4.65976 19.2273 4.5978C19.2276 4.56705 19.2214 4.53656 19.2091 4.50808C19.1969 4.4796 19.1787 4.4537 19.1558 4.43187C19.1329 4.41004 19.1057 4.39271 19.0756 4.38089C19.0456 4.36906 19.0134 4.36298 18.9809 4.36298M1.00397 23.9981H24.8678ZM3.25381 12.6607C3.25381 13.1391 3.35349 13.6128 3.54716 14.0547C3.74083 14.4966 4.0247 14.8982 4.38255 15.2364C4.7404 15.5747 5.16524 15.843 5.6328 16.0261C6.10036 16.2091 6.60148 16.3033 7.10756 16.3033C7.61365 16.3033 8.11477 16.2091 8.58233 16.0261C9.04989 15.843 9.47473 15.5747 9.83258 15.2364C10.1904 14.8982 10.4743 14.4966 10.668 14.0547C10.8616 13.6128 10.9613 13.1391 10.9613 12.6607C10.9613 12.1824 10.8616 11.7087 10.668 11.2668C10.4743 10.8248 10.1904 10.4233 9.83258 10.085C9.47473 9.74679 9.04989 9.47847 8.58233 9.29542C8.11477 9.11236 7.61365 9.01814 7.10756 9.01814C6.60148 9.01814 6.10036 9.11236 5.6328 9.29542C5.16524 9.47847 4.7404 9.74679 4.38255 10.085C4.0247 10.4233 3.74083 10.8248 3.54716 11.2668C3.35349 11.7087 3.25381 12.1824 3.25381 12.6607Z" fill="white"/>
<path d="M18.9789 7.9417V10.5041M18.9769 4.83263C18.9444 4.83263 18.9121 4.82654 18.8821 4.81472C18.8521 4.80289 18.8248 4.78556 18.8019 4.76373C18.779 4.7419 18.7609 4.716 18.7486 4.68752C18.7364 4.65904 18.7302 4.62855 18.7304 4.5978C18.7304 4.4663 18.8417 4.36298 18.9769 4.36298M18.9809 4.83263C19.0464 4.83213 19.1091 4.80717 19.1552 4.76319C19.2014 4.7192 19.2273 4.65976 19.2273 4.5978C19.2276 4.56705 19.2214 4.53656 19.2091 4.50808C19.1969 4.4796 19.1787 4.4537 19.1558 4.43187C19.1329 4.41004 19.1057 4.39271 19.0756 4.38089C19.0456 4.36906 19.0134 4.36298 18.9809 4.36298M1.00397 23.9981H24.8678M3.25381 12.6607C3.25381 13.1391 3.35349 13.6128 3.54716 14.0547C3.74083 14.4966 4.0247 14.8982 4.38255 15.2364C4.7404 15.5747 5.16524 15.843 5.6328 16.0261C6.10036 16.2091 6.60148 16.3033 7.10756 16.3033C7.61365 16.3033 8.11477 16.2091 8.58233 16.0261C9.04989 15.843 9.47473 15.5747 9.83258 15.2364C10.1904 14.8982 10.4743 14.4966 10.668 14.0547C10.8616 13.6128 10.9613 13.1391 10.9613 12.6607C10.9613 12.1824 10.8616 11.7087 10.668 11.2668C10.4743 10.8248 10.1904 10.4233 9.83258 10.085C9.47473 9.74679 9.04989 9.47847 8.58233 9.29542C8.11477 9.11236 7.61365 9.01814 7.10756 9.01814C6.60148 9.01814 6.10036 9.11236 5.6328 9.29542C5.16524 9.47847 4.7404 9.74679 4.38255 10.085C4.0247 10.4233 3.74083 10.8248 3.54716 11.2668C3.35349 11.7087 3.25381 12.1824 3.25381 12.6607Z" stroke="black" stroke-width="1.5" stroke-linecap="round" stroke-linejoin="round"/>
<path d="M1 24V22.0763C1 20.5455 1.64337 19.0774 2.78858 17.9949C3.93378 16.9124 5.48701 16.3043 7.10658 16.3043C8.72614 16.3043 10.2794 16.9124 11.4246 17.9949C12.5698 19.0774 13.2132 20.5455 13.2132 22.0763V24M13.9962 12.4485C15.1512 13.5167 16.6587 14.1784 18.2673 14.3231C19.876 14.4677 21.4885 14.0867 22.8358 13.2435C24.1832 12.4004 25.184 11.146 25.6712 9.68977C26.1585 8.2335 26.1027 6.66334 25.5133 5.24121C24.9239 3.81907 23.8364 2.63096 22.4323 1.87504C21.0282 1.11912 19.3923 0.841103 17.7976 1.08737C16.2028 1.33363 14.7456 2.08928 13.669 3.22828C12.5924 4.36727 11.9615 5.82074 11.8815 7.34624" fill="white"/>
<path d="M1 24V22.0763C1 20.5455 1.64337 19.0774 2.78858 17.9949C3.93378 16.9124 5.48701 16.3043 7.10658 16.3043C8.72614 16.3043 10.2794 16.9124 11.4246 17.9949C12.5698 19.0774 13.2132 20.5455 13.2132 22.0763V24M13.9962 12.4485C15.1512 13.5167 16.6587 14.1784 18.2673 14.3231C19.876 14.4677 21.4885 14.0867 22.8358 13.2435C24.1832 12.4004 25.184 11.146 25.6712 9.68977C26.1585 8.2335 26.1027 6.66334 25.5133 5.24121C24.9239 3.81907 23.8364 2.63096 22.4323 1.87504C21.0282 1.11912 19.3923 0.841103 17.7976 1.08737C16.2028 1.33363 14.7456 2.08928 13.669 3.22828C12.5924 4.36727 11.9615 5.82074 11.8815 7.34624" stroke="black" stroke-width="1.5" stroke-linecap="round" stroke-linejoin="round"/>
</svg>
