<svg width="29" height="36" viewBox="0 0 29 36" fill="none" xmlns="http://www.w3.org/2000/svg">
<path d="M14.5 36C10.4521 36 7.02344 34.605 4.21406 31.815C1.40469 29.025 0 25.62 0 21.6V12.6C0 8.94 1.45 5.925 4.35 3.555C7.25 1.185 10.6333 0 14.5 0C18.3667 0 21.75 1.185 24.65 3.555C27.55 5.925 29 8.94 29 12.6V32.4C29 33.39 28.6454 34.2378 27.9361 34.9434C27.2268 35.649 26.3731 36.0012 25.375 36H14.5ZM14.5 32.4H18.125C17.551 31.65 17.1058 30.8172 16.7892 29.9016C16.4726 28.986 16.3137 28.0188 16.3125 27V25.11C16.0104 25.14 15.7083 25.1628 15.4063 25.1784C15.1042 25.194 14.8021 25.2012 14.5 25.2C12.476 25.2 10.5198 24.8472 8.63113 24.1416C6.7425 23.436 5.07379 22.3638 3.625 20.925V21.6C3.625 24.6 4.68229 27.15 6.79688 29.25C8.91146 31.35 11.4792 32.4 14.5 32.4ZM19.9375 27C19.9375 28.5 20.4661 29.775 21.5234 30.825C22.5807 31.875 23.8646 32.4 25.375 32.4V20.925C24.5896 21.705 23.7438 22.3728 22.8375 22.9284C21.9313 23.484 20.9646 23.9412 19.9375 24.3V27ZM14.5 21.6C17.3698 21.6 19.9 20.7672 22.0908 19.1016C24.2815 17.436 25.3762 15.2688 25.375 12.6C25.375 11.55 25.1938 10.5672 24.8313 9.6516C24.4688 8.736 23.9552 7.9188 23.2906 7.2C21.3573 7.26 19.7109 7.98 18.3516 9.36C16.9922 10.74 16.3125 12.42 16.3125 14.4C16.3125 14.91 16.1391 15.3378 15.7923 15.6834C15.4455 16.029 15.0148 16.2012 14.5 16.2C13.9853 16.1988 13.5551 16.026 13.2095 15.6816C12.8639 15.3372 12.6899 14.91 12.6875 14.4C12.6875 12.42 12.0078 10.755 10.6484 9.405C9.28906 8.055 7.64271 7.335 5.70938 7.245C5.04479 7.965 4.53125 8.775 4.16875 9.675C3.80625 10.575 3.625 11.55 3.625 12.6C3.625 15.27 4.72035 17.4378 6.91106 19.1034C9.10177 20.769 11.6314 21.6012 14.5 21.6ZM8.15625 14.4C7.64271 14.4 7.21254 14.2272 6.86575 13.8816C6.51896 13.536 6.34496 13.1088 6.34375 12.6C6.34254 12.0912 6.51654 11.664 6.86575 11.3184C7.21496 10.9728 7.64512 10.8 8.15625 10.8C8.66738 10.8 9.09815 10.9728 9.44856 11.3184C9.79898 11.664 9.97238 12.0912 9.96875 12.6C9.96513 13.1088 9.79112 13.5366 9.44675 13.8834C9.10237 14.2302 8.67221 14.4024 8.15625 14.4ZM20.8438 14.4C20.3302 14.4 19.9 14.2272 19.5533 13.8816C19.2065 13.536 19.0325 13.1088 19.0313 12.6C19.03 12.0912 19.204 11.664 19.5533 11.3184C19.9025 10.9728 20.3326 10.8 20.8438 10.8C21.3549 10.8 21.7856 10.9728 22.1361 11.3184C22.4865 11.664 22.6599 12.0912 22.6563 12.6C22.6526 13.1088 22.4786 13.5366 22.1342 13.8834C21.7899 14.2302 21.3597 14.4024 20.8438 14.4ZM9.51563 4.59C10.5427 5.01 11.4792 5.565 12.325 6.255C13.1708 6.945 13.8958 7.725 14.5 8.595C15.1042 7.725 15.8219 6.945 16.6533 6.255C17.4846 5.565 18.4132 5.01 19.4391 4.59C18.6839 4.26 17.8912 4.0122 17.0611 3.8466C16.2309 3.681 15.3773 3.5988 14.5 3.6C13.6228 3.6012 12.7697 3.684 11.9408 3.8484C11.1118 4.0128 10.3035 4.26 9.51563 4.59Z" fill="#4254BA"/>
</svg>
