<svg width="21" height="24" viewBox="0 0 21 24" fill="none" xmlns="http://www.w3.org/2000/svg">
<path d="M2.1 10.2857H18.9V2.57143C18.9 2.3441 18.7894 2.12608 18.5925 1.96534C18.3955 1.80459 18.1285 1.71429 17.85 1.71429H3.15C2.87152 1.71429 2.60445 1.80459 2.40754 1.96534C2.21062 2.12608 2.1 2.3441 2.1 2.57143V10.2857ZM2.1 12V21.4286C2.1 21.6559 2.21062 21.8739 2.40754 22.0347C2.60445 22.1954 2.87152 22.2857 3.15 22.2857H17.85C18.1285 22.2857 18.3955 22.1954 18.5925 22.0347C18.7894 21.8739 18.9 21.6559 18.9 21.4286V12H2.1ZM3.15 0H17.85C18.6854 0 19.4866 0.270918 20.0774 0.753154C20.6681 1.23539 21 1.88944 21 2.57143V21.4286C21 22.1106 20.6681 22.7646 20.0774 23.2468C19.4866 23.7291 18.6854 24 17.85 24H3.15C2.31457 24 1.51335 23.7291 0.922614 23.2468C0.331874 22.7646 0 22.1106 0 21.4286V2.57143C0 1.88944 0.331874 1.23539 0.922614 0.753154C1.51335 0.270918 2.31457 0 3.15 0ZM4.2 6H6.3V8.57143H4.2V6ZM4.2 13.7143H6.3V16.2857H4.2V13.7143Z" fill="#090900"/>
</svg>
