<svg width="23" height="26" viewBox="0 0 23 26" fill="none" xmlns="http://www.w3.org/2000/svg">
<path d="M20.25 25H2.75C2.28627 24.9985 1.84191 24.7873 1.514 24.4126C1.18609 24.0378 1.0013 23.53 1 23V3C1.0013 2.47002 1.18609 1.96218 1.514 1.58743C1.84191 1.21267 2.28627 1.00148 2.75 1H20.25C20.7137 1.00148 21.1581 1.21267 21.486 1.58743C21.8139 1.96218 21.9987 2.47002 22 3V23C21.9987 23.53 21.8139 24.0378 21.486 24.4126C21.1581 24.7873 20.7137 24.9985 20.25 25Z" stroke="#FDFDEF" stroke-width="1.5" stroke-linecap="round" stroke-linejoin="round"/>
<path d="M5.21622 8.13397V4L4 4.91866M6.43243 8.13397H4M6.43243 14.5646H4C4 14.5646 6.83784 12.7273 6.02703 11.3493C5.21622 9.97129 4 11.3493 4 11.3493M4 18.0096C4 18.0096 4.81081 16.6316 6.02703 17.5502C7.24324 18.4689 6.02703 19.6172 6.02703 19.6172M6.02703 19.6172C6.02703 19.6172 7.24324 20.7655 6.02703 21.6842C4.81081 22.6029 4 21.2249 4 21.2249M6.02703 19.6172H5.21622M10.0811 13.1866H19M10.0811 19.6172H19M10.0811 6.75598H19" stroke="#FDFDEF" stroke-width="1.5" stroke-linecap="round" stroke-linejoin="round"/>
</svg>
