<svg width="21" height="24" viewBox="0 0 21 24" fill="none" xmlns="http://www.w3.org/2000/svg">
<path d="M2.1 10.2857H18.9V2.57143C18.9 2.3441 18.7894 2.12608 18.5925 1.96534C18.3955 1.80459 18.1285 1.71429 17.85 1.71429H3.15C2.87152 1.71429 2.60445 1.80459 2.40754 1.96534C2.21062 2.12608 2.1 2.3441 2.1 2.57143V10.2857ZM2.1 12V21.4286C2.1 21.6559 2.21062 21.8739 2.40754 22.0347C2.60445 22.1954 2.87152 22.2857 3.15 22.2857H17.85C18.1285 22.2857 18.3955 22.1954 18.5925 22.0347C18.7894 21.8739 18.9 21.6559 18.9 21.4286V12H2.1ZM3.15 0H17.85C18.6854 0 19.4866 0.270918 20.0774 0.753154C20.6681 1.23539 21 1.88944 21 2.57143V21.4286C21 22.1106 20.6681 22.7646 20.0774 23.2468C19.4866 23.7291 18.6854 24 17.85 24H3.15C2.31457 24 1.51335 23.7291 0.922614 23.2468C0.331874 22.7646 0 22.1106 0 21.4286V2.57143C0 1.88944 0.331874 1.23539 0.922614 0.753154C1.51335 0.270918 2.31457 0 3.15 0ZM4.2 6H6.3V8.57143H4.2V6ZM4.2 13.7143H6.3V16.2857H4.2V13.7143Z" fill="#FDFDEF"/>
<path fill-rule="evenodd" clip-rule="evenodd" d="M9.17662 3.17781L9.42585 3H9.84246V4.6363H9.40677V3.43198L9.17662 3.58525V3.17781ZM10.8462 3.54543H17V4.09087H10.8462V3.54543ZM10.8462 5.72717H17V6.27261H10.8462V5.72717ZM17 7.90891H10.8462V8.45434H17V7.90891ZM10.072 6.06861L10.0898 6.04734L10.1298 5.99825C10.1947 5.91768 10.2284 5.82067 10.2258 5.72172C10.2258 5.65554 10.2142 5.59118 10.1908 5.52863C10.1673 5.46378 10.128 5.40431 10.0757 5.35444C10.0234 5.30457 9.95928 5.26553 9.888 5.2401C9.79987 5.20801 9.70508 5.19276 9.60985 5.19537C9.51315 5.19316 9.41704 5.20934 9.328 5.24283C9.25908 5.2693 9.19722 5.30833 9.14644 5.35739C9.09565 5.40644 9.05708 5.46441 9.03323 5.52754C9.01131 5.58425 9.00008 5.64377 9 5.70372V5.73099H9.49846V5.70372C9.49876 5.6734 9.50856 5.64375 9.52677 5.61808C9.53615 5.60631 9.54807 5.5963 9.56185 5.58863C9.57825 5.58125 9.59638 5.57741 9.61477 5.57741C9.63316 5.57741 9.65129 5.58125 9.66769 5.58863C9.68161 5.59731 9.69334 5.60845 9.70215 5.62136C9.71208 5.63467 9.71859 5.64975 9.72123 5.66554C9.7339 5.71898 9.72611 5.77464 9.69908 5.82371C9.67764 5.85858 9.65294 5.89178 9.62523 5.92298L9.00985 6.54369L9.00246 6.55078V6.84531H10.2258V6.46351H9.672L10.072 6.06861ZM10.0492 8.15054C10.0775 8.16799 10.1022 8.18872 10.1231 8.21272C10.1961 8.29889 10.2325 8.40511 10.2258 8.5127C10.2258 8.57161 10.2156 8.6287 10.1951 8.68397C10.1716 8.74654 10.1325 8.80359 10.0806 8.85082C10.0286 8.89806 9.96534 8.93425 9.89538 8.95669C9.80086 8.9874 9.70064 9.00201 9.6 8.99978C9.52862 8.99978 9.45867 8.99087 9.39015 8.97305C9.33388 8.95754 9.28041 8.93495 9.23138 8.90596C9.18849 8.87927 9.15068 8.84668 9.11938 8.80942C9.09091 8.77563 9.06696 8.73902 9.048 8.70033C9.01743 8.63587 9.00114 8.5668 9 8.49689V8.47016H9.50092V8.49689C9.50092 8.51179 9.50277 8.5267 9.50646 8.54161C9.50949 8.55603 9.51577 8.56976 9.52492 8.58197C9.53272 8.59386 9.54398 8.60366 9.55754 8.61034C9.57248 8.61681 9.58874 8.62053 9.60534 8.62128C9.62195 8.62203 9.63855 8.61979 9.65415 8.6147C9.66693 8.60941 9.67859 8.60222 9.68862 8.59343C9.70047 8.58161 9.70929 8.56766 9.71446 8.55252C9.72206 8.53025 9.72559 8.50705 9.72492 8.4838C9.72598 8.4537 9.7214 8.42366 9.71138 8.39489C9.70502 8.37832 9.69426 8.36336 9.68 8.35126C9.66931 8.34343 9.65664 8.338 9.64308 8.33544L9.59569 8.33162H9.49662V7.97981H9.6C9.61444 7.98004 9.62881 7.97801 9.64246 7.97382C9.65697 7.96987 9.67053 7.96358 9.68246 7.95527C9.69506 7.94504 9.70512 7.93259 9.712 7.91873C9.7214 7.89775 9.7258 7.87528 9.72492 7.85273C9.72515 7.83418 9.72182 7.81574 9.71508 7.79818C9.70996 7.78597 9.70201 7.77485 9.69172 7.76555C9.68144 7.75625 9.66906 7.74897 9.65538 7.74419C9.63991 7.73908 9.62344 7.73679 9.60695 7.73745C9.59045 7.7381 9.57428 7.74169 9.55938 7.748C9.54611 7.75562 9.53462 7.76544 9.52554 7.77691C9.50976 7.80312 9.50132 7.8323 9.50092 7.862V7.88873H9V7.862C9.00348 7.75564 9.04198 7.6525 9.11077 7.56528C9.14105 7.52641 9.17825 7.49214 9.22092 7.46383C9.26982 7.43199 9.32429 7.40748 9.38215 7.39129C9.45272 7.37166 9.52533 7.36238 9.6 7.36347C9.67138 7.36275 9.74195 7.36929 9.81169 7.38311C9.86831 7.39475 9.92226 7.41293 9.97354 7.43765C10.0575 7.47647 10.1261 7.53695 10.1705 7.6111C10.2071 7.66886 10.2262 7.73409 10.2258 7.80037C10.2314 7.90415 10.1949 8.00627 10.1231 8.08836C10.1018 8.11201 10.077 8.13293 10.0492 8.15054Z" fill="#FDFDEF"/>
<path d="M11.2099 16.0165C10.8758 16.0165 10.5906 15.9181 10.3544 15.7212C10.1181 15.5244 10 15.2866 10 15.0079C10 14.7297 10.1181 14.4922 10.3544 14.2953C10.5906 14.0984 10.8758 14 11.2099 14C11.544 14 11.8292 14.0984 12.0655 14.2953C12.3017 14.4922 12.4199 14.7298 12.4199 15.0083C12.4199 15.2867 12.3017 15.5244 12.0655 15.7212C11.8292 15.9181 11.544 16.0165 11.2099 16.0165ZM11.2095 15.6599C11.4263 15.6599 11.611 15.5965 11.7633 15.4698C11.9157 15.3431 11.9919 15.1893 11.9919 15.0086C11.9919 14.8279 11.9158 14.674 11.7637 14.5468C11.6117 14.4195 11.4272 14.3562 11.2104 14.3567C10.9935 14.3571 10.8089 14.4204 10.6565 14.5464C10.5042 14.6731 10.428 14.8269 10.428 15.0076C10.428 15.1883 10.504 15.3422 10.6561 15.4694C10.8079 15.5962 10.9924 15.6595 11.2095 15.6595M14.7901 19C14.4562 19 14.1711 18.9016 13.9345 18.7047C13.6985 18.5078 13.5806 18.2702 13.5806 17.9917C13.5806 17.7133 13.6985 17.4756 13.9345 17.2788C14.1705 17.0819 14.4558 16.9835 14.7905 16.9835C15.1252 16.9835 15.4102 17.0819 15.6456 17.2788C15.881 17.4756 15.9991 17.7133 16 17.9917C16.0009 18.2702 15.8827 18.5078 15.6456 18.7047C15.4085 18.9016 15.1233 19 14.7901 19ZM14.7901 18.6433C15.0069 18.6433 15.1915 18.58 15.3439 18.4532C15.496 18.3267 15.572 18.173 15.572 17.9921C15.572 17.8111 15.4961 17.6573 15.3443 17.5306C15.1925 17.4038 15.0081 17.3403 14.7909 17.3401C14.5738 17.3399 14.389 17.4032 14.2367 17.5302C14.0846 17.6567 14.0086 17.8104 14.0086 17.9914C14.0086 18.1723 14.0845 18.3262 14.2362 18.4529C14.388 18.5796 14.5729 18.6431 14.7901 18.6433ZM10.2337 18.8053C10.1937 18.772 10.1738 18.7306 10.1738 18.6811C10.1738 18.6317 10.1937 18.5913 10.2337 18.5599L15.48 14.188C15.5199 14.1547 15.5677 14.1391 15.6234 14.1412C15.6787 14.1436 15.7264 14.1614 15.7663 14.1947C15.8063 14.228 15.8262 14.2693 15.8262 14.3185C15.8262 14.3677 15.8063 14.4083 15.7663 14.4401L10.5204 18.812C10.4802 18.8453 10.4324 18.8608 10.3771 18.8584C10.3214 18.8563 10.2736 18.8384 10.2337 18.8049" fill="#FDFDEF"/>
</svg>
