<svg width="27" height="27" viewBox="0 0 27 27" fill="none" xmlns="http://www.w3.org/2000/svg">
<path d="M3.02703 6.74163V1L1 2.27592M5.05405 6.74163H1M5.05405 15.673H1C1 15.673 5.72973 13.1212 4.37838 11.2073C3.02703 9.29346 1 11.2073 1 11.2073M1 20.4577C1 20.4577 2.35135 18.5439 4.37838 19.8198C6.40541 21.0957 4.37838 22.6906 4.37838 22.6906M4.37838 22.6906C4.37838 22.6906 6.40541 24.2855 4.37838 25.5614C2.35135 26.8373 1 24.9234 1 24.9234M4.37838 22.6906H3.02703M11.1351 13.7592H26M11.1351 22.6906H26M11.1351 4.82775H26" stroke="black" stroke-width="1.5" stroke-linecap="round" stroke-linejoin="round"/>
</svg>
