<svg width="20" height="21" viewBox="0 0 20 21" fill="none" xmlns="http://www.w3.org/2000/svg">
<path d="M1 21V19.2662C1 17.3222 3.37011 15.746 5.74021 15.746C8.55872 17.69 11.3772 17.69 14.2598 15.746C16.6299 15.746 19 17.3222 19 19.2662V21" fill="#92D3F5"/>
<path d="M2.98577 5.44807C3.37011 0.877025 7.59787 0.824485 9.71174 1.08719C9.90392 1.13973 10.4804 1.08719 10.6726 1.08719C14.516 0.666863 16.4377 4.23963 16.4377 5.81586C16.4377 6.39381 16.4377 7.81241 15.4769 8.60052C15.4769 8.60052 13.2989 6.39381 13.1708 5.13283C13.1708 5.13283 5.86833 7.39208 5.35587 5.44807C5.35587 5.44807 4.84342 7.0243 4.39502 7.44462V9.02085C4.39502 9.02085 2.79359 7.44462 2.98577 5.44807Z" fill="#A57939"/>
<path d="M13.1708 5.13257C13.1708 5.13257 5.86833 7.39182 5.35587 5.44781C5.35587 5.44781 4.84342 7.02404 4.39502 7.44436V9.02059C4.77936 11.9103 7.08541 14.1696 9.90392 14.1696C12.8505 14.1696 15.2847 11.7002 15.4769 8.60026C15.2847 8.3901 13.2989 6.34101 13.1708 5.13257Z" fill="#FCEA2B"/>
<path d="M15.4769 7.91748V8.28527C15.4769 11.5428 12.9786 14.2224 9.90392 14.2224C6.82918 14.2224 4.33096 11.5428 4.33096 8.28527V7.91748" stroke="black" stroke-width="0.333333" stroke-miterlimit="10"/>
<path d="M2.98578 5.44771C3.37012 0.876659 7.59788 0.824119 9.71176 1.08682C9.90393 1.13936 10.4804 1.08682 10.6726 1.08682C14.516 0.666497 16.4377 4.23927 16.4377 5.81549C16.4377 6.39344 16.4377 7.81204 15.4769 8.60015C15.4769 8.60015 13.2989 6.39344 13.1708 5.13246C13.1708 5.13246 5.86834 7.39171 5.35589 5.44771C5.35589 5.44771 4.84343 7.02393 4.39503 7.44426V9.02048C4.39503 9.02048 2.79361 7.44426 2.98578 5.44771Z" stroke="black" stroke-width="0.333333" stroke-linecap="round" stroke-linejoin="round"/>
<path d="M1 20.4746V19.2662C1 17.3222 3.37011 15.746 5.74021 15.746C8.55872 17.69 11.3772 17.69 14.2598 15.746C16.6299 15.746 19 17.3222 19 19.2662V20.4746" stroke="black" stroke-width="0.333333" stroke-linecap="round" stroke-linejoin="round"/>
<path d="M12.6584 8.60032C12.6584 9.02064 12.274 9.33589 11.7616 9.33589C11.2491 9.33589 10.8648 9.02064 10.8648 8.60032C10.8648 8.17999 11.2491 7.86475 11.7616 7.86475C12.274 7.86475 12.6584 8.23253 12.6584 8.60032ZM9.07117 8.60032C9.07117 9.02064 8.68683 9.33589 8.17437 9.33589C7.66191 9.33589 7.27757 9.02064 7.27757 8.60032C7.27757 8.17999 7.66191 7.86475 8.17437 7.86475C8.68683 7.86475 9.07117 8.23253 9.07117 8.60032Z" fill="black"/>
<path d="M8.62276 11.6476C9.4555 12.0154 10.4804 12.0154 11.3132 11.6476" stroke="black" stroke-width="0.333333" stroke-linecap="round" stroke-linejoin="round"/>
</svg>
