<svg width="23" height="24" viewBox="0 0 23 24" fill="none" xmlns="http://www.w3.org/2000/svg">
<path d="M7.41667 1V9.925ZM15.5833 1V9.925ZM18.402 1.0126H4.598C3.53517 1.0126 2.12817 0.8467 1.40133 1.7308C1 2.21905 1 2.92465 1 4.3369C1 5.54125 1 6.1429 1.27067 6.6511C1.73267 7.51735 2.76633 7.89325 3.65067 8.30275L7.979 10.302C9.7045 11.101 10.569 11.5 11.5 11.5C12.431 11.5 13.2932 11.101 15.0222 10.303L19.3482 8.30275C20.2348 7.89325 21.2673 7.51735 21.7293 6.6511C22 6.14395 22 5.54125 22 4.3369C22 2.92465 22 2.21905 21.5987 1.7308C20.8718 0.8467 19.4648 1.0126 18.402 1.0126Z" fill="#E82020"/>
<path d="M7.41667 1V9.925M15.5833 1V9.925M18.402 1.0126H4.598C3.53517 1.0126 2.12817 0.8467 1.40133 1.7308C1 2.21905 1 2.92465 1 4.3369C1 5.54125 1 6.1429 1.27067 6.6511C1.73267 7.51735 2.76633 7.89325 3.65067 8.30275L7.979 10.302C9.7045 11.101 10.569 11.5 11.5 11.5C12.431 11.5 13.2932 11.101 15.0222 10.303L19.3482 8.30275C20.2348 7.89325 21.2673 7.51735 21.7293 6.6511C22 6.14395 22 5.54125 22 4.3369C22 2.92465 22 2.21905 21.5987 1.7308C20.8718 0.8467 19.4648 1.0126 18.402 1.0126Z" stroke="#FFD700" stroke-width="1.5" stroke-linecap="round" stroke-linejoin="round"/>
<path d="M12.5881 13.2586L13.6969 15.1217C13.7912 15.2614 13.9197 15.3831 14.0741 15.4787C14.2284 15.5744 14.4052 15.642 14.5929 15.677L16.602 15.957C17.8859 16.1378 18.1883 16.9206 17.2629 17.6941L15.7004 19.0065C15.5637 19.1356 15.4633 19.2884 15.4067 19.4539C15.35 19.6195 15.3384 19.7934 15.3728 19.9632L15.8208 21.5894C16.1736 22.875 15.3602 23.3732 14.0063 22.7L12.1232 21.7632C11.7816 21.5941 11.2216 21.5941 10.8758 21.7632L8.99127 22.7C7.64301 23.3732 6.82396 22.8704 7.17678 21.5894L7.62481 19.9643C7.65941 19.7944 7.64795 19.6202 7.59126 19.4545C7.53457 19.2888 7.43409 19.1357 7.29719 19.0065L5.73471 17.6941C4.81487 16.9206 5.11168 16.1378 6.39554 15.9581L8.40604 15.6782C8.59238 15.6421 8.76761 15.574 8.92047 15.4781C9.07334 15.3823 9.20046 15.2609 9.29369 15.1217L10.4025 13.2586C11.0074 12.2471 11.9902 12.2471 12.5881 13.2586Z" fill="#FFD700" stroke="#FFD700" stroke-width="1.5" stroke-linecap="round" stroke-linejoin="round"/>
</svg>
