<svg width="21" height="24" viewBox="0 0 21 24" fill="none" xmlns="http://www.w3.org/2000/svg">
<path d="M17.7357 24L17.7357 18.84C18.7694 17.8 19.5717 16.5852 20.1426 15.1956C20.7135 13.806 20.9993 12.3408 21 10.8C21 7.8 20.0479 5.25 18.1438 3.15C16.2396 1.05 13.9275 -6.18301e-07 11.2073 -8.56109e-07C8.94042 -1.05428e-06 6.93181 0.735199 5.18145 2.2056C3.43109 3.676 2.29332 5.5908 1.76814 7.95L1.61211e-06 15.6L3.59067 15.6L3.59067 21.6L7.943 21.6L7.943 24L10.1192 24L10.1192 19.2L5.76684 19.2L5.76684 13.2L2.82902 13.2L3.8627 8.55C4.27979 6.73 5.1684 5.25 6.5285 4.11C7.8886 2.97 9.44819 2.4 11.2073 2.4C13.3109 2.4 15.1062 3.21 16.5933 4.83C18.0803 6.45 18.8238 8.42 18.8238 10.74C18.8238 11.94 18.6015 13.08 18.1568 14.16C17.7122 15.24 17.0822 16.2 16.2668 17.04L15.5596 17.76L15.5596 24L17.7357 24ZM12.2953 14.4L10.1192 14.4L10.1192 6L12.2953 6L12.2953 14.4ZM9.03109 12.6L6.85492 12.6L6.85492 7.2L9.03109 7.2L9.03109 12.6ZM15.5596 12L13.3834 12L13.3834 7.2L15.5596 7.2L15.5596 12Z" fill="#FDFDEF"/>
</svg>
