<svg width="72" height="65" viewBox="0 0 72 65" fill="none" xmlns="http://www.w3.org/2000/svg">
<path opacity="0.7" d="M63.4324 1H8.56757C6.56052 1 4.63568 1.71757 3.21649 2.99484C1.79729 4.27211 1 6.00447 1 7.81081V57.1892C1 58.9955 1.79729 60.7279 3.21649 62.0052C4.63568 63.2824 6.56052 64 8.56757 64H63.4324C65.4395 64 67.3643 63.2824 68.7835 62.0052C70.2027 60.7279 71 58.9955 71 57.1892V7.81081C71 6.00447 70.2027 4.27211 68.7835 2.99484C67.3643 1.71757 65.4395 1 63.4324 1Z" stroke="black" stroke-width="1.5" stroke-linecap="round" stroke-linejoin="round"/>
<path d="M46.827 32.635C46.0463 32.635 45.38 32.359 44.828 31.807C44.276 31.255 44 30.5883 44 29.807C44 29.027 44.276 28.361 44.828 27.809C45.38 27.257 46.0463 26.981 46.827 26.981C47.6077 26.981 48.274 27.257 48.826 27.809C49.378 28.361 49.654 29.0273 49.654 29.808C49.654 30.5886 49.378 31.255 48.826 31.807C48.274 32.359 47.6077 32.635 46.827 32.635ZM46.826 31.635C47.3327 31.635 47.764 31.4573 48.12 31.102C48.476 30.7466 48.654 30.3156 48.654 29.809C48.654 29.3023 48.4763 28.8706 48.121 28.514C47.7657 28.1573 47.3347 27.9796 46.828 27.981C46.3213 27.9823 45.89 28.1596 45.534 28.513C45.178 28.8683 45 29.2993 45 29.806C45 30.3126 45.1777 30.7443 45.533 31.101C45.8877 31.4563 46.3187 31.634 46.826 31.634M55.192 41C54.412 41 53.7457 40.724 53.193 40.172C52.6417 39.62 52.366 38.9536 52.366 38.173C52.366 37.3923 52.6417 36.726 53.193 36.174C53.7443 35.622 54.411 35.346 55.193 35.346C55.975 35.346 56.641 35.622 57.191 36.174C57.741 36.726 58.017 37.3923 58.019 38.173C58.021 38.9536 57.745 39.62 57.191 40.172C56.637 40.724 55.9707 41 55.192 41ZM55.192 40C55.6987 40 56.13 39.8223 56.486 39.467C56.8413 39.1123 57.019 38.6813 57.019 38.174C57.019 37.6666 56.8417 37.2353 56.487 36.88C56.1323 36.5246 55.7013 36.3466 55.194 36.346C54.6867 36.3453 54.255 36.523 53.899 36.879C53.5437 37.2336 53.366 37.6646 53.366 38.172C53.366 38.6793 53.5433 39.1106 53.898 39.466C54.2527 39.8213 54.6847 39.9993 55.192 40ZM44.881 40.808L44.192 40.119L57.14 27.173L57.828 27.861L44.881 40.808Z" fill="black"/>
<path d="M31 29.75V37.25C31 38.2446 31.4214 39.1984 32.1716 39.9016C32.9217 40.6049 33.9391 41 35 41C36.0609 41 37.0783 40.6049 37.8284 39.9016C38.5786 39.1984 39 38.2446 39 37.25V29.75C39 28.7554 38.5786 27.8016 37.8284 27.0984C37.0783 26.3951 36.0609 26 35 26C33.9391 26 32.9217 26.3951 32.1716 27.0984C31.4214 27.8016 31 28.7554 31 29.75Z" stroke="black" stroke-width="2" stroke-linecap="round" stroke-linejoin="round"/>
<path d="M19 29.75V37.25C19 38.2446 19.4214 39.1984 20.1716 39.9016C20.9217 40.6049 21.9391 41 23 41C24.0609 41 25.0783 40.6049 25.8284 39.9016C26.5786 39.1984 27 38.2446 27 37.25V29.75C27 28.7554 26.5786 27.8016 25.8284 27.0984C25.0783 26.3951 24.0609 26 23 26C21.9391 26 20.9217 26.3951 20.1716 27.0984C19.4214 27.8016 19 28.7554 19 29.75Z" stroke="black" stroke-width="2" stroke-linecap="round" stroke-linejoin="round"/>
<path d="M13 41V26L10 28.8125" stroke="black" stroke-width="2" stroke-linecap="round" stroke-linejoin="round"/>
</svg>
