<svg width="72" height="65" viewBox="0 0 72 65" fill="none" xmlns="http://www.w3.org/2000/svg">
<path opacity="0.7" d="M63.4324 1H8.56757C6.56052 1 4.63568 1.71757 3.21649 2.99484C1.79729 4.27211 1 6.00447 1 7.81081V57.1892C1 58.9955 1.79729 60.7279 3.21649 62.0052C4.63568 63.2824 6.56052 64 8.56757 64H63.4324C65.4395 64 67.3643 63.2824 68.7835 62.0052C70.2027 60.7279 71 58.9955 71 57.1892V7.81081C71 6.00447 70.2027 4.27211 68.7835 2.99484C67.3643 1.71757 65.4395 1 63.4324 1Z" stroke="black" stroke-width="1.5" stroke-linecap="round" stroke-linejoin="round"/>
<path d="M47.827 31.635C47.0463 31.635 46.38 31.359 45.828 30.807C45.276 30.255 45 29.5884 45 28.807C45 28.027 45.276 27.361 45.828 26.809C46.38 26.257 47.0463 25.981 47.827 25.981C48.6077 25.981 49.274 26.257 49.826 26.809C50.378 27.361 50.654 28.0274 50.654 28.808C50.654 29.5887 50.378 30.255 49.826 30.807C49.274 31.359 48.6077 31.635 47.827 31.635ZM47.826 30.635C48.3327 30.635 48.764 30.4574 49.12 30.102C49.476 29.7467 49.654 29.3157 49.654 28.809C49.654 28.3024 49.4763 27.8707 49.121 27.514C48.7657 27.1574 48.3347 26.9797 47.828 26.981C47.3213 26.9824 46.89 27.1597 46.534 27.513C46.178 27.8684 46 28.2994 46 28.806C46 29.3127 46.1777 29.7444 46.533 30.101C46.8877 30.4564 47.3187 30.634 47.826 30.634M56.192 40C55.412 40 54.7457 39.724 54.193 39.172C53.6417 38.62 53.366 37.9537 53.366 37.173C53.366 36.3924 53.6417 35.726 54.193 35.174C54.7443 34.622 55.411 34.346 56.193 34.346C56.975 34.346 57.641 34.622 58.191 35.174C58.741 35.726 59.017 36.3924 59.019 37.173C59.021 37.9537 58.745 38.62 58.191 39.172C57.637 39.724 56.9707 40 56.192 40ZM56.192 39C56.6987 39 57.13 38.8224 57.486 38.467C57.8413 38.1124 58.019 37.6814 58.019 37.174C58.019 36.6667 57.8417 36.2354 57.487 35.88C57.1323 35.5247 56.7013 35.3467 56.194 35.346C55.6867 35.3454 55.255 35.523 54.899 35.879C54.5437 36.2337 54.366 36.6647 54.366 37.172C54.366 37.6794 54.5433 38.1107 54.898 38.466C55.2527 38.8214 55.6847 38.9994 56.192 39ZM45.881 39.808L45.192 39.119L58.14 26.173L58.828 26.861L45.881 39.808Z" fill="black"/>
<path d="M17 25H19V40M29 28.75V36.25C29 37.2446 29.4214 38.1984 30.1716 38.9016C30.9217 39.6049 31.9391 40 33 40C34.0609 40 35.0783 39.6049 35.8284 38.9016C36.5786 38.1984 37 37.2446 37 36.25V28.75C37 27.7554 36.5786 26.8016 35.8284 26.0984C35.0783 25.3951 34.0609 25 33 25C31.9391 25 30.9217 25.3951 30.1716 26.0984C29.4214 26.8016 29 27.7554 29 28.75Z" stroke="black" stroke-width="2" stroke-linecap="round" stroke-linejoin="round"/>
</svg>
