<svg width="72" height="65" viewBox="0 0 72 65" fill="none" xmlns="http://www.w3.org/2000/svg">
<path opacity="0.7" d="M63.4324 1H8.56757C6.56052 1 4.63568 1.71757 3.21649 2.99484C1.79729 4.27211 1 6.00447 1 7.81081V57.1892C1 58.9955 1.79729 60.7279 3.21649 62.0052C4.63568 63.2824 6.56052 64 8.56757 64H63.4324C65.4395 64 67.3643 63.2824 68.7835 62.0052C70.2027 60.7279 71 58.9955 71 57.1892V7.81081C71 6.00447 70.2027 4.27211 68.7835 2.99484C67.3643 1.71757 65.4395 1 63.4324 1Z" stroke="black" stroke-width="1.5" stroke-linecap="round" stroke-linejoin="round"/>
<path d="M46.827 32.635C46.0463 32.635 45.38 32.359 44.828 31.807C44.276 31.255 44 30.5883 44 29.807C44 29.027 44.276 28.361 44.828 27.809C45.38 27.257 46.0463 26.981 46.827 26.981C47.6077 26.981 48.274 27.257 48.826 27.809C49.378 28.361 49.654 29.0273 49.654 29.808C49.654 30.5886 49.378 31.255 48.826 31.807C48.274 32.359 47.6077 32.635 46.827 32.635ZM46.826 31.635C47.3327 31.635 47.764 31.4573 48.12 31.102C48.476 30.7466 48.654 30.3156 48.654 29.809C48.654 29.3023 48.4763 28.8706 48.121 28.514C47.7657 28.1573 47.3347 27.9796 46.828 27.981C46.3213 27.9823 45.89 28.1596 45.534 28.513C45.178 28.8683 45 29.2993 45 29.806C45 30.3126 45.1777 30.7443 45.533 31.101C45.8877 31.4563 46.3187 31.634 46.826 31.634M55.192 41C54.412 41 53.7457 40.724 53.193 40.172C52.6417 39.62 52.366 38.9536 52.366 38.173C52.366 37.3923 52.6417 36.726 53.193 36.174C53.7443 35.622 54.411 35.346 55.193 35.346C55.975 35.346 56.641 35.622 57.191 36.174C57.741 36.726 58.017 37.3923 58.019 38.173C58.021 38.9536 57.745 39.62 57.191 40.172C56.637 40.724 55.9707 41 55.192 41ZM55.192 40C55.6987 40 56.13 39.8223 56.486 39.467C56.8413 39.1123 57.019 38.6813 57.019 38.174C57.019 37.6666 56.8417 37.2353 56.487 36.88C56.1323 36.5246 55.7013 36.3466 55.194 36.346C54.6867 36.3453 54.255 36.523 53.899 36.879C53.5437 37.2336 53.366 37.6646 53.366 38.172C53.366 38.6793 53.5433 39.1106 53.898 39.466C54.2527 39.8213 54.6847 39.9993 55.192 40ZM44.881 40.808L44.192 40.119L57.14 27.173L57.828 27.861L44.881 40.808Z" fill="black"/>
<path d="M16 39.125C16 39.6223 16.1756 40.0992 16.4882 40.4508C16.8007 40.8025 17.2246 41 17.6667 41H21C21.442 41 21.866 40.8025 22.1785 40.4508C22.4911 40.0992 22.6667 39.6223 22.6667 39.125V27.875C22.6667 27.3777 22.4911 26.9008 22.1785 26.5492C21.866 26.1975 21.442 26 21 26H17.6667C17.2246 26 16.8007 26.1975 16.4882 26.5492C16.1756 26.9008 16 27.3777 16 27.875V31.625C16 32.1223 16.1756 32.5992 16.4882 32.9508C16.8007 33.3025 17.2246 33.5 17.6667 33.5H22.6667M29.3333 29.75V37.25C29.3333 38.2446 29.6845 39.1984 30.3096 39.9016C30.9348 40.6049 31.7826 41 32.6667 41C33.5507 41 34.3986 40.6049 35.0237 39.9016C35.6488 39.1984 36 38.2446 36 37.25V29.75C36 28.7554 35.6488 27.8016 35.0237 27.0984C34.3986 26.3951 33.5507 26 32.6667 26C31.7826 26 30.9348 26.3951 30.3096 27.0984C29.6845 27.8016 29.3333 28.7554 29.3333 29.75Z" stroke="black" stroke-width="2" stroke-linecap="round" stroke-linejoin="round"/>
</svg>
