<svg width="20" height="21" viewBox="0 0 20 21" fill="none" xmlns="http://www.w3.org/2000/svg">
<path d="M10.6923 1H3.76923C3.40201 1 3.04983 1.15398 2.79016 1.42807C2.53049 1.70217 2.38462 2.07391 2.38462 2.46154V15.6154L1 20L6.53846 18.5385H17.6154C17.9826 18.5385 18.3348 18.3845 18.5945 18.1104C18.8541 17.8363 19 17.4645 19 17.0769V9.76923" stroke="black" stroke-width="0.857143" stroke-linecap="round" stroke-linejoin="round"/>
<path d="M11.8872 12.1617L7.73338 12.9509L8.42569 8.50782L14.9749 1.62397C15.1036 1.48698 15.2568 1.37825 15.4255 1.30405C15.5942 1.22985 15.7752 1.19165 15.958 1.19165C16.1408 1.19165 16.3218 1.22985 16.4905 1.30405C16.6592 1.37825 16.8124 1.48698 16.9411 1.62397L18.4088 3.1732C18.5385 3.30907 18.6416 3.47072 18.7118 3.64882C18.7821 3.82692 18.8183 4.01795 18.8183 4.21089C18.8183 4.40383 18.7821 4.59487 18.7118 4.77297C18.6416 4.95107 18.5385 5.11272 18.4088 5.24859L11.8872 12.1617Z" stroke="black" stroke-width="0.857143" stroke-linecap="round" stroke-linejoin="round"/>
</svg>
