<svg width="25" height="23" viewBox="0 0 25 23" fill="none" xmlns="http://www.w3.org/2000/svg">
<path d="M6.64374 9.90831C7.14749 6.88458 9.60856 4.59998 12.5578 4.59998C14.3088 4.59998 15.8866 5.40391 16.9851 6.68779C17.0594 6.77454 17.1172 6.87626 17.1551 6.98715C17.1931 7.09805 17.2105 7.21594 17.2063 7.3341C17.2022 7.45226 17.1765 7.56838 17.1308 7.67582C17.0852 7.78326 17.0204 7.87992 16.9401 7.96028C16.8599 8.04064 16.7659 8.10313 16.6633 8.14418C16.5608 8.18523 16.4518 8.20404 16.3425 8.19953C16.2332 8.19501 16.1258 8.16727 16.0265 8.11788C15.9271 8.0685 15.8377 7.99843 15.7634 7.91169C15.3551 7.43367 14.8594 7.05249 14.3078 6.79225C13.7563 6.53202 13.1607 6.39839 12.5589 6.39982C11.5941 6.39621 10.6556 6.74054 9.89198 7.37835C9.12834 8.01616 8.58312 8.91105 8.34252 9.92151L8.60549 9.65033C8.76601 9.49307 8.9769 9.40968 9.19337 9.41789C9.40983 9.42609 9.61481 9.52523 9.76476 9.69426C9.91471 9.86328 9.99781 10.0889 9.9964 10.3231C9.995 10.5573 9.9092 10.7817 9.75724 10.9486L7.95749 12.8157C7.87663 12.8994 7.78096 12.9647 7.67622 13.0075C7.57148 13.0504 7.45982 13.0699 7.34793 13.065C7.23604 13.0601 7.12622 13.0308 7.02505 12.9788C6.92388 12.9269 6.83343 12.8535 6.75914 12.7629L5.23013 10.8958C5.15289 10.8083 5.09277 10.7048 5.05336 10.5916C5.01394 10.4784 4.99604 10.3577 5.00073 10.2368C5.00542 10.116 5.0326 9.99736 5.08064 9.8881C5.12868 9.77884 5.19661 9.68118 5.28035 9.60095C5.36409 9.52073 5.46193 9.45958 5.56802 9.42118C5.67411 9.38277 5.78627 9.3679 5.8978 9.37744C6.00933 9.38697 6.11793 9.42073 6.21712 9.47669C6.31631 9.53265 6.40405 9.60967 6.47508 9.70313L6.64374 9.90831ZM17.6686 9.93471C17.7803 9.93962 17.8899 9.96882 17.991 10.0206C18.092 10.0723 18.1824 10.1455 18.2567 10.2359L19.7901 12.1017C19.8627 12.1901 19.9184 12.2931 19.9542 12.4048C19.99 12.5165 20.005 12.6347 19.9985 12.7527C19.992 12.8707 19.9641 12.9862 19.9164 13.0925C19.8686 13.1988 19.802 13.2939 19.7202 13.3724C19.6385 13.4509 19.5432 13.5112 19.4399 13.5498C19.3367 13.5885 19.2273 13.6048 19.1182 13.5978C19.0091 13.5908 18.9023 13.5606 18.804 13.5089C18.7057 13.4573 18.6177 13.3852 18.5452 13.2968L18.3732 13.0868C17.8694 16.1142 15.3962 18.4 12.4369 18.4C11.6095 18.4012 10.7906 18.2187 10.031 17.864C9.27139 17.5092 8.58719 16.9896 8.02074 16.3374C7.94153 16.2522 7.87898 16.1506 7.83683 16.0388C7.79468 15.9269 7.77378 15.807 7.77539 15.6863C7.77699 15.5655 7.80106 15.4463 7.84617 15.3358C7.89128 15.2253 7.95649 15.1257 8.03793 15.043C8.11937 14.9604 8.21537 14.8963 8.3202 14.8546C8.42504 14.8129 8.53656 14.7944 8.64813 14.8003C8.75969 14.8062 8.86902 14.8364 8.96959 14.8889C9.07016 14.9415 9.15992 15.0154 9.23352 15.1063C9.64458 15.5793 10.1411 15.956 10.6923 16.2129C11.2436 16.4699 11.8377 16.6017 12.438 16.6001C13.4046 16.6048 14.3451 16.2617 15.1115 15.6248C15.8779 14.9878 16.4265 14.0933 16.6711 13.082L16.4159 13.3484C16.337 13.4304 16.2441 13.4947 16.1422 13.5378C16.0404 13.5809 15.9317 13.6018 15.8224 13.5995C15.7131 13.5971 15.6053 13.5715 15.5051 13.5241C15.4049 13.4767 15.3144 13.4085 15.2386 13.3232C15.1628 13.238 15.1033 13.1374 15.0635 13.0273C15.0237 12.9172 15.0043 12.7997 15.0064 12.6815C15.0086 12.5632 15.0323 12.4466 15.0761 12.3383C15.1199 12.23 15.1831 12.1321 15.2619 12.0501L17.0594 10.1843C17.1401 10.1007 17.2355 10.0355 17.34 9.9926C17.4444 9.94972 17.5569 9.93004 17.6686 9.93471Z" fill="black"/>
<path fill-rule="evenodd" clip-rule="evenodd" d="M12.4337 0C9.74884 0 7.64535 6.37631e-08 6.00349 0.203256C4.32442 0.410791 2.99884 0.845116 1.95814 1.80149C0.917442 2.75893 0.446512 3.97847 0.22093 5.52428C6.93077e-08 7.03372 0 8.96893 0 11.439V11.561C0 14.0311 6.93077e-08 15.9663 0.22093 17.4768C0.446512 19.0215 0.918605 20.2411 1.95814 21.1985C2.99884 22.156 4.32442 22.5892 6.00465 22.7967C7.64535 23 9.74884 23 12.4337 23H12.5663C15.2512 23 17.3547 23 18.9965 22.7967C20.6756 22.5892 22.0012 22.1549 23.0419 21.1985C24.0826 20.2411 24.5535 19.0215 24.7791 17.4757C25 15.9663 25 14.0311 25 11.561V11.439C25 8.96893 25 7.03372 24.7791 5.52321C24.5535 3.97847 24.0814 2.75893 23.0419 1.80149C22.0012 0.844047 20.6756 0.410791 18.9953 0.203256C17.3547 6.37631e-08 15.2512 0 12.5663 0H12.4337ZM3.19186 2.93651C3.85465 2.32674 4.75 1.97693 6.23721 1.79293C7.74884 1.60679 9.73488 1.60465 12.5 1.60465C15.2651 1.60465 17.2512 1.60679 18.7628 1.79293C20.25 1.97693 21.1465 2.32781 21.8093 2.93651C22.4709 3.54628 22.8512 4.37 23.0512 5.73823C23.2535 7.12893 23.2558 8.95609 23.2558 11.5C23.2558 14.0439 23.2535 15.8711 23.0512 17.2618C22.8512 18.63 22.4698 19.4548 21.8081 20.0646C21.1453 20.6733 20.25 21.0231 18.7628 21.2071C17.2512 21.3932 15.2651 21.3953 12.5 21.3953C9.73488 21.3953 7.74884 21.3932 6.23721 21.2071C4.75 21.0231 3.85349 20.6722 3.1907 20.0635C2.52907 19.4537 2.14884 18.63 1.94884 17.2618C1.74651 15.8711 1.74419 14.0439 1.74419 11.5C1.74419 8.95609 1.74651 7.12893 1.94884 5.73823C2.14884 4.37 2.53023 3.54628 3.19186 2.93651Z" fill="black"/>
</svg>
