<svg width="7" height="7" viewBox="0 0 7 7" fill="none" xmlns="http://www.w3.org/2000/svg">
<g clip-path="url(#clip0_790_2070)">
<path d="M3.5 1.75L3.18719 2.05472L4.40781 3.28125H1.75V3.71875H4.40781L3.18719 4.93784L3.5 5.25L5.25 3.5L3.5 1.75Z" fill="black"/>
<path d="M3.5 6.5625C2.8943 6.5625 2.30219 6.38289 1.79857 6.04638C1.29494 5.70986 0.902414 5.23157 0.67062 4.67197C0.438827 4.11237 0.378179 3.4966 0.496346 2.90254C0.614514 2.30847 0.906188 1.76279 1.33449 1.33449C1.76279 0.906188 2.30847 0.614514 2.90254 0.496346C3.4966 0.378179 4.11237 0.438827 4.67197 0.67062C5.23157 0.902414 5.70986 1.29494 6.04638 1.79857C6.38289 2.30219 6.5625 2.8943 6.5625 3.5C6.56157 4.31194 6.23862 5.09036 5.66449 5.66449C5.09036 6.23862 4.31194 6.56157 3.5 6.5625ZM3.5 0.875001C2.98083 0.875001 2.47331 1.02895 2.04163 1.31739C1.60995 1.60583 1.2735 2.0158 1.07482 2.49546C0.876138 2.97511 0.824154 3.50291 0.92544 4.01211C1.02673 4.52131 1.27673 4.98904 1.64385 5.35616C2.01096 5.72327 2.47869 5.97328 2.98789 6.07456C3.49709 6.17585 4.02489 6.12386 4.50454 5.92518C4.9842 5.7265 5.39417 5.39005 5.68261 4.95837C5.97105 4.52669 6.125 4.01918 6.125 3.5C6.12419 2.80406 5.84737 2.13685 5.35526 1.64474C4.86315 1.15263 4.19595 0.875812 3.5 0.875001Z" fill="black"/>
</g>
<defs>
<clipPath id="clip0_790_2070">
<rect width="7" height="7" fill="white"/>
</clipPath>
</defs>
</svg>
