<svg width="12" height="12" viewBox="0 0 12 12" fill="none" xmlns="http://www.w3.org/2000/svg">
<g clip-path="url(#clip0_789_2066)">
<path d="M6 11.5714C7.47764 11.5714 8.89475 10.9845 9.9396 9.93961C10.9844 8.89477 11.5714 7.47765 11.5714 6.00002C11.5714 4.52238 10.9844 3.10527 9.9396 2.06042C8.89475 1.01558 7.47764 0.428589 6 0.428589C4.52237 0.428589 3.10525 1.01558 2.06041 2.06042C1.01556 3.10527 0.428574 4.52238 0.428574 6.00002C0.428574 7.47765 1.01556 8.89477 2.06041 9.93961C3.10525 10.9845 4.52237 11.5714 6 11.5714Z" stroke="black" stroke-width="0.5" stroke-linecap="round" stroke-linejoin="round"/>
<path d="M6.94114 2.48743L6.47143 4.24286L7.956 3.38571M2.48743 5.05886L4.24371 5.52943L2.75914 6.38657M7.71428 8.96914C8.40307 8.57131 8.90567 7.91621 9.11157 7.1479C9.31747 6.37959 9.20982 5.56096 8.81228 4.872L3.61628 7.872C4.01441 8.56073 4.66978 9.06313 5.43828 9.26871C6.20677 9.4743 7.02546 9.36709 7.71428 8.96914Z" stroke="black" stroke-width="0.5" stroke-linecap="round" stroke-linejoin="round"/>
</g>
<defs>
<clipPath id="clip0_789_2066">
<rect width="12" height="12" fill="white"/>
</clipPath>
</defs>
</svg>
