<svg width="12" height="12" viewBox="0 0 12 12" fill="none" xmlns="http://www.w3.org/2000/svg">
<g clip-path="url(#clip0_789_2057)">
<path d="M6.00035 0C2.69161 0 0 2.69146 0 6C0 9.30854 2.69196 12 6.00035 12C9.30873 12 12 9.30819 12 6C12 2.69181 9.30873 0 6.00035 0ZM6.00035 11.4803C2.97817 11.4803 0.51975 9.02165 0.51975 6C0.51975 2.97835 2.97817 0.51972 6.00035 0.51972C9.02217 0.51972 11.4802 2.97835 11.4802 6C11.4802 9.02165 9.02217 11.4803 6.00035 11.4803Z" fill="black"/>
<path d="M7.9416 7.09648L7.7712 6.98968C7.75879 6.98159 7.74485 6.97613 7.73024 6.97365C7.71564 6.97118 7.70068 6.97173 7.6863 6.97528C7.67192 6.97853 7.65834 6.9846 7.64634 6.99315C7.63434 7.0017 7.62416 7.01256 7.6164 7.02508C7.44609 7.29908 7.20859 7.52501 6.92642 7.68142C6.64426 7.83784 6.32681 7.91954 6.0042 7.91878C5.67963 7.91988 5.36025 7.83737 5.07683 7.67922C4.79341 7.52106 4.55549 7.29258 4.386 7.01578C4.37026 6.99047 4.34515 6.97241 4.31615 6.96555C4.28714 6.95869 4.2566 6.96359 4.2312 6.97918L4.0596 7.08508C4.03422 7.10076 4.01611 7.12588 4.00924 7.1549C4.00238 7.18393 4.00733 7.2145 4.023 7.23988C4.23081 7.5784 4.5222 7.85777 4.86916 8.05117C5.21612 8.24456 5.60698 8.34546 6.0042 8.34418C6.39893 8.3453 6.78741 8.24552 7.13273 8.05429C7.47806 7.86307 7.76878 7.58675 7.9773 7.25158C7.98514 7.23906 7.99044 7.22511 7.99289 7.21053C7.99534 7.19595 7.9949 7.18104 7.99158 7.16663C7.98827 7.15223 7.98215 7.13862 7.97357 7.12658C7.96499 7.11455 7.95413 7.10432 7.9416 7.09648Z" fill="black"/>
<path d="M4.5795 4.96795C4.75247 4.96795 4.8927 4.82773 4.8927 4.65475C4.8927 4.48178 4.75247 4.34155 4.5795 4.34155C4.40652 4.34155 4.2663 4.48178 4.2663 4.65475C4.2663 4.82773 4.40652 4.96795 4.5795 4.96795Z" fill="black"/>
<path d="M7.32091 4.96795C7.49388 4.96795 7.63411 4.82773 7.63411 4.65475C7.63411 4.48178 7.49388 4.34155 7.32091 4.34155C7.14793 4.34155 7.00771 4.48178 7.00771 4.65475C7.00771 4.82773 7.14793 4.96795 7.32091 4.96795Z" fill="black"/>
</g>
<defs>
<clipPath id="clip0_789_2057">
<rect width="12" height="12" fill="white"/>
</clipPath>
</defs>
</svg>
