<svg width="14" height="12" viewBox="0 0 14 12" fill="none" xmlns="http://www.w3.org/2000/svg">
<path d="M7 1.48505L6.66553 1.18405C5.96491 0.553531 4.89818 0.423137 3.80346 0.537665C2.56491 0.6687 1.29917 1.11345 0.5 1.49017V11.4625C1.31134 11.0891 2.55913 10.6572 3.78609 10.5276L3.78618 10.5276C5.03194 10.3962 6.27167 10.5746 7 11.454C7.72831 10.5746 8.96798 10.3962 10.213 10.5276C11.4406 10.6572 12.6891 11.089 13.5 11.4624V1.49017C12.7008 1.11344 11.435 0.668674 10.1964 0.537653L7 1.48505ZM7 1.48505L7.33447 1.18405M7 1.48505L7.33447 1.18405M7.33447 1.18405C8.03523 0.553404 9.10219 0.422273 10.1963 0.537638L7.33447 1.18405Z" fill="white" stroke="black"/>
</svg>
