<svg width="22" height="24" viewBox="0 0 22 24" fill="none" xmlns="http://www.w3.org/2000/svg">
<path d="M1.57143 6.85714V22.2857H15.7143V6.85714H1.57143ZM0.785714 5.14286H16.5C16.7084 5.14286 16.9082 5.23316 17.0556 5.39391C17.2029 5.55465 17.2857 5.77267 17.2857 6V23.1429C17.2857 23.3702 17.2029 23.5882 17.0556 23.7489C16.9082 23.9097 16.7084 24 16.5 24H0.785714C0.57733 24 0.37748 23.9097 0.23013 23.7489C0.0827803 23.5882 0 23.3702 0 23.1429V6C0 5.77267 0.0827803 5.55465 0.23013 5.39391C0.37748 5.23316 0.57733 5.14286 0.785714 5.14286ZM22 0.857143V19.7143C22 19.9416 21.9172 20.1596 21.7699 20.3204C21.6225 20.4811 21.4227 20.5714 21.2143 20.5714H18.8571V18.8571H20.4286V1.71429H7.85714V3.42857H6.28571V0.857143C6.28571 0.629814 6.36849 0.411797 6.51584 0.251051C6.66319 0.0903058 6.86304 0 7.07143 0H21.2143C21.4227 0 21.6225 0.0903058 21.7699 0.251051C21.9172 0.411797 22 0.629814 22 0.857143ZM4.71429 16.2857H12.5714V18H4.71429V16.2857ZM4.71429 11.1429H12.5714V12.8571H4.71429V11.1429Z" fill="black"/>
</svg>
