<svg width="21" height="24" viewBox="0 0 21 24" fill="none" xmlns="http://www.w3.org/2000/svg">
<path d="M1.5 6.85714V22.2857H15V6.85714H1.5ZM0.75 5.14286H15.75C15.9489 5.14286 16.1397 5.23316 16.2803 5.39391C16.421 5.55465 16.5 5.77267 16.5 6V23.1429C16.5 23.3702 16.421 23.5882 16.2803 23.7489C16.1397 23.9097 15.9489 24 15.75 24H0.75C0.551088 24 0.360322 23.9097 0.21967 23.7489C0.0790176 23.5882 0 23.3702 0 23.1429V6C0 5.77267 0.0790176 5.55465 0.21967 5.39391C0.360322 5.23316 0.551088 5.14286 0.75 5.14286ZM21 0.857143V19.7143C21 19.9416 20.921 20.1596 20.7803 20.3204C20.6397 20.4811 20.4489 20.5714 20.25 20.5714H18V18.8571H19.5V1.71429H7.5V3.42857H6V0.857143C6 0.629814 6.07902 0.411797 6.21967 0.251051C6.36032 0.0903058 6.55109 0 6.75 0H20.25C20.4489 0 20.6397 0.0903058 20.7803 0.251051C20.921 0.411797 21 0.629814 21 0.857143ZM4.5 16.2857H12V18H4.5V16.2857ZM4.5 11.1429H12V12.8571H4.5V11.1429Z" fill="#FDFDEF"/>
</svg>
