<svg width="27" height="21" viewBox="0 0 27 21" fill="none" xmlns="http://www.w3.org/2000/svg">
<path d="M14.2347 20.9999V19.7309C14.2347 18.3081 15.7649 17.1544 17.2952 17.1544C19.115 18.5773 20.9347 18.5773 22.7958 17.1544C24.3261 17.1544 25.8564 18.3081 25.8564 19.7309V20.9999M1 20.9999V19.7309C1 18.3081 2.53026 17.1544 4.06052 17.1544C5.88028 18.5773 7.70005 18.5773 9.56118 17.1544C11.0914 17.1544 12.6217 18.3081 12.6217 19.7309V20.9999" fill="#92D3F5"/>
<path d="M13.4075 2.04155C13.8624 1.11863 15.0618 0.734076 16.0131 1.19554C16.9643 1.657 17.3779 2.73374 16.923 3.65666C16.8816 3.77202 16.7989 3.84893 16.7575 3.92584L13.4075 7.92517L10.0575 3.92584C9.97476 3.84893 9.9334 3.73357 9.89204 3.65666C9.4371 2.73374 9.85069 1.657 10.8019 1.19554C11.7532 0.734076 12.9526 1.11863 13.4075 2.04155Z" fill="#EA5A47"/>
<path d="M15.6822 17.5774C16.1785 17.3082 16.7162 17.1544 17.2952 17.1544C19.115 18.5772 20.9347 18.5772 22.7959 17.1544C23.3749 17.1544 23.9539 17.3082 24.4502 17.6159C24.8224 17.3851 25.1533 17.1159 25.4014 16.7698C26.0218 16.0007 26.2286 14.1934 25.6909 13.0012C24.9465 11.3861 24.7397 11.3861 24.6156 9.30957C24.5743 8.11746 23.5817 7.11763 22.2996 7.00226C22.2996 7.00226 21.5138 6.1178 19.8181 6.1178C17.8329 6.1178 16.0131 7.11763 15.5581 8.69429C15.0618 10.3094 15.6409 10.9631 15.1446 12.1937C14.5655 13.5781 13.6557 15.4239 14.5655 16.7698C14.731 17.0006 15.1032 17.3082 15.6822 17.5774ZM2.28212 9.61721C2.53027 6.27162 5.25992 6.23316 6.62474 6.42544C6.74882 6.46389 7.12104 6.42544 7.24512 6.42544C9.72662 6.1178 10.9674 8.73274 10.9674 9.88639C10.9674 10.3094 10.9674 11.3477 10.347 11.9245C10.347 11.9245 8.94081 10.3094 8.8581 9.38648C8.8581 9.38648 4.14324 11.04 3.81238 9.61721C3.81238 9.61721 3.48151 10.7709 3.192 11.0785V12.2321C3.192 12.2321 2.15804 11.0785 2.28212 9.61721Z" fill="#A57939"/>
<path d="M16.5921 11.8862C16.5921 14.1935 18.1637 15.924 20.0248 15.924C21.886 15.924 23.4576 14.1935 23.4576 11.8862C23.4576 10.425 22.8372 9.57894 21.5965 8.42529C20.3557 9.57894 16.6334 11.0402 16.6334 11.6171L16.5921 11.8862ZM8.85808 9.38667C8.85808 9.38667 4.14323 11.0402 3.81236 9.6174C3.81236 9.6174 3.48149 10.7711 3.19199 11.0787V12.2323C3.44014 14.3474 4.92904 16.0009 6.7488 16.0009C8.65129 16.0009 10.2229 14.1935 10.347 11.9247C10.2229 11.7709 8.9408 10.2711 8.85808 9.38667Z" fill="#FCEA2B"/>
<path d="M10.347 11.4248V11.694C10.347 14.0782 8.73401 16.0394 6.74881 16.0394C4.76361 16.0394 3.15063 14.0782 3.15063 11.694V11.4248" stroke="black" stroke-width="0.333333" stroke-miterlimit="10"/>
<path d="M14.8137 16.5391C13.5729 14.8086 14.5655 13.5781 15.1446 12.1937C15.6409 10.9631 15.0618 10.3094 15.5581 8.69427C16.0131 7.11761 17.8329 6.11778 19.8181 6.11778C21.5137 6.11778 22.2996 7.00225 22.2996 7.00225C23.5817 7.11761 24.5743 8.11744 24.6156 9.30955C24.7397 11.3861 24.9465 11.3861 25.6909 13.0012C26.2286 14.1933 26.0218 15.5393 25.1119 16.5006M2.28212 9.61719C2.53027 6.2716 5.25992 6.23315 6.62474 6.42542C6.74882 6.46388 7.12104 6.42542 7.24512 6.42542C9.72662 6.11778 10.9674 8.73272 10.9674 9.88637C10.9674 10.3094 10.9674 11.3477 10.347 11.9245C10.347 11.9245 8.94081 10.3094 8.85809 9.38646C8.85809 9.38646 4.14324 11.04 3.81238 9.61719C3.81238 9.61719 3.48151 10.7708 3.192 11.0785V12.2321C3.192 12.2321 2.15804 11.0785 2.28212 9.61719ZM13.4075 2.04155C13.8625 1.11863 15.0618 0.734076 16.0131 1.19554C16.9643 1.657 17.3779 2.73374 16.923 3.65666C16.8816 3.77202 16.7989 3.84893 16.7575 3.92584L13.4075 7.92517L10.0575 3.92584C9.97477 3.84893 9.93341 3.73357 9.89205 3.65666C9.43711 2.73374 9.85069 1.657 10.8019 1.19554C11.7532 0.734076 12.9526 1.11863 13.4075 2.04155Z" stroke="black" stroke-width="0.333333" stroke-linecap="round" stroke-linejoin="round"/>
<path d="M16.5921 11.963C16.5921 14.2703 18.1637 16.0008 20.0248 16.0008C21.886 16.0008 23.4576 14.2703 23.4576 11.963C23.4576 10.5017 22.8372 9.65573 21.5965 8.50208C20.3557 9.65573 16.6335 11.117 16.6335 11.6938L16.5921 11.963Z" stroke="black" stroke-width="0.333333" stroke-miterlimit="10" stroke-linejoin="round"/>
<path d="M14.2347 20.6154V19.7309C14.2347 18.3081 15.7649 17.1544 17.2952 17.1544C19.115 18.5773 20.9347 18.5773 22.7958 17.1544C24.3261 17.1544 25.8564 18.3081 25.8564 19.7309V20.6154M1 20.6154V19.7309C1 18.3081 2.53026 17.1544 4.06052 17.1544C5.88028 18.5773 7.70005 18.5773 9.56118 17.1544C11.0914 17.1544 12.6217 18.3081 12.6217 19.7309V20.6154" stroke="black" stroke-width="0.333333" stroke-linecap="round" stroke-linejoin="round"/>
<path d="M21.7619 11.8478C21.7619 12.1555 21.5137 12.3862 21.1829 12.3862C20.852 12.3862 20.6039 12.1555 20.6039 11.8478C20.6039 11.5402 20.852 11.3094 21.1829 11.3094C21.5137 11.3094 21.7619 11.5402 21.7619 11.8478ZM19.4458 11.8478C19.4458 12.1555 19.1977 12.3862 18.8668 12.3862C18.5359 12.3862 18.2878 12.1555 18.2878 11.8478C18.2878 11.5402 18.5359 11.3094 18.8668 11.3094C19.1977 11.3094 19.4458 11.5402 19.4458 11.8478Z" fill="black"/>
<path d="M19.1563 14.0396C19.694 14.3087 20.3557 14.3087 20.8934 14.0396" stroke="black" stroke-width="0.333333" stroke-linecap="round" stroke-linejoin="round"/>
<path d="M8.52722 11.9247C8.52722 12.2324 8.27907 12.4631 7.94821 12.4631C7.61734 12.4631 7.36919 12.2324 7.36919 11.9247C7.36919 11.6171 7.61734 11.3864 7.94821 11.3864C8.27907 11.3864 8.52722 11.6555 8.52722 11.9247ZM6.21116 11.9247C6.21116 12.2324 5.96301 12.4631 5.63214 12.4631C5.30127 12.4631 5.05312 12.2324 5.05312 11.9247C5.05312 11.6171 5.30127 11.3864 5.63214 11.3864C5.96301 11.3864 6.21116 11.6555 6.21116 11.9247Z" fill="black"/>
<path d="M5.92163 14.1549C6.45929 14.4241 7.12102 14.4241 7.65868 14.1549" stroke="black" stroke-width="0.333333" stroke-linecap="round" stroke-linejoin="round"/>
</svg>
