<svg width="20" height="21" viewBox="0 0 20 21" fill="none" xmlns="http://www.w3.org/2000/svg">
<path d="M1.08352 21V19.2946C1.08352 17.3824 3.41383 15.832 5.74414 15.832C8.51532 17.7442 11.2865 17.7442 14.1207 15.832C16.451 15.832 18.7813 17.3824 18.7813 19.2946V21" fill="#92D3F5"/>
<path d="M3.28787 16.4005C4.04364 16.0388 4.8624 15.8321 5.74414 15.8321C8.51532 17.7442 11.2865 17.7442 14.1207 15.8321C15.0024 15.8321 15.8841 16.0388 16.6399 16.4522C17.2068 16.1421 17.7106 15.7804 18.0885 15.3153C19.0332 14.2817 19.3481 11.8527 18.5294 10.2507C17.3957 8.08011 17.0808 8.08011 16.8918 5.28941C16.8289 3.68734 15.3173 2.34367 13.3649 2.18863C13.3649 2.18863 12.1682 1 9.586 1C6.5629 1 3.79172 2.34367 3.09892 4.46254C2.34315 6.63308 3.22489 7.51164 2.46911 9.16538C1.58737 11.0259 0.201779 13.5065 1.58737 15.3153C1.83929 15.6253 2.40613 16.0388 3.28787 16.4005Z" fill="#A57939"/>
<path d="M4.67345 8.752C4.67345 11.8528 7.06674 14.1784 9.9009 14.1784C12.7351 14.1784 15.1284 11.8528 15.1284 8.752C15.1284 6.78817 14.1836 5.65122 12.2942 4.10083C10.4048 5.65122 4.73643 7.61505 4.73643 8.39024L4.67345 8.752Z" fill="#FCEA2B"/>
<path d="M1.96528 15.0052C0.0758407 12.6796 1.58739 11.0259 2.46913 9.16538C3.22491 7.51164 2.34317 6.63308 3.09895 4.46254C3.79174 2.34367 6.56292 1 9.58603 1C12.1683 1 13.3649 2.18863 13.3649 2.18863C15.3173 2.34367 16.8289 3.68734 16.8919 5.28941C17.0808 8.08011 17.3957 8.08011 18.5294 10.2507C19.3481 11.8527 19.0332 13.6615 17.6476 14.9535" stroke="black" stroke-width="0.333333" stroke-linecap="round" stroke-linejoin="round"/>
<path d="M4.67345 8.85527C4.67345 11.956 7.06674 14.2816 9.9009 14.2816C12.7351 14.2816 15.1284 11.956 15.1284 8.85527C15.1284 6.89144 14.1836 5.75449 12.2942 4.2041C10.4048 5.75449 4.73643 7.71832 4.73643 8.49351L4.67345 8.85527Z" stroke="black" stroke-width="0.333333" stroke-miterlimit="10" stroke-linejoin="round"/>
<path d="M1.08352 20.4832V19.2946C1.08352 17.3824 3.41383 15.832 5.74414 15.832C8.51532 17.7442 11.2865 17.7442 14.1207 15.832C16.451 15.832 18.7813 17.3824 18.7813 19.2946V20.4832" stroke="black" stroke-width="0.333333" stroke-linecap="round" stroke-linejoin="round"/>
<path d="M12.5461 8.70032C12.5461 9.11376 12.1682 9.42384 11.6644 9.42384C11.1605 9.42384 10.7827 9.11376 10.7827 8.70032C10.7827 8.28689 11.1605 7.97681 11.6644 7.97681C12.1682 7.97681 12.5461 8.28689 12.5461 8.70032ZM9.01917 8.70032C9.01917 9.11376 8.64128 9.42384 8.13743 9.42384C7.63358 9.42384 7.25569 9.11376 7.25569 8.70032C7.25569 8.28689 7.63358 7.97681 8.13743 7.97681C8.64128 7.97681 9.01917 8.28689 9.01917 8.70032Z" fill="black"/>
<path d="M8.57829 11.6461C9.39705 12.0079 10.4048 12.0079 11.2235 11.6461" stroke="black" stroke-width="0.333333" stroke-linecap="round" stroke-linejoin="round"/>
</svg>
