<svg width="18" height="19" viewBox="0 0 18 19" fill="none" xmlns="http://www.w3.org/2000/svg">
<path d="M5.43334 13.399L6.90084 12.9545L15.7367 3.5658C15.8064 3.49081 15.8452 3.39004 15.8447 3.28526C15.8442 3.18048 15.8045 3.0801 15.7342 3.0058L15.205 2.44405C15.1708 2.40716 15.13 2.37778 15.0848 2.35765C15.0397 2.33751 14.9912 2.32702 14.9422 2.32677C14.8932 2.32653 14.8446 2.33654 14.7993 2.35623C14.754 2.37591 14.7129 2.40487 14.6783 2.44142L5.86584 11.8057L5.43334 13.399ZM16.2525 1.33105L16.7817 1.89367C17.5117 2.6698 17.5183 3.92192 16.795 4.69017L7.69001 14.3659L4.55334 15.3144C4.45851 15.3424 4.35937 15.3505 4.26156 15.3383C4.16375 15.326 4.0692 15.2937 3.9833 15.243C3.89741 15.1924 3.82185 15.1245 3.76095 15.0432C3.70004 14.962 3.65498 14.8689 3.62834 14.7693C3.58747 14.6249 3.58689 14.4713 3.62667 14.3265L4.53917 10.9665L13.62 1.31617C13.7927 1.13361 13.9982 0.988978 14.2247 0.890707C14.4512 0.792436 14.694 0.742496 14.9391 0.743799C15.1841 0.745102 15.4264 0.797623 15.6519 0.898297C15.8774 0.998972 16.0816 1.14666 16.2525 1.33105ZM6.65334 2.33992C7.06667 2.33992 7.40167 2.69605 7.40167 3.1353C7.40233 3.23913 7.38349 3.34209 7.34623 3.43827C7.30897 3.53445 7.25402 3.62198 7.18452 3.69585C7.11502 3.76972 7.03233 3.82848 6.94119 3.86877C6.85004 3.90907 6.75223 3.9301 6.65334 3.93067H3.66001C2.83334 3.93067 2.16334 4.64292 2.16334 5.52055V15.0633C2.16334 15.9418 2.83334 16.654 3.66001 16.654H12.64C13.4667 16.654 14.1375 15.9418 14.1375 15.0633V11.8827C14.1375 11.4434 14.4725 11.0873 14.8858 11.0873C15.2992 11.0873 15.6342 11.4434 15.6342 11.8835V15.0633C15.6342 16.8203 14.2933 18.2448 12.64 18.2448H3.66001C2.00667 18.2448 0.666672 16.8203 0.666672 15.0633V5.52055C0.666672 3.76442 2.00667 2.33992 3.66001 2.33992H6.65334Z" fill="white"/>
</svg>
