<svg width="21" height="24" viewBox="0 0 21 24" fill="none" xmlns="http://www.w3.org/2000/svg">
<path d="M18.2 6H21V24H2.8V6H5.6V4.5H7V6H16.8V4.5H18.2V6ZM19.6 7.5H18.2V9H19.6V7.5ZM16.8 7.5H7V9H16.8V7.5ZM5.6 7.5H4.2V9H5.6V7.5ZM4.2 22.5H19.6V10.5H4.2V22.5ZM2.8 4.5V3H1.4V19.5H0V1.5H2.8V0H4.2V1.5H14V0H15.4V1.5H18.2V3H15.4V4.5H14V3H4.2V4.5H2.8ZM7 16.5V15H8.4V16.5H7ZM9.8 16.5V15H11.2V16.5H9.8ZM12.6 16.5V15H14V16.5H12.6ZM15.4 16.5V15H16.8V16.5H15.4ZM7 19.5V18H8.4V19.5H7ZM9.8 19.5V18H11.2V19.5H9.8ZM12.6 19.5V18H14V19.5H12.6ZM9.8 13.5V12H11.2V13.5H9.8ZM12.6 13.5V12H14V13.5H12.6ZM15.4 13.5V12H16.8V13.5H15.4Z" fill="#FDFDEF"/>
</svg>
