<svg width="21" height="21" viewBox="0 0 21 21" fill="none" xmlns="http://www.w3.org/2000/svg">
<path d="M18.2 5.25H21V21H2.8V5.25H5.6V3.9375H7V5.25H16.8V3.9375H18.2V5.25ZM19.6 6.5625H18.2V7.875H19.6V6.5625ZM16.8 6.5625H7V7.875H16.8V6.5625ZM5.6 6.5625H4.2V7.875H5.6V6.5625ZM4.2 19.6875H19.6V9.1875H4.2V19.6875ZM2.8 3.9375V2.625H1.4V17.0625H0V1.3125H2.8V0H4.2V1.3125H14V0H15.4V1.3125H18.2V2.625H15.4V3.9375H14V2.625H4.2V3.9375H2.8ZM7 14.4375V13.125H8.4V14.4375H7ZM9.8 14.4375V13.125H11.2V14.4375H9.8ZM12.6 14.4375V13.125H14V14.4375H12.6ZM15.4 14.4375V13.125H16.8V14.4375H15.4ZM7 17.0625V15.75H8.4V17.0625H7ZM9.8 17.0625V15.75H11.2V17.0625H9.8ZM12.6 17.0625V15.75H14V17.0625H12.6ZM9.8 11.8125V10.5H11.2V11.8125H9.8ZM12.6 11.8125V10.5H14V11.8125H12.6ZM15.4 11.8125V10.5H16.8V11.8125H15.4Z" fill="black"/>
</svg>
